<?xml version="1.0" encoding="utf-8"?><!DOCTYPE svg PUBLIC "-//W3C//DTD SVG 1.1//EN" "http://www.w3.org/Graphics/SVG/1.1/DTD/svg11.dtd"><svg xmlns="http://www.w3.org/2000/svg" xmlns:xlink="http://www.w3.org/1999/xlink"><symbol class="aaionicon" viewBox="0 0 512 512" id="eui-add" xmlns="http://www.w3.org/2000/svg"><path fill="none" stroke="currentColor" stroke-linecap="round" stroke-linejoin="round" stroke-width="32" d="M256 112v288m144-144H112"/></symbol><symbol class="acionicon" viewBox="0 0 512 512" id="eui-alert" xmlns="http://www.w3.org/2000/svg"><path d="M256 80c-8.66 0-16.58 7.36-16 16l8 216a8 8 0 0 0 8 8h0a8 8 0 0 0 8-8l8-216c.58-8.64-7.34-16-16-16z" fill="none" stroke="currentColor" stroke-linecap="round" stroke-linejoin="round" stroke-width="32"/><circle cx="256" cy="416" r="16" fill="none" stroke="currentColor" stroke-linecap="round" stroke-linejoin="round" stroke-width="32"/></symbol><symbol class="abionicon" viewBox="0 0 512 512" id="eui-alert-circle" xmlns="http://www.w3.org/2000/svg"><path d="M256 48C141.31 48 48 141.31 48 256s93.31 208 208 208 208-93.31 208-208S370.69 48 256 48zm0 319.91a20 20 0 1 1 20-20 20 20 0 0 1-20 20zm21.72-201.15-5.74 122a16 16 0 0 1-32 0l-5.74-121.94v-.05a21.74 21.74 0 1 1 43.44 0z"/></symbol><symbol class="adionicon" viewBox="0 0 512 512" id="eui-arrow-back" xmlns="http://www.w3.org/2000/svg"><path fill="none" stroke="currentColor" stroke-linecap="round" stroke-linejoin="round" stroke-width="48" d="M244 400 100 256l144-144M120 256h292"/></symbol><symbol class="aeionicon" viewBox="0 0 512 512" id="eui-arrow-down" xmlns="http://www.w3.org/2000/svg"><path fill="none" stroke="currentColor" stroke-linecap="round" stroke-linejoin="round" stroke-width="48" d="m112 268 144 144 144-144M256 392V100"/></symbol><symbol class="afionicon" viewBox="0 0 512 512" id="eui-arrow-forward" xmlns="http://www.w3.org/2000/svg"><path fill="none" stroke="currentColor" stroke-linecap="round" stroke-linejoin="round" stroke-width="48" d="m268 112 144 144-144 144m124-144H100"/></symbol><symbol class="agionicon" viewBox="0 0 512 512" id="eui-arrow-redo" xmlns="http://www.w3.org/2000/svg"><path d="M58.79 439.13A16 16 0 0 1 48 424c0-73.1 14.68-131.56 43.65-173.77 35-51 90.21-78.46 164.35-81.87V88a16 16 0 0 1 27.05-11.57l176 168a16 16 0 0 1 0 23.14l-176 168A16 16 0 0 1 256 424v-79.77c-45 1.36-79 8.65-106.07 22.64-29.25 15.12-50.46 37.71-73.32 67a16 16 0 0 1-17.82 5.28z"/></symbol><symbol class="ahionicon" viewBox="0 0 512 512" id="eui-arrow-undo" xmlns="http://www.w3.org/2000/svg"><path d="M448 440a16 16 0 0 1-12.61-6.15c-22.86-29.27-44.07-51.86-73.32-67C335 352.88 301 345.59 256 344.23V424a16 16 0 0 1-27 11.57l-176-168a16 16 0 0 1 0-23.14l176-168A16 16 0 0 1 256 88v80.36c74.14 3.41 129.38 30.91 164.35 81.87C449.32 292.44 464 350.9 464 424a16 16 0 0 1-16 16z"/></symbol><symbol class="aiionicon" viewBox="0 0 512 512" id="eui-arrow-up" xmlns="http://www.w3.org/2000/svg"><path fill="none" stroke="currentColor" stroke-linecap="round" stroke-linejoin="round" stroke-width="48" d="m112 244 144-144 144 144M256 120v292"/></symbol><symbol class="akionicon" viewBox="0 0 512 512" id="eui-bookmark" xmlns="http://www.w3.org/2000/svg"><path d="M400 480a16 16 0 0 1-10.63-4L256 357.41 122.63 476A16 16 0 0 1 96 464V96a64.07 64.07 0 0 1 64-64h192a64.07 64.07 0 0 1 64 64v368a16 16 0 0 1-16 16z"/></symbol><symbol class="ajionicon" viewBox="0 0 512 512" id="eui-bookmark-outline" xmlns="http://www.w3.org/2000/svg"><path d="M352 48H160a48 48 0 0 0-48 48v368l144-128 144 128V96a48 48 0 0 0-48-48z" fill="none" stroke="currentColor" stroke-linecap="round" stroke-linejoin="round" stroke-width="32"/></symbol><symbol class="amionicon" viewBox="0 0 512 512" id="eui-calendar" xmlns="http://www.w3.org/2000/svg"><path d="M480 128a64 64 0 0 0-64-64h-16V48.45c0-8.61-6.62-16-15.23-16.43A16 16 0 0 0 368 48v16H144V48.45c0-8.61-6.62-16-15.23-16.43A16 16 0 0 0 112 48v16H96a64 64 0 0 0-64 64v12a4 4 0 0 0 4 4h440a4 4 0 0 0 4-4zM32 416a64 64 0 0 0 64 64h320a64 64 0 0 0 64-64V179a3 3 0 0 0-3-3H35a3 3 0 0 0-3 3zm344-208a24 24 0 1 1-24 24 24 24 0 0 1 24-24zm0 80a24 24 0 1 1-24 24 24 24 0 0 1 24-24zm-80-80a24 24 0 1 1-24 24 24 24 0 0 1 24-24zm0 80a24 24 0 1 1-24 24 24 24 0 0 1 24-24zm0 80a24 24 0 1 1-24 24 24 24 0 0 1 24-24zm-80-80a24 24 0 1 1-24 24 24 24 0 0 1 24-24zm0 80a24 24 0 1 1-24 24 24 24 0 0 1 24-24zm-80-80a24 24 0 1 1-24 24 24 24 0 0 1 24-24zm0 80a24 24 0 1 1-24 24 24 24 0 0 1 24-24z"/></symbol><symbol class="alionicon" viewBox="0 0 512 512" id="eui-calendar-outline" xmlns="http://www.w3.org/2000/svg"><rect fill="none" stroke="currentColor" stroke-linejoin="round" stroke-width="32" x="48" y="80" width="416" height="384" rx="48"/><circle cx="296" cy="232" r="24"/><circle cx="376" cy="232" r="24"/><circle cx="296" cy="312" r="24"/><circle cx="376" cy="312" r="24"/><circle cx="136" cy="312" r="24"/><circle cx="216" cy="312" r="24"/><circle cx="136" cy="392" r="24"/><circle cx="216" cy="392" r="24"/><circle cx="296" cy="392" r="24"/><path fill="none" stroke="currentColor" stroke-linejoin="round" stroke-width="32" stroke-linecap="round" d="M128 48v32m256-32v32"/><path fill="none" stroke="currentColor" stroke-linejoin="round" stroke-width="32" d="M464 160H48"/></symbol><symbol class="anionicon" viewBox="0 0 512 512" id="eui-caret-down" xmlns="http://www.w3.org/2000/svg"><path d="m98 190.06 139.78 163.12a24 24 0 0 0 36.44 0L414 190.06c13.34-15.57 2.28-39.62-18.22-39.62h-279.6c-20.5 0-31.56 24.05-18.18 39.62z"/></symbol><symbol viewBox="0 0 48 48" id="eui-caret-first" xmlns="http://www.w3.org/2000/svg"><path d="M33.474 8.683q.385-.385.649-.264t.264.649v29.863q0 .527-.264.649t-.649-.264L19.07 24.912q-.183-.183-.264-.385v13.755q0 .527-.385.913t-.913.385h-2.597q-.527 0-.913-.385t-.385-.913V9.717q0-.527.385-.913t.913-.385h2.597q.527 0 .913.385t.385.913v13.755q.081-.203.264-.385z"/></symbol><symbol viewBox="0 0 48 48" id="eui-caret-last" xmlns="http://www.w3.org/2000/svg"><path d="M14.526 39.317q-.385.385-.649.264t-.264-.649V9.069q0-.527.264-.649t.649.264L28.93 23.088q.183.183.264.385V9.718q0-.527.385-.913t.913-.385h2.597q.527 0 .913.385t.385.913v28.565q0 .527-.385.913t-.913.385h-2.597q-.527 0-.913-.385t-.385-.913V24.528q-.081.203-.264.385z"/></symbol><symbol viewBox="0 0 48 48" id="eui-caret-left" xmlns="http://www.w3.org/2000/svg"><path d="M32.438 10.875v26.25c0 1.025-.85 1.875-1.875 1.875a1.86 1.86 0 0 1-1.318-.557L16.12 25.318c-.352-.352-.557-.82-.557-1.318s.205-.967.557-1.318L29.245 9.557c.352-.352.82-.557 1.318-.557 1.025 0 1.875.85 1.875 1.875z"/></symbol><symbol viewBox="0 0 48 48" id="eui-caret-right" xmlns="http://www.w3.org/2000/svg"><path d="M32.438 24c0 .498-.205.967-.557 1.318L18.756 38.443c-.352.352-.82.557-1.318.557a1.889 1.889 0 0 1-1.875-1.875v-26.25c0-1.025.85-1.875 1.875-1.875.498 0 .967.205 1.318.557l13.125 13.125c.352.352.557.82.557 1.318z"/></symbol><symbol class="asionicon" viewBox="0 0 512 512" id="eui-caret-up" xmlns="http://www.w3.org/2000/svg"><path d="M414 321.94 274.22 158.82a24 24 0 0 0-36.44 0L98 321.94c-13.34 15.57-2.28 39.62 18.22 39.62h279.6c20.5 0 31.56-24.05 18.18-39.62z"/></symbol><symbol viewBox="0 0 48 48" id="eui-check" xmlns="http://www.w3.org/2000/svg"><path d="M41.476 15.837c0 .564-.225 1.127-.631 1.533L21.452 36.763c-.406.406-.97.631-1.533.631s-1.127-.225-1.533-.631l-11.23-11.23c-.406-.406-.631-.97-.631-1.533s.225-1.127.631-1.533l3.067-3.067c.406-.406.97-.631 1.533-.631s1.127.225 1.533.631l6.63 6.652 14.793-14.815c.406-.406.97-.631 1.533-.631s1.127.225 1.533.631l3.067 3.067c.406.406.631.97.631 1.533z"/></symbol><symbol viewBox="0 0 48 48" id="eui-checkbox" xmlns="http://www.w3.org/2000/svg"><path d="M38 6H10c-2.22 0-4 1.8-4 4v28c0 2.2 1.78 4 4 4h28c2.22 0 4-1.8 4-4V10c0-2.2-1.78-4-4-4zM20 34 10 24l2.82-2.82L20 28.34l15.18-15.18L38 16 20 34z"/></symbol><symbol viewBox="0 0 48 48" id="eui-checkbox-intermediate" xmlns="http://www.w3.org/2000/svg"><path d="M38 6H10c-2.2 0-4 1.8-4 4v28c0 2.2 1.8 4 4 4h28c2.2 0 4-1.8 4-4V10c0-2.2-1.8-4-4-4zm-4 20H14v-4h20v4z"/></symbol><symbol viewBox="0 0 48 48" id="eui-checkbox-outline" xmlns="http://www.w3.org/2000/svg"><path d="M38 10v28H10V10h28zm0-4H10c-2.2 0-4 1.8-4 4v28c0 2.2 1.8 4 4 4h28c2.2 0 4-1.8 4-4V10c0-2.2-1.8-4-4-4z"/></symbol><symbol class="ayionicon" viewBox="0 0 512 512" id="eui-checkmark" xmlns="http://www.w3.org/2000/svg"><path fill="none" stroke="currentColor" stroke-linecap="round" stroke-linejoin="round" stroke-width="32" d="M416 128 192 384l-96-96"/></symbol><symbol class="axionicon" viewBox="0 0 512 512" id="eui-checkmark-done" xmlns="http://www.w3.org/2000/svg"><path fill="none" stroke="currentColor" stroke-linecap="round" stroke-linejoin="round" stroke-width="32" d="M464 128 240 384l-96-96m0 96-96-96m320-160L232 284"/></symbol><symbol class="azionicon" viewBox="0 0 512 512" id="eui-chevron-back" xmlns="http://www.w3.org/2000/svg"><path fill="none" stroke="currentColor" stroke-linecap="round" stroke-linejoin="round" stroke-width="48" d="M328 112 184 256l144 144"/></symbol><symbol class="baionicon" viewBox="0 0 512 512" id="eui-chevron-down" xmlns="http://www.w3.org/2000/svg"><path fill="none" stroke="currentColor" stroke-linecap="round" stroke-linejoin="round" stroke-width="48" d="m112 184 144 144 144-144"/></symbol><symbol class="bbionicon" viewBox="0 0 512 512" id="eui-chevron-forward" xmlns="http://www.w3.org/2000/svg"><path fill="none" stroke="currentColor" stroke-linecap="round" stroke-linejoin="round" stroke-width="48" d="m184 112 144 144-144 144"/></symbol><symbol class="bcionicon" viewBox="0 0 512 512" id="eui-chevron-up" xmlns="http://www.w3.org/2000/svg"><path fill="none" stroke="currentColor" stroke-linecap="round" stroke-linejoin="round" stroke-width="48" d="m112 328 144-144 144 144"/></symbol><symbol viewBox="0 0 512 512" id="eui-clock-history" xmlns="http://www.w3.org/2000/svg"><!--! Font Awesome Pro 6.3.0 by @fontawesome - https://fontawesome.com License - https://fontawesome.com/license (Commercial License) Copyright 2023 Fonticons, Inc.--><path d="M75 75 41 41C25.9 25.9 0 36.6 0 57.9V168c0 13.3 10.7 24 24 24h110.1c21.4 0 32.1-25.9 17-41l-30.8-30.8C155 85.5 203 64 256 64c106 0 192 86 192 192s-86 192-192 192c-40.8 0-78.6-12.7-109.7-34.4-14.5-10.1-34.4-6.6-44.6 7.9s-6.6 34.4 7.9 44.6C151.2 495 201.7 512 256 512c141.4 0 256-114.6 256-256S397.4 0 256 0C185.3 0 121.3 28.7 75 75zm181 53c-13.3 0-24 10.7-24 24v104c0 6.4 2.5 12.5 7 17l72 72c9.4 9.4 24.6 9.4 33.9 0s9.4-24.6 0-33.9l-65-65V152c0-13.3-10.7-24-24-24z"/></symbol><symbol class="beionicon" viewBox="0 0 512 512" id="eui-close" xmlns="http://www.w3.org/2000/svg"><path d="m289.94 256 95-95A24 24 0 0 0 351 127l-95 95-95-95a24 24 0 0 0-34 34l95 95-95 95a24 24 0 1 0 34 34l95-95 95 95a24 24 0 0 0 34-34z"/></symbol><symbol viewBox="0 0 48 48" id="eui-code" xmlns="http://www.w3.org/2000/svg"><path d="m16.5 33.599-1.093 1.093a.7.7 0 0 1-1.006 0L4.212 24.503a.7.7 0 0 1 0-1.006l10.189-10.189a.7.7 0 0 1 1.006 0l1.093 1.093a.7.7 0 0 1 0 1.006L7.907 24l8.593 8.593a.7.7 0 0 1 0 1.006zm12.923-23.33-8.156 28.228c-.109.372-.503.59-.853.481l-1.356-.372a.709.709 0 0 1-.481-.875l8.156-28.228c.109-.372.503-.59.853-.481l1.356.372c.372.109.59.503.481.875zm14.365 14.234L33.599 34.692a.7.7 0 0 1-1.006 0L31.5 33.599a.7.7 0 0 1 0-1.006L40.093 24 31.5 15.407a.7.7 0 0 1 0-1.006l1.093-1.093a.7.7 0 0 1 1.006 0l10.189 10.189a.7.7 0 0 1 0 1.006z"/></symbol><symbol viewBox="0 0 48 48" id="eui-create" xmlns="http://www.w3.org/2000/svg"><path d="M6.002 34.498v7.499h7.499L35.618 19.88l-7.499-7.499L6.002 34.498zm35.416-20.417c.78-.78.78-2.04 0-2.82l-4.679-4.679c-.78-.78-2.04-.78-2.82 0l-3.66 3.66 7.499 7.499 3.66-3.66z"/></symbol><symbol viewBox="0 0 48 48" id="eui-delete" xmlns="http://www.w3.org/2000/svg"><path d="M12 38c0 2.2 1.8 4 4 4h16c2.2 0 4-1.8 4-4V14H12v24zM38 8h-7l-2-2H19l-2 2h-7v4h28V8z"/></symbol><symbol viewBox="0 0 48 48" id="eui-delete-forever" xmlns="http://www.w3.org/2000/svg"><path d="M12 38c0 2.2 1.8 4 4 4h16c2.2 0 4-1.8 4-4V14H12v24zm4.92-14.24 2.82-2.82L24 25.18l4.24-4.24 2.82 2.82L26.82 28l4.24 4.24-2.82 2.82L24 30.82l-4.24 4.24-2.82-2.82L21.18 28l-4.26-4.24zM31 8l-2-2H19l-2 2h-7v4h28V8z"/></symbol><symbol viewBox="0 0 48 48" id="eui-ecl-audio" xmlns="http://www.w3.org/2000/svg"><path d="M24 2v44L10 32H2V16h8L24 2zm15 5.03c4.667 4.666 7.043 10.776 6.958 16.97-.085 6.194-2.291 12.304-6.958 16.97l-3.31-3.309c7.553-7.552 7.553-19.94.086-27.407L39 7.029zm-8 5.656c3.086 3.086 4.628 7.2 4.628 11.314S34.171 32.142 31 35.314l-3.257-3.429c2.143-2.142 3.343-4.885 3.343-7.97 0-3.086-1.2-5.829-3.343-7.972L31 12.686z"/></symbol><symbol viewBox="0 0 48 48" id="eui-ecl-back" xmlns="http://www.w3.org/2000/svg"><path d="M45 26H10l8 8-3 3L2 24l13-13 3 3-8 8h35z"/></symbol><symbol viewBox="0 0 48 48" id="eui-ecl-book" xmlns="http://www.w3.org/2000/svg"><defs><path d="M41.887 2H9.957C7.696 2 6 3.59 6 6v36c0 2.536 1.852 4 4 4h28V8H12c-2 0-4 0-4-2s2-2 4-2h28v34h2l-.113-36z" id="bla"/></defs><use xlink:href="#bla"/></symbol><symbol viewBox="0 0 48 48" id="eui-ecl-brochure" xmlns="http://www.w3.org/2000/svg"><path d="M37 8V2H7v38c2.762-.016 4.43-.016 5 0v6h28V8h-3zM12 38H8.989L9 4h19L12 7v31zM35 4v4H14l21-4zm3 40H14V10h24v34z"/><path d="M35 16H17v2h18zm0 5H17v2h18zm0 5H17v2h18zm-5 5H17v2h13z"/></symbol><symbol viewBox="0 0 48 48" id="eui-ecl-budget" xmlns="http://www.w3.org/2000/svg"><path d="M30 14c8.833 0 16-2.69 16-6s-7.167-6-16-6-16 2.69-16 6 7.167 6 16 6zm8 8c4.48-.928 8-1.912 8-4v-4c-2.651 2.157-7.206 3.317-12 3.592 2.203 1.23 3.343 2.371 4 4.408zm-20 8c7 0 16-2.488 16-7 0-4.512-8-7-16-7S2 18.488 2 23c0 4.512 9 7 16 7zm20 0c4.775-.905 8-2.067 8-4v-4c-1 2-6 4-8 4v4zm-20 8c8.833 0 16-2.946 16-6v-4c-3.442 2.941-9.742 4.464-16 4.464-6.258 0-12.558-1.523-16-4.464v4c0 3.054 7.167 6 16 6zm0 8c8.833 0 16-2.69 16-5.998V36c-3.442 2.727-9.733 4.002-16 4.002-6.267 0-12.558-1.275-16-4.002v4.002C2 43.31 9.167 46 18 46z"/></symbol><symbol viewBox="0 0 48 48" id="eui-ecl-calendar" xmlns="http://www.w3.org/2000/svg"><defs><path d="M10 8V2h6v6c0 1.65-1.16 3-3 3-1.841 0-3-1.235-3-3zm22 0V2h6v6c0 1.812-1.342 3-3 3s-3-1.188-3-3zm10 34h-6v-6h6v6zm0-8h-6v-6h6v6zm0-8h-6v-6h6v6zM32 42h-6v-6h6v6zm0-8h-6v-6h6v6zm0-8h-6v-6h6v6zM22 42h-6v-6h6v6zm0-8h-6v-6h6v6zm0-8h-6v-6h6v6zM12 42H6v-6h6v6zm0-8H6v-6h6v6zm0-8H6v-6h6v6zm32-8H4v26h40V18zM2 46V6h6v2c0 2.514 2.196 5 5 5s5-2.486 5-5V6h12v2c0 2.514 2.198 5 5 5s5-2.486 5-5V6h6v40H2z" id="boa"/></defs><use xlink:href="#boa"/></symbol><symbol viewBox="0 0 48 48" id="eui-ecl-check" xmlns="http://www.w3.org/2000/svg"><defs><path id="bqa" d="M36 12 20 28l-8-8-4 4 12 12 20-20z"/></defs><use xlink:href="#bqa"/></symbol><symbol viewBox="0 0 48 48" id="eui-ecl-check-filled" xmlns="http://www.w3.org/2000/svg"><path d="M24 2c12.198 0 22 9.81 22 22s-9.81 22-22 22S2 36.19 2 24 11.81 2 24 2zm9.25 14-11 10.667-5.5-5.334L14 24l8 8 14-13.333L33.25 16z"/></symbol><symbol viewBox="0 0 48 48" id="eui-ecl-close" xmlns="http://www.w3.org/2000/svg"><defs><path d="M32 29.315 26.703 24 32 18.685 29.31 16l-5.161 5.288-5.46-5.261L16 18.712 21.324 24 16 29.288l2.69 2.685 5.324-5.288L29.31 32 32 29.315zm4.726-18.041a17.807 17.807 0 0 0-5.715-3.854A17.847 17.847 0 0 0 24 6a17.86 17.86 0 0 0-7.013 1.42c-2.133.902-4.06 2.2-5.715 3.854a17.817 17.817 0 0 0-3.854 5.715A17.877 17.877 0 0 0 6 24a17.948 17.948 0 0 0 5.272 12.728 17.836 17.836 0 0 0 5.715 3.854A17.88 17.88 0 0 0 24 42a17.942 17.942 0 0 0 12.726-5.272 17.856 17.856 0 0 0 3.854-5.715C41.52 28.793 42 26.435 42 24c0-2.434-.48-4.793-1.42-7.011a17.814 17.814 0 0 0-3.854-5.715zm2.828-2.828a21.764 21.764 0 0 0-6.985-4.71A21.813 21.813 0 0 0 24 2c-2.977 0-5.86.585-8.571 1.736a21.917 21.917 0 0 0-6.985 4.71 21.776 21.776 0 0 0-4.71 6.985A21.85 21.85 0 0 0 2 24c0 2.977.585 5.859 1.734 8.571a21.917 21.917 0 0 0 4.71 6.985 21.8 21.8 0 0 0 6.985 4.71A21.852 21.852 0 0 0 24 46a21.85 21.85 0 0 0 8.569-1.734 21.929 21.929 0 0 0 6.985-4.71 21.824 21.824 0 0 0 4.71-6.985A21.862 21.862 0 0 0 46 24c0-2.974-.587-5.859-1.736-8.569a21.772 21.772 0 0 0-4.71-6.985z" id="bsa"/></defs><use xlink:href="#bsa" fill-rule="evenodd"/></symbol><symbol viewBox="0 0 48 48" id="eui-ecl-close-filled" xmlns="http://www.w3.org/2000/svg"><defs><path d="M32 29.315 26.703 24 32 18.685 29.31 16l-5.161 5.288-5.46-5.261L16 18.712 21.324 24 16 29.288l2.69 2.685 5.324-5.288L29.31 32 32 29.315zm7.554-20.869a21.764 21.764 0 0 0-6.985-4.71A21.813 21.813 0 0 0 24 2c-2.977 0-5.86.585-8.571 1.736a21.917 21.917 0 0 0-6.985 4.71 21.776 21.776 0 0 0-4.71 6.985A21.85 21.85 0 0 0 2 24c0 2.977.585 5.859 1.734 8.571a21.917 21.917 0 0 0 4.71 6.985 21.8 21.8 0 0 0 6.985 4.71A21.852 21.852 0 0 0 24 46a21.85 21.85 0 0 0 8.569-1.734 21.929 21.929 0 0 0 6.985-4.71 21.824 21.824 0 0 0 4.71-6.985A21.862 21.862 0 0 0 46 24c0-2.974-.587-5.859-1.736-8.569a21.772 21.772 0 0 0-4.71-6.985z" id="bra"/></defs><use xlink:href="#bra" fill-rule="evenodd"/></symbol><symbol viewBox="0 0 48 48" id="eui-ecl-copy" xmlns="http://www.w3.org/2000/svg"><defs><path d="M42 10v36H14V16l6-6h22zm-4 4H24v4h-6v24h20V14zM12 38H8V8l8.027-6H40v6h-4V6H20v2l-4 4h-4v26z" id="bta"/></defs><use xlink:href="#bta"/></symbol><symbol viewBox="0 0 48 48" id="eui-ecl-corner-arrow" xmlns="http://www.w3.org/2000/svg"><defs><path id="bua" d="M40 38 24 20 8 38l-6-6L24 8l22 24z"/></defs><use xlink:href="#bua"/></symbol><symbol viewBox="0 0 48 48" id="eui-ecl-data" xmlns="http://www.w3.org/2000/svg"><defs><path d="M24 18c-10.556 0-16-4.206-16-6 0-1.794 5.444-6 16-6 10.557 0 16 4.206 16 6 0 1.794-5.443 6-16 6zm16 6c0 2.125-5.443 6-16 6-10.556 0-16-3.875-16-6v-6c3.732 2.254 9.51 3.71 16 4 6.492-.29 12.268-1.746 16-4v6zm0 12c0 2.125-5.443 6-16 6-10.556 0-16-3.875-16-6v-6c3.732 2.254 9.51 3.709 16 4 6.492-.291 12.268-1.746 16-4v6zM24 2C12.971 2 4 6.32 4 12v24c0 5.68 8.971 10 20 10s20-4.32 20-10V12c0-5.68-8.971-10-20-10z" id="bva"/></defs><use xlink:href="#bva"/></symbol><symbol viewBox="0 0 48 48" id="eui-ecl-digital" xmlns="http://www.w3.org/2000/svg"><path d="M40 28h-6v-8h-8v6h-6v8h8v6H14V26H2V2h24v12h8V8h6v6h6v20h-6v-6zM8 8v12h12V8H8zm32-6h6v6h-6V2zM28 28h6v6h-6v-6zM2 34h6v6H2v-6zm6 6h6v6H8v-6zm32 0h6v6h-6v-6zm-12 0h6v6h-6v-6zM10 10h8v8h-8v-8z"/></symbol><symbol viewBox="0 0 48 48" id="eui-ecl-download" xmlns="http://www.w3.org/2000/svg"><path d="M6 24v18h36V24h4v22H2V24h4zM26 2v24l8-8 3 3-13 13-13-13 3-3 8 8V2h4z"/></symbol><symbol viewBox="0 0 48 48" id="eui-ecl-edit" xmlns="http://www.w3.org/2000/svg"><path d="M36 2v12l5.456 5.657-14.142 14.142-8.486 2.828 2.829-8.485L32 17.943V6H20v6h-8v30h20v-6l4-4v14H8V9.333L14 2h22z"/></symbol><symbol viewBox="0 0 48 48" id="eui-ecl-energy" xmlns="http://www.w3.org/2000/svg"><defs><path d="M23.392 17.857c3.18-.475 5.894 3.044 3.96 6.174-1.62 2.623-6.966 2.607-7.343-1.776-.09-1.042.548-2.575.577-2.621.533-.863 1.47-1.577 2.806-1.777zM22 30l4 4 2 12h-8l2-16zm8.806-5.802c2.559 3.766 5.76 8.735 6.829 12.384.197.675.405 2.2-.394 2.801-.799.602-2.184-.007-2.801-.393-3.381-2.116-6.86-6.282-10.023-9.978 2.801.394 5.996-2.013 6.39-4.814zM17.733 18.22c-1.856 2.134-1.577 6.125.558 7.98-4.552.095-10.464.074-14.106-1.018-.673-.202-2.064-.858-2.134-1.856-.07-.997 1.196-1.827 1.855-2.134 3.616-1.684 9.005-2.333 13.827-2.972zM32.596 1.563c.92.39 1.086 1.895 1.06 2.622-.142 3.986-2.01 9.082-3.63 13.669-1.06-2.623-4.741-4.185-7.364-3.126 1.983-4.098 4.685-9.356 7.312-12.106.485-.508 1.702-1.45 2.622-1.06z" id="bza"/></defs><use xlink:href="#bza"/></symbol><symbol viewBox="0 0 48 48" id="eui-ecl-error" xmlns="http://www.w3.org/2000/svg"><path d="m34 2 12 12v20L34 46H14L2 34V14L14 2h20zm-4.69 14-5.161 5.288-5.46-5.261L16 18.712 21.324 24 16 29.288l2.69 2.685 5.324-5.288L29.31 32 32 29.315 26.703 24 32 18.685 29.31 16z"/></symbol><symbol viewBox="0 0 48 48" id="eui-ecl-euro" xmlns="http://www.w3.org/2000/svg"><path d="M24 2A22 22 0 0 0 2 24a22 22 0 0 0 22 22 22 22 0 0 0 22-22A22 22 0 0 0 24 2zm1.773 12c1.624 0 3.035.464 4.227 1l-.852 3.455c-.819-.748-2.011-1.113-3.591-1.113C23.98 17.342 21 18 20 21h9l-1 2h-8a40.795 40.795 0 0 0 0 2h8l-1 2h-7c1 3 3.92 3.656 5.467 3.656 1.855 0 3.435-.624 4.533-1.656v4c-1.254.562-2.816 1-4.49 1-2.816 0-5.702-1.237-7.51-3-1.24-1.197-1.598-2.21-2-4h-2l1-2h1a45.931 45.931 0 0 1 0-2h-2l1-2h1c.402-1.75 1.389-3.163 2.596-4.334C20.422 14.89 22.802 14 25.773 14z"/></symbol><symbol viewBox="0 0 48 48" id="eui-ecl-external" xmlns="http://www.w3.org/2000/svg"><path d="M14 2v4H6v36h36v-8h4v12H2V2h12zm32 0v20h-4V8.667l-.201.404-16.97 16.97L22 23.214l16.97-16.97.484-.243H26V2h20z"/></symbol><symbol viewBox="0 0 48 48" id="eui-ecl-external-events" xmlns="http://www.w3.org/2000/svg"><path d="M21.548 41H4.952V18h37.096v7H44V7h-5.858v1.8c0 2.26-2.394 4.2-4.88 4.2-2.488 0-4.892-1.937-4.892-4.2V7h-9.752v1.8c0 2.26-2.394 4.2-4.88 4.2-2.488 0-4.892-1.937-4.892-4.2V7H3v36h18.548v-2Z"/><path d="M11 8.334V3h6v5.334C17 9.8 15.84 11 14 11s-3-1.097-3-2.666ZM30 8.334V3h6v5.334C36 9.944 34.657 11 32.997 11 31.337 11 30 9.944 30 8.334ZM44 40v6H25V27h6v2h-4v15h15v-4z"/><path d="M44 27v8h-2.036L42 30.5 35.5 37 34 35.5l6.5-6.5H36v-2zM22 34h-5v5h5zM22 27h-5v5h5zM13 34H8v5h5zM13 27H8v5h5zM39 20h-5v5h5zM30 20h-5v5h5zM22 20h-5v5h5zM13 20H8v5h5z"/></symbol><symbol viewBox="0 0 48 48" id="eui-ecl-faq" xmlns="http://www.w3.org/2000/svg"><defs><path d="M19 31c0-3.46 1.236-4.406 1.8-5.545.564-1.14 1.918-2.31 3.61-3.701 1.724-1.392 2.759-2.34 3.072-2.75.532-.696.651-1.454.651-2.277 0-2.909-2.933-4.363-4.4-4.363-1.466 0-5.866 0-6.342 5.375L12 17.044c.156-2.498 1.222-4.648 3.196-6.388C17.171 8.885 19.74 8 22.97 8c3.353 0 6.048.886 8.022 2.687C32.997 12.46 34 14.514 34 16.885c0 1.297-.376 2.53-1.097 3.7-.752 1.169-2.32 2.75-4.7 4.773-1.253 1.044-2.006 1.866-2.32 2.498C25.601 28.49 25 29.278 25 31h-6zm0 9v-6h6v6h-6z" id="cea"/></defs><use xlink:href="#cea"/></symbol><symbol viewBox="0 0 48 48" id="eui-ecl-feedback" xmlns="http://www.w3.org/2000/svg"><path d="M23 2c11.598 0 21 9.402 21 21 0 4.365-1.332 8.419-3.611 11.778L46 46l-12.784-4.648A20.905 20.905 0 0 1 23 44C11.402 44 2 34.598 2 23S11.402 2 23 2z"/></symbol><symbol viewBox="0 0 48 48" id="eui-ecl-file" xmlns="http://www.w3.org/2000/svg"><path d="M38 2v26.056L34 28V6H22v6h-8v30h20V28h4v18H10V9.333L16 2z"/></symbol><symbol viewBox="0 0 48 48" id="eui-ecl-fullscreen" xmlns="http://www.w3.org/2000/svg"><path d="M8 30v10h10v4H4V30h4zm36 0v14H30v-4h10V30h4zM18 4v4H8v10H4V4h14zm26 0v14h-4V8H30V4h14z"/></symbol><symbol viewBox="0 0 48 48" id="eui-ecl-gear" xmlns="http://www.w3.org/2000/svg"><path d="m26 2 2 5.998 4.485 1.86 5.657-2.829 2.829 2.829-2.829 5.657L40 20l6 1.384v5.007L40 28l-1.858 4.485 3.264 5.222-3.54 3.54-5.38-3.105L28 40l-2 6h-4l-2-6-4.485-1.858-5.657 2.829-2.829-2.829 2.829-5.657L7.998 28 2 26v-4l6-2 1.858-4.485-2.829-5.657 2.829-2.829 5.657 2.829L20 7.998 22 2h4zm-1.987 14C19.589 16 16 19.582 16 23.998 16 28.412 19.589 32 24.013 32 28.437 32 32 28.41 32 23.998A7.983 7.983 0 0 0 24.013 16z"/></symbol><symbol viewBox="0 0 48 48" id="eui-ecl-generic-lang" xmlns="http://www.w3.org/2000/svg"><defs><path d="M33.952 24.657a11.612 11.612 0 0 0 1.072-4.197h-4.151a18.897 18.897 0 0 1-.607 4.197h3.686zm1.12-5.876A11.642 11.642 0 0 0 34 14.583h-3.73c.325 1.26.56 2.66.652 4.198h4.15zm-10.868 7.555v4.803c.746-.56 2.47-2.052 3.684-4.803h-3.684zm5.457 0c-.746 1.865-1.725 3.357-2.612 4.384 2.424-.84 4.477-2.332 5.923-4.384h-3.31zm3.357-13.431c-1.4-2.053-3.451-3.592-5.83-4.43.84 1.071 1.819 2.517 2.565 4.43h3.265zm-4.477 1.678h-4.337v4.198h5.037c-.093-1.585-.326-2.985-.7-4.198zm-4.337 5.877v4.197h4.337c.372-1.213.607-2.612.653-4.197h-4.99zm3.684-7.602c-.372-1.025-.932-1.865-1.4-2.564a11.502 11.502 0 0 0-1.912-2.006c-.093-.14-.233-.186-.372-.28v4.852h3.684v-.002zm-9.047 0h3.73V8.055c-.792.56-2.517 2.1-3.73 4.803zm-1.773 0a14.683 14.683 0 0 1 2.612-4.384c-2.425.793-4.477 2.378-5.923 4.384h3.31zm-1.259 7.555h-4.15a11.402 11.402 0 0 0 1.071 4.198h3.685c-.326-1.26-.514-2.612-.607-4.198h.001zm.654-5.876h-3.685a12.734 12.734 0 0 0-1.12 4.198h4.198c.093-1.54.28-2.939.607-4.198zM2 32c0 2.383 1.96 4 4 4h12l16 10V36h8c2.188 0 4-1.775 4-4V6c0-2.108-1.905-4-4-4H6.182C4.075 2 2 4.073 2 6.182V32zm7.98-12.426c0-7.415 6.016-13.431 13.43-13.385 7.416 0 13.386 6.016 13.34 13.431 0 7.416-6.017 13.432-13.432 13.385-7.415 0-13.385-6.016-13.338-13.431zm3.732 6.715a12.087 12.087 0 0 0 5.876 4.431 14.952 14.952 0 0 1-2.564-4.43h-3.312zm4.522-1.678h4.291v-4.198h-4.99c.046 1.586.279 2.985.7 4.198zm4.293-5.876v-4.198h-4.338c-.374 1.213-.56 2.612-.653 4.198h4.99zM20.24 28.854c.7.886 1.4 1.585 1.913 2.006.093.14.232.232.326.279v-4.803h-3.685c.42.979.98 1.818 1.446 2.518z" id="cja"/></defs><use xlink:href="#cja"/></symbol><symbol viewBox="0 0 48 48" id="eui-ecl-global" xmlns="http://www.w3.org/2000/svg"><path d="M2 24c0 12.144 9.834 22 21.978 22C36.144 46 46 36.144 46 24S36.144 2 23.978 2C11.834 2 2 11.856 2 24zm38-8h-7c-.704-2.75-1.982-6.19-3.302-8.632C33.746 8.754 40 16 40 16zM24 6c1.826 2.64 4 7 4 10h-8c0-3 4-10 4-10zM6.4 24c0-1.518.22-2.992.572-4.4h7.436c-.176 1.452-.308 2.904-.308 4.4 0 1.496.132 2.948.308 4.4H6.972C6.62 26.992 6.4 25.518 6.4 24zM8 32h7c.704 2.75 1.982 6.19 3.302 8.632C14.254 39.246 8 32 8 32zm7-16H8c2.112-3.652 6.254-7.246 10.302-8.632C16.982 9.81 15 16 15 16zm9 26c-1.826-2.64-4-7-4-10h8c0 3-4 10-4 10zm-5.148-13.6c-.198-1.452-.352-2.904-.352-4.4 0-1.496.154-2.97.352-4.4h10.296c.198 1.43.352 2.904.352 4.4 0 1.496-.154 2.948-.352 4.4H18.852zM33 32h7c-2.112 3.63-6.254 7.246-10.302 8.632C31.018 38.19 32.296 34.75 33 32zm.9-8c0-1.496-.132-2.948-.308-4.4h7.436c.352 1.408.572 2.882.572 4.4 0 1.518-.22 2.992-.572 4.4h-7.436c.176-1.452.308-2.904.308-4.4z"/></symbol><symbol viewBox="0 0 48 48" id="eui-ecl-growth" xmlns="http://www.w3.org/2000/svg"><defs><path d="M2 46V36h8v10H2zm12 0V30h8v16h-8zm12 0 .053-20H34l-.053 20H26zm20-24v24h-8V22h8zm0-20v14h-4l-.001-7.174L28.836 21.99l.012.01-.714.692-.519.521-.009-.009L26 24.763l-6.886-6.035-14.204 14.3L2 30l16-16 .02.014.964-.947 6.884 6.235L39.168 6H32V2h14z" id="cla"/></defs><use xlink:href="#cla"/></symbol><symbol viewBox="0 0 48 48" id="eui-ecl-hamburger" xmlns="http://www.w3.org/2000/svg"><defs><path d="M44 34v5H4v-5h40zm0-13v5H4v-5h40zm0-13v5H4V8h40z" id="cma"/></defs><use xlink:href="#cma" fill-rule="evenodd"/></symbol><symbol viewBox="0 0 48 48" id="eui-ecl-image" xmlns="http://www.w3.org/2000/svg"><defs><path d="M42 38H6V10h36v28zm4-32H2v36h44V6zm-12 8c2.24 0 4 1.76 4 4s-1.76 4-4 4-4-1.92-4-4c0-2.4 1.76-4 4-4zm4 20H10v-4l8-14 12 14 8-6v10z" id="cna"/></defs><use xlink:href="#cna"/></symbol><symbol viewBox="0 0 48 48" id="eui-ecl-infographic" xmlns="http://www.w3.org/2000/svg"><path d="M6.249 27C7.514 34.539 13.463 40.488 21 41.752v4.046C11.25 44.468 3.533 36.75 2.204 27H6.25zM34.43 38.673l2.861 2.86a21.89 21.89 0 0 1-10.29 4.265v-4.046a17.897 17.897 0 0 0 7.043-2.811l.386-.268zM45.797 27a21.89 21.89 0 0 1-4.264 10.29l-2.86-2.86A17.904 17.904 0 0 0 41.75 27h4.046zM17 26v7h-4v-7h4zm9-13v20h-4V13h4zm9 7v13h-4V20h4zM21 2.203v4.046c-7.537 1.264-13.487 7.213-14.75 14.75H2.203C3.533 11.25 11.25 3.533 21 2.204zm6 0C36.75 3.533 44.468 11.25 45.797 21h-4.046c-1.264-7.537-7.213-13.486-14.75-14.751V2.203z"/></symbol><symbol viewBox="0 0 48 48" id="eui-ecl-information" xmlns="http://www.w3.org/2000/svg"><path d="M24 2.01c12.072 0 22 9.81 22 22s-9.81 22-22 22-22-9.81-22-22 9.81-22 22-22zM28 20H18v4h4v10h-4v4h14v-4h-4V20zm0-10h-6v6h6v-6z"/></symbol><symbol viewBox="0 0 48 48" id="eui-ecl-language" xmlns="http://www.w3.org/2000/svg"><defs><path d="M7 2C3.132 2 2 3.042 2 7v26c0 3.963 1.11 4.949 5 5h6v8l17-8h10c4.114 0 6-1.058 6-5V7c0-3.988-.999-5-6-5H7z" id="cqa"/></defs><use xlink:href="#cqa"/></symbol><symbol viewBox="0 0 48 48" id="eui-ecl-list" xmlns="http://www.w3.org/2000/svg"><path d="M3 3h6v5.012H3zm12 0h30v5.012H15zM3 15.371h6v5.008H3zm12 0h30v5.008H15zM3 27.738h6v5.012H3zm12 0h30v5.012H15zM3 40.11h6v5.012H3zm12 0h30v5.012H15zm0 0"/></symbol><symbol viewBox="0 0 48 48" id="eui-ecl-livestreaming" xmlns="http://www.w3.org/2000/svg"><defs><path d="M2 6v10h4v-6h36v28H28v4h18V6H2zm0 30v6h6c0-3.4-2.6-6-6-6zm0-8v4c5.6 0 10 4.4 10 10h4c0-7.8-6.2-14-14-14zm0-8v4c10 0 18 8 18 18h4c0-12.2-9.8-22-22-22z" id="csa"/></defs><use xlink:href="#csa"/></symbol><symbol viewBox="0 0 48 48" id="eui-ecl-location" xmlns="http://www.w3.org/2000/svg"><defs><path d="M24 22a6 6 0 1 0 0-12 6 6 0 0 0 0 12zm0-20c-7.72 0-14 5.975-14 14 0 3.232 1.916 8.392 6 16 1.926 3.587 4.593 8.254 8 14 3.408-5.746 6.074-10.413 8-14 4.084-7.608 6-12.768 6-16 0-8.025-6.28-14-14-14z" id="cta"/></defs><use xlink:href="#cta" fill-rule="evenodd"/></symbol><symbol viewBox="0 0 48 48" id="eui-ecl-log-in" xmlns="http://www.w3.org/2000/svg"><path d="M23.978 2C36.144 2 46 11.856 46 24c0 7.74-4.004 14.551-10.059 18.473A7.42 7.42 0 0 0 28.573 36h-9.146l-.245.004c-3.679.119-6.681 2.905-7.125 6.482C6.004 38.566 2 31.75 2 24 2 11.856 11.834 2 23.978 2zM24 15a9 9 0 0 0-9 9c0 4.972 4.03 9 9 9s9-4.028 9-9a9 9 0 0 0-9-9z"/></symbol><symbol viewBox="0 0 48 48" id="eui-ecl-logged-in" xmlns="http://www.w3.org/2000/svg"><path d="M45.241 26.036a2.503 2.503 0 0 1-.02 3.61L29.258 45l-8.192-7.965a2.503 2.503 0 0 1 0-3.61 2.678 2.678 0 0 1 3.713 0l4.5 4.374 12.25-11.783a2.678 2.678 0 0 1 3.712.02zM18.983 3C28.384 3 36 10.616 36 20c0 5.662-2.773 10.68-7.038 13.771-.324-2.612-2.689-4.658-5.598-4.766L23.12 29h-7.24l-.231.004c-3.062.108-5.523 2.361-5.644 5.165l-.005.217v.044C5.195 31.426 2 26.085 2 20 2 10.616 9.599 3 18.983 3zm.517 11a6.5 6.5 0 1 0 0 13 6.5 6.5 0 0 0 0-13z"/></symbol><symbol viewBox="0 0 48 48" id="eui-ecl-minus" xmlns="http://www.w3.org/2000/svg"><path d="M8 26v-4h32v4z"/></symbol><symbol viewBox="0 0 48 48" id="eui-ecl-multiple-files" xmlns="http://www.w3.org/2000/svg"><defs><path d="M46 10v36H18V16l6-6h22zm-4 4H28v4h-6v24h20V14zm-28 2v26h-4V16h4zM34 2v6h-4V6H14v6H6v26H2V8l8.027-6H34z" id="cxa"/></defs><use xlink:href="#cxa"/></symbol><symbol viewBox="0 0 48 48" id="eui-ecl-organigram" xmlns="http://www.w3.org/2000/svg"><defs><path d="M2 46V35h12v11H2zm32 0V35h12v11H34zM11 28v3H7v-6.928L22 24v-6h4v6l15 .072V31h-4v-3H11zm3-14V2h20v12H14z" id="cya"/></defs><use xlink:href="#cya"/></symbol><symbol viewBox="0 0 48 48" id="eui-ecl-package" xmlns="http://www.w3.org/2000/svg"><defs><path d="M4 20h40v26H4V20zm12 10h16v-6H16v6zm30-12v-6L40 2H8L2 12v6h44z" id="cza"/></defs><use xlink:href="#cza"/></symbol><symbol viewBox="0 0 48 48" id="eui-ecl-pause" xmlns="http://www.w3.org/2000/svg"><path d="M31.011 7.42a17.808 17.808 0 0 1 5.715 3.854 17.817 17.817 0 0 1 3.854 5.715A17.877 17.877 0 0 1 42 24c0 2.435-.48 4.793-1.42 7.013a17.86 17.86 0 0 1-3.854 5.715A17.945 17.945 0 0 1 24 42c-2.435 0-4.795-.479-7.013-1.418a17.84 17.84 0 0 1-5.715-3.854 17.933 17.933 0 0 1-3.854-5.715A17.886 17.886 0 0 1 6 24c0-2.434.479-4.793 1.418-7.011a17.817 17.817 0 0 1 3.854-5.715 17.932 17.932 0 0 1 5.715-3.854A17.85 17.85 0 0 1 24 6c2.434 0 4.793.479 7.011 1.42zm1.558-3.684a21.764 21.764 0 0 1 6.985 4.71 21.772 21.772 0 0 1 4.71 6.985A21.85 21.85 0 0 1 46 24.001c0 2.976-.587 5.858-1.736 8.57a21.826 21.826 0 0 1-4.71 6.985 21.926 21.926 0 0 1-6.985 4.71A21.848 21.848 0 0 1 24 46c-2.977 0-5.86-.585-8.571-1.734a21.796 21.796 0 0 1-6.985-4.71 21.917 21.917 0 0 1-4.71-6.985A21.862 21.862 0 0 1 2 24.001c0-2.975.585-5.86 1.734-8.57a21.776 21.776 0 0 1 4.71-6.985 21.916 21.916 0 0 1 6.985-4.71A21.815 21.815 0 0 1 24 2c2.974 0 5.859.585 8.569 1.736zM18 15h4v18h-4V15zm12 0h-4v18h4V15z" fill-rule="evenodd"/></symbol><symbol viewBox="0 0 48 48" id="eui-ecl-pause-filled" xmlns="http://www.w3.org/2000/svg"><path d="M39.554 8.446a21.767 21.767 0 0 0-6.985-4.71A21.812 21.812 0 0 0 24 2c-2.977 0-5.86.585-8.571 1.736a21.917 21.917 0 0 0-6.985 4.71 21.776 21.776 0 0 0-4.71 6.985A21.85 21.85 0 0 0 2 24c0 2.977.585 5.859 1.734 8.571a21.92 21.92 0 0 0 4.71 6.985 21.797 21.797 0 0 0 6.985 4.71A21.853 21.853 0 0 0 24 46a21.85 21.85 0 0 0 8.569-1.734 21.93 21.93 0 0 0 6.985-4.71 21.826 21.826 0 0 0 4.71-6.985A21.86 21.86 0 0 0 46 24a21.85 21.85 0 0 0-1.736-8.569 21.773 21.773 0 0 0-4.71-6.985zM17.89 14.222h3.667v18.334H17.89V14.222zm12.222 0h-3.667v18.334h3.667V14.222z" fill-rule="evenodd"/></symbol><symbol viewBox="0 0 48 48" id="eui-ecl-play" xmlns="http://www.w3.org/2000/svg"><g fill-rule="evenodd"><path d="M31.011 7.42a17.808 17.808 0 0 1 5.715 3.854 17.817 17.817 0 0 1 3.854 5.715A17.877 17.877 0 0 1 42 24c0 2.435-.48 4.793-1.42 7.013a17.86 17.86 0 0 1-3.854 5.715A17.945 17.945 0 0 1 24 42c-2.435 0-4.795-.479-7.013-1.418a17.84 17.84 0 0 1-5.715-3.854 17.933 17.933 0 0 1-3.854-5.715A17.886 17.886 0 0 1 6 24c0-2.434.479-4.793 1.418-7.011a17.817 17.817 0 0 1 3.854-5.715 17.932 17.932 0 0 1 5.715-3.854A17.85 17.85 0 0 1 24 6c2.434 0 4.793.479 7.011 1.42zm1.558-3.684a21.764 21.764 0 0 1 6.985 4.71 21.772 21.772 0 0 1 4.71 6.985A21.85 21.85 0 0 1 46 24.001c0 2.976-.587 5.858-1.736 8.57a21.826 21.826 0 0 1-4.71 6.985 21.926 21.926 0 0 1-6.985 4.71A21.848 21.848 0 0 1 24 46c-2.977 0-5.86-.585-8.571-1.734a21.796 21.796 0 0 1-6.985-4.71 21.917 21.917 0 0 1-4.71-6.985A21.862 21.862 0 0 1 2 24.001c0-2.975.585-5.86 1.734-8.57a21.776 21.776 0 0 1 4.71-6.985 21.916 21.916 0 0 1 6.985-4.71A21.815 21.815 0 0 1 24 2c2.974 0 5.859.585 8.569 1.736z"/><path d="M36.726 11.274a17.808 17.808 0 0 0-5.715-3.854A17.847 17.847 0 0 0 24.001 6a17.85 17.85 0 0 0-7.014 1.42c-2.133.902-4.06 2.2-5.715 3.854a17.817 17.817 0 0 0-3.854 5.715A17.877 17.877 0 0 0 6 24a17.948 17.948 0 0 0 5.272 12.728 17.84 17.84 0 0 0 5.715 3.854A17.878 17.878 0 0 0 24 42a17.945 17.945 0 0 0 12.726-5.272 17.86 17.86 0 0 0 3.854-5.715C41.52 28.793 42 26.435 42 24c0-2.434-.48-4.793-1.42-7.011a17.817 17.817 0 0 0-3.854-5.715zm2.828-2.828a21.764 21.764 0 0 0-6.985-4.71A21.812 21.812 0 0 0 24 2c-2.977 0-5.86.585-8.571 1.736a21.916 21.916 0 0 0-6.985 4.71 21.776 21.776 0 0 0-4.71 6.985A21.85 21.85 0 0 0 2 24.001c0 2.976.585 5.858 1.734 8.57a21.917 21.917 0 0 0 4.71 6.985 21.796 21.796 0 0 0 6.985 4.71A21.852 21.852 0 0 0 24 46a21.84 21.84 0 0 0 8.569-1.734 21.926 21.926 0 0 0 6.985-4.71 21.826 21.826 0 0 0 4.71-6.985A21.863 21.863 0 0 0 46 24.001a21.85 21.85 0 0 0-1.736-8.57 21.772 21.772 0 0 0-4.71-6.985z"/><path d="M18 33V15l16 9z"/></g></symbol><symbol viewBox="0 0 48 48" id="eui-ecl-play-filled" xmlns="http://www.w3.org/2000/svg"><path d="M39.554 8.446a21.764 21.764 0 0 0-6.985-4.71A21.813 21.813 0 0 0 24 2c-2.977 0-5.86.585-8.571 1.736a21.917 21.917 0 0 0-6.985 4.71 21.776 21.776 0 0 0-4.71 6.985A21.85 21.85 0 0 0 2 24c0 2.977.585 5.859 1.734 8.571a21.917 21.917 0 0 0 4.71 6.985 21.8 21.8 0 0 0 6.985 4.71A21.852 21.852 0 0 0 24 46a21.85 21.85 0 0 0 8.569-1.734 21.929 21.929 0 0 0 6.985-4.71 21.824 21.824 0 0 0 4.71-6.985A21.862 21.862 0 0 0 46 24c0-2.974-.587-5.859-1.736-8.569a21.772 21.772 0 0 0-4.71-6.985zM18 33V15l16 9-16 9z"/></symbol><symbol viewBox="0 0 48 48" id="eui-ecl-plus" xmlns="http://www.w3.org/2000/svg"><path d="m26 8-.001 14H40v4H25.999L26 40h-4l-.001-14H8v-4h13.999L22 8h4z"/></symbol><symbol viewBox="0 0 48 48" id="eui-ecl-presentation" xmlns="http://www.w3.org/2000/svg"><defs><path d="M8 30h32V10H8v20zM44 6v4h-2v22H26v2l10 12h-4l-8-10-8 10h-4l10-12v-2H6V10H4V6h40zM20 4V2h8v2h-8z" id="dfa"/></defs><use xlink:href="#dfa"/></symbol><symbol viewBox="0 0 48 48" id="eui-ecl-print" xmlns="http://www.w3.org/2000/svg"><defs><path d="M39 22a3 3 0 1 1 0-6 3 3 0 0 1 0 6zm7-10v22h-8v12H10V34H2V12h44zM12 26v16h24V26H12zm4 6v-2h16v2H16zM12 6v4h-2V2h28v8h-2V6H12zm4 32v-2h12v2H16z" id="dga"/></defs><use xlink:href="#dga"/></symbol><symbol viewBox="0 0 48 48" id="eui-ecl-regulation" xmlns="http://www.w3.org/2000/svg"><defs><path d="m24 2 22 12v2H2v-2c.17-.445 16.96-9.586 22-12zm-8 18-2 2v16H6V22l-2-2h12zm28 0-2 2v16h-8V22l-2-2h12zm-14 0-2 2v16h-8V22l-2-2h12zM2 42h44v4H2v-4z" id="dha"/></defs><use xlink:href="#dha"/></symbol><symbol viewBox="0 0 48 48" id="eui-ecl-rss" xmlns="http://www.w3.org/2000/svg"><defs><path d="M8 46a6 6 0 1 0 0-12 6 6 0 0 0 0 12zm8.667-14.667C12.727 27.393 7.473 26 2 26v-8c7.88 0 15.323 2.388 20.577 7.642C27.831 30.896 30 37.9 30 46h-8c0-5.473-1.393-10.726-5.333-14.667zM38 46c0-19.483-16.736-36-36-36V2c12.04 0 23.204 4.816 31.085 12.915C40.965 23.015 46 33.96 46 46h-8z" id="dia"/></defs><use xlink:href="#dia"/></symbol><symbol viewBox="0 0 48 48" id="eui-ecl-search" xmlns="http://www.w3.org/2000/svg"><path d="M2 20c0-9.941 8.059-18 18-18s18 8.059 18 18c0 3.522-1.012 6.808-2.76 9.583l10.588 10.589-5.656 5.656-10.59-10.588A17.916 17.916 0 0 1 20 38c-9.941 0-18-8.059-18-18zM19.864 7.127c-7.18 0-13 5.82-13 13s5.82 13 13 13 13-5.82 13-13-5.82-13-13-13z"/></symbol><symbol viewBox="0 0 48 48" id="eui-ecl-share" xmlns="http://www.w3.org/2000/svg"><path d="M36 2a8 8 0 1 1-5.563 13.749L19.73 21.93c.176.66.27 1.353.27 2.069a8.01 8.01 0 0 1-.277 2.096l10.536 6.333a8 8 0 1 1-1.981 3.475L17.74 29.57a8 8 0 1 1 .018-11.124l10.587-6.112A8 8 0 0 1 36 2z"/></symbol><symbol viewBox="0 0 48 48" id="eui-ecl-solid-arrow" xmlns="http://www.w3.org/2000/svg"><defs><path id="dla" d="m32 30-8-13-8 13z"/></defs><use xlink:href="#dla"/></symbol><symbol viewBox="0 0 48 48" id="eui-ecl-spinner" xmlns="http://www.w3.org/2000/svg"><path d="m29.133 36.281 2.495 8.497-4.109 1.207-2.495-8.497 4.11-1.207zm-11.266 0 4.109 1.207-2.495 8.497-4.11-1.207 2.496-8.497zm16.635-5.061 6.693 5.799-2.805 3.237-6.692-5.8 2.804-3.236zm-22.004 0 2.804 3.236-6.692 5.8-2.805-3.237 6.693-5.8zm23.88-7.31 8.766 1.26-.61 4.24-8.765-1.26.61-4.24zm-25.756 0 .61 4.24-8.766 1.26-.61-4.24 8.766-1.26zM42.22 12.994 44 16.89l-8.056 3.679-1.779-3.896 8.056-3.679zm-37.442 0 8.056 3.68-1.78 3.895L3 16.89l1.78-3.896zm28.575-8.637 3.603 2.315-4.788 7.45-3.603-2.315 4.788-7.45zm-19.708 0 4.788 7.45-3.603 2.315-4.788-7.45 3.603-2.315zM25 2v9h-4V2h4z"/></symbol><symbol viewBox="0 0 48 48" id="eui-ecl-spreadsheet" xmlns="http://www.w3.org/2000/svg"><defs><path d="M2 2h44v44H2V2zm4 24h8v-6H6v6zm0 8h8v-6H6v6zm8 8v-6H6v6h8zm28-6H16v6h26v-6zm-26-2h26v-6H16v6zm0-8h26v-6H16v6zm0-8h26v-8H16v8zM6 18h8v-8H6v8z" id="dna"/></defs><use xlink:href="#dna"/></symbol><symbol viewBox="0 0 48 48" id="eui-ecl-success" xmlns="http://www.w3.org/2000/svg"><path d="M24 2c12.198 0 22 9.81 22 22s-9.81 22-22 22S2 36.19 2 24 11.81 2 24 2zm9.25 14-11 10.667-5.5-5.334L14 24l8 8 14-13.333L33.25 16z"/></symbol><symbol viewBox="0 0 48 48" id="eui-ecl-tag" xmlns="http://www.w3.org/2000/svg"><path d="m23 2 23 23-21 21L2 23V2h21zm-9 7a5 5 0 1 0 0 10 5 5 0 0 0 0-10z"/></symbol><symbol viewBox="0 0 48 48" id="eui-ecl-trash" xmlns="http://www.w3.org/2000/svg"><path fill-rule="evenodd" clip-rule="evenodd" d="M19 5.971H5V11h39V5.971H30V2H19v3.971ZM41 13H8v33h33V13Zm-8 4h3v25h-3V17Zm-10 0h3v25h-3V17Zm-10 0h3v25h-3V17Z"/></symbol><symbol viewBox="0 0 48 48" id="eui-ecl-video" xmlns="http://www.w3.org/2000/svg"><defs><path id="dra" d="m34 38-32-.072V10.072L34 10v10l12-10v28L34 28z"/></defs><use xlink:href="#dra"/></symbol><symbol viewBox="0 0 48 48" id="eui-ecl-warning" xmlns="http://www.w3.org/2000/svg"><path d="m24 6 22 36H2L24 6zm2 28h-4v4h4v-4zm0-16h-4v12h4V18z"/></symbol><symbol class="dtionicon" viewBox="0 0 512 512" id="eui-ellipse" xmlns="http://www.w3.org/2000/svg"><path d="M256 464c-114.69 0-208-93.31-208-208S141.31 48 256 48s208 93.31 208 208-93.31 208-208 208z"/></symbol><symbol class="duionicon" viewBox="0 0 512 512" id="eui-ellipsis-horizontal" xmlns="http://www.w3.org/2000/svg"><circle cx="256" cy="256" r="48"/><circle cx="416" cy="256" r="48"/><circle cx="96" cy="256" r="48"/></symbol><symbol class="dvionicon" viewBox="0 0 512 512" id="eui-ellipsis-vertical" xmlns="http://www.w3.org/2000/svg"><circle cx="256" cy="256" r="48"/><circle cx="256" cy="416" r="48"/><circle cx="256" cy="96" r="48"/></symbol><symbol viewBox="0 0 48 48" id="eui-exclamation" xmlns="http://www.w3.org/2000/svg"><path d="M28.909 34.636v5.727c0 .895-.741 1.636-1.636 1.636h-6.545a1.647 1.647 0 0 1-1.636-1.636v-5.727c0-.895.741-1.636 1.636-1.636h6.545c.895 0 1.636.741 1.636 1.636zm.767-27-.716 19.636a1.71 1.71 0 0 1-1.688 1.636h-6.545a1.71 1.71 0 0 1-1.688-1.636l-.716-19.636A1.588 1.588 0 0 1 19.908 6h8.182c.895 0 1.611.741 1.585 1.636z"/></symbol><symbol xml:space="preserve" viewBox="0 0 1024 1024" id="eui-file-archive" xmlns="http://www.w3.org/2000/svg"><path fill="none" d="M0 0h1024v1024H0z"/><g fill-rule="evenodd" clip-rule="evenodd" fill="currentColor"><path d="M642.764 264.319V0H183.71c-18.108 0-32.79 14.794-32.79 33.04v958.158c0 18.247 14.682 33.041 32.79 33.041h688.58c18.107 0 32.789-14.794 32.789-33.041V297.359H675.553c-18.108 0-32.789-14.793-32.789-33.04zM352.909 735.138l-5.252.348c-94.27-1.372-118.862-78.123-106.565-119.423 12.296-41.299 46.334-207.71 46.334-207.71v-68.822c0-2.065 1.665-3.743 3.714-3.743h78.259v-76.856H291.14c-2.05 0-3.714-1.678-3.714-3.743v-80.858c0-2.064 1.665-3.743 3.714-3.743h78.259V93.731H291.14c-2.05 0-3.714-1.678-3.714-3.743V9.131c0-2.065 1.665-3.743 3.714-3.743h80.245c2.049 0 3.715 1.678 3.715 3.743v78.857h78.259c2.049 0 3.714 1.678 3.714 3.743v80.857c0 2.065-1.666 3.743-3.714 3.743H375.1v76.857h78.259c2.049 0 3.714 1.677 3.714 3.743v80.857c0 2.065-1.666 3.743-3.714 3.743H375.1v66.821h41.21s30.868 166.411 43.165 207.71c12.296 41.3-12.296 117.706-106.566 119.076z"/><path d="M346.28 604.262c-50.337 0-50.337 78.662 0 78.662 50.354 0 50.354-78.662 0-78.662zM757.526 0h-49.184v214.759h196.737v-49.56z"/></g></symbol><symbol xml:space="preserve" viewBox="0 0 1024 1024" id="eui-file-archive-o" xmlns="http://www.w3.org/2000/svg"><path fill="none" d="M0 0h1024v1024H0z"/><g fill="currentColor"><path d="M666.985 0H210.717C165.952 0 135 25.134 135 61.134v886.448c0 37.851 38.051 76.418 75.717 76.418h638.776c35.824 0 60.507-31.433 60.507-76.418V168.806L760.021 0h-93.036zM835 948H214.103c-1.159-1-3.103-2.656-4.103-3.82V76h122v58.089c0 1.911 1.933 3.911 3.834 3.911h69.153c1.902 0 4.013-2 4.013-3.911V76h182v199.104C591 312.956 629.319 352 666.985 352H835v596zm0-673H670.372c-1.159-1-3.372-2.12-3.372-3.291V76h59.038L835 198v77z"/><path d="M485 141.135c0-1.912-1.543-3.135-3.446-3.135h-69.108c-1.903 0-3.446 1.223-3.446 3.135v69.448c0 1.912 1.543 3.417 3.446 3.417h69.108c1.903 0 3.446-1.505 3.446-3.417v-69.448zM408 217.508c0-1.912-1.543-3.508-3.446-3.508h-69.108c-1.903 0-3.446 1.596-3.446 3.508v69.448c0 1.912 1.543 3.044 3.446 3.044h69.108c1.903 0 3.446-1.132 3.446-3.044v-69.448zM485 293.881c0-1.912-1.543-3.881-3.446-3.881h-69.108c-1.903 0-3.446 1.969-3.446 3.881v69.447c0 1.912 1.543 3.672 3.446 3.672h69.108c1.903 0 3.446-1.76 3.446-3.672v-69.447zM456.912 443H409v-72.731c0-1.911-2.111-3.269-4.013-3.269h-69.153c-1.901 0-3.834 1.358-3.834 3.269v69.493c0 .059.254.097.254.157-2.199 12.574-27.083 154.664-37.985 191.17-11.406 38.211 11.456 109.219 98.907 110.486l4.896-.32c87.452-1.27 110.277-69.918 98.87-108.127C485.535 594.918 456.912 443 456.912 443zM393 692.948c-46 0-46-72.777 0-72.777s46 72.777 0 72.777z"/></g></symbol><symbol xml:space="preserve" viewBox="0 0 1024 1024" id="eui-file-audio" xmlns="http://www.w3.org/2000/svg"><path fill="none" d="M0 0h1024v1024H0z"/><g fill="currentColor"><path d="M628 264.403V0H164.13C145.834 0 131 15.249 131 33.467v956.732c0 18.22 14.834 33.801 33.13 33.801h695.739c18.296 0 33.131-15.581 33.131-33.801V298H661.087C642.791 298 628 282.622 628 264.403zM369 776h-59.101C297.702 776 286 769.219 286 757.009v-157.48C286 586.933 297.702 577 309.899 577H369v199zm132 47.007c0 18.928-15.803 29.431-31.107 18.138L402 786.875V569.631l67.893-54.624c14.496-11.26 31.107-.741 31.107 18.187v289.813zm59.384-11.438c-6.374 0-13.233-2.4-18.475-7.651-9.723-10.004-9.723-27.063 0-37.293 49.502-48.824 49.502-128.24 0-177.534-9.723-9.761-9.723-27.063 0-37.275 10.515-10.003 27.663-10.003 37.789 0 69.917 69.526 69.917 182.866-.55 251.619-5.046 5.347-12.019 8.134-18.764 8.134zm85.608 52.209c-4.4 4.896-11.519 7.265-18.377 7.265-6.406 0-13.007-2.368-18.248-7.587-10.45-10.214-10.45-27.272 0-37.276 39.375-39.628 61.408-91.803 61.408-148.168 0-55.64-22.033-108.381-61.408-148.039-10.45-9.715-10.45-30.448 0-40.451C614.123 484.72 620.756 479 627.21 479h.81c6.454 0 13.572 5.72 17.973 10.988 49.841 49.63 77.229 116.895 77.229 186.871-.001 70.041-27.712 137.53-77.23 186.919z"/><path d="M743.913 0H694v215h199v-49.569z"/></g></symbol><symbol viewBox="0 0 24 32" id="eui-file-audio-alt" xmlns="http://www.w3.org/2000/svg"><path d="M4 0C1.794 0 0 1.794 0 4v14h7c.381 0 .725.212.894.55L9 20.762l3.106-6.213c.169-.338.512-.55.894-.55s.725.213.894.55l1.725 3.45H20c.55 0 1 .45 1 1s-.45 1-1 1h-5a.995.995 0 0 1-.894-.55L13 17.237 9.894 23.45a1.004 1.004 0 0 1-1.788 0L6.381 20H0v8c0 2.206 1.794 4 4 4h16c2.206 0 4-1.794 4-4V10h-8c-1.106 0-2-.894-2-2V0H4zm12 0v8h8l-8-8z"/></symbol><symbol xml:space="preserve" viewBox="0 0 1024 1024" id="eui-file-audio-o" xmlns="http://www.w3.org/2000/svg"><path fill="none" d="M0 0h1024v1024H0z"/><g fill="currentColor"><path d="M667.365 0H209.895C165.01 0 133 25.73 133 61.677v885.116c0 37.794 39.13 77.207 76.895 77.207h640.461c35.918 0 61.645-32.291 61.645-77.207V169.187L760.646 0h-93.281zM835 948H213.29c-1.162-1-3.29-3.443-3.29-4.606V76h381v199.325C591 313.119 629.601 351 667.365 351H835v597zm0-673H670.761c-1.161 0-2.761-1.895-2.761-3.072V76h58.575L835 198.337V275z"/><path d="M584.241 542.73c-8.95 9.447-8.95 25.453 0 34.483 45.568 45.604 45.568 119.075 0 164.246-8.95 9.462-8.95 25.245 0 34.501 4.824 4.857 11.139 7.078 17.006 7.078 6.211 0 12.628-2.563 17.274-7.527 64.868-63.604 64.868-168.446.507-232.781-9.322-9.255-25.107-9.255-34.787 0zM347 586.872v145.69C347 743.858 359.436 749 370.665 749H424V566h-53.335C359.436 566 347 575.218 347 586.872zM516.432 508.676 454 559.211v200.981l62.432 50.208c14.088 10.447 28.568.731 28.568-16.78V525.516c0-17.526-15.227-27.242-28.568-16.84z"/></g></symbol><symbol viewBox="0 0 576 512" id="eui-file-checked" xmlns="http://www.w3.org/2000/svg"><!--! Font Awesome Pro 6.3.0 by @fontawesome - https://fontawesome.com License - https://fontawesome.com/license (Commercial License) Copyright 2023 Fonticons, Inc.--><path d="M0 64C0 28.7 28.7 0 64 0h160v128c0 17.7 14.3 32 32 32h128v38.6c-73.9 20.9-128 88.8-128 169.4 0 59.1 29.1 111.3 73.7 143.3-3.2.5-6.4.7-9.7.7H64c-35.3 0-64-28.7-64-64V64zm384 64H256V0l128 128zm-96 240a144 144 0 1 1 288 0 144 144 0 1 1-288 0zm211.3-43.3c-6.2-6.2-16.4-6.2-22.6 0L416 385.4l-28.7-28.7c-6.2-6.2-16.4-6.2-22.6 0s-6.2 16.4 0 22.6l40 40c6.2 6.2 16.4 6.2 22.6 0l72-72c6.2-6.2 6.2-16.4 0-22.6z"/></symbol><symbol viewBox="0 0 24 32" id="eui-file-code" xmlns="http://www.w3.org/2000/svg"><path d="M4 0C1.794 0 0 1.794 0 4v24c0 2.206 1.794 4 4 4h16c2.206 0 4-1.794 4-4V10h-8c-1.106 0-2-.894-2-2V0H4zm12 0v8h8l-8-8zM9.563 18.063l-1.938 1.938 1.938 1.938c.588.587.588 1.538 0 2.119s-1.537.587-2.119 0l-3.006-2.994a1.495 1.495 0 0 1 0-2.119l3-3a1.499 1.499 0 0 1 2.119 2.119zm7-2.125 3 3a1.495 1.495 0 0 1 0 2.119l-3 3a1.499 1.499 0 0 1-2.119-2.119L16.382 20l-1.938-1.938a1.5 1.5 0 0 1 2.119-2.119z"/></symbol><symbol viewBox="0 0 24 32" id="eui-file-csv" xmlns="http://www.w3.org/2000/svg"><path d="M4 0C1.794 0 0 1.794 0 4v24c0 2.206 1.794 4 4 4h16c2.206 0 4-1.794 4-4V10h-8c-1.106 0-2-.894-2-2V0H4zm12 0v8h8l-8-8zM5 14h1a2.5 2.5 0 0 1 2.5 2.5v.5c0 .55-.45 1-1 1s-1-.45-1-1v-.5c0-.275-.225-.5-.5-.5H5c-.275 0-.5.225-.5.5v5c0 .275.225.5.5.5h1c.275 0 .5-.225.5-.5V21c0-.55.45-1 1-1s1 .45 1 1v.5A2.5 2.5 0 0 1 6 24H5a2.5 2.5 0 0 1-2.5-2.5v-5A2.5 2.5 0 0 1 5 14zm4.5 2.9c0-1.6 1.3-2.9 2.9-2.9h1.1c.55 0 1 .45 1 1s-.45 1-1 1h-1.1a.9.9 0 0 0-.45 1.681l1.588.906a2.91 2.91 0 0 1 1.463 2.519c0 1.6-1.3 2.9-2.9 2.9h-1.6c-.55 0-1-.45-1-1s.45-1 1-1h1.6a.9.9 0 0 0 .45-1.681l-1.588-.906A2.905 2.905 0 0 1 9.5 16.9zm8-1.9v1.975c0 1.438.344 2.85 1 4.125a8.974 8.974 0 0 0 1-4.125V15c0-.55.45-1 1-1s1 .45 1 1v1.975a10.99 10.99 0 0 1-1.85 6.1l-.319.481a.998.998 0 0 1-1.662 0l-.319-.481a10.99 10.99 0 0 1-1.85-6.1V15c0-.55.45-1 1-1s1 .45 1 1z"/></symbol><symbol xml:space="preserve" viewBox="0 0 1024 1024" id="eui-file-download" xmlns="http://www.w3.org/2000/svg"><path fill="none" d="M0 0h1024v1024H0z"/><g fill="currentColor"><path d="M661.087 298C642.791 298 628 282.622 628 264.403V0H164.13C145.834 0 131 15.249 131 33.467v956.732c0 18.22 14.834 33.801 33.13 33.801h695.739c18.296 0 33.131-15.581 33.131-33.801V298H661.087zm22.55 396.881-130.72 146.134c-24.171 37.867-63.947 38.032-88.373.353L340.607 696.343c-24.459-37.664-2.613-68.656 48.501-68.854l49.067-.219-.96-112.327c-.16-34.123 32.705-61.941 73.398-62.118 40.704-.149 73.792 27.375 73.952 61.505l.927 112.3 49.036-.188c51.136-.227 73.259 30.563 49.109 68.439z"/><path d="M743.913 0H694v215h199v-49.569z"/></g></symbol><symbol viewBox="0 0 32 32" id="eui-file-edit" xmlns="http://www.w3.org/2000/svg"><path fill="none" d="M0 0h32v32H0V0z"/><path fill="currentColor" d="M24.892 26.664c0 1.15-.935 2.085-2.085 2.085h-3.065l-.827.96h3.892a3.045 3.045 0 0 0 3.045-3.045v-5.008l-.96 1.114v3.894z"/><path fill="currentColor" d="M24.202 26.664v-3.092l-3.864 4.486h2.47c.769 0 1.394-.625 1.394-1.394zM5.826 24.856a.345.345 0 0 1 0-.69h11.003l2.507-2.911H5.825a.345.345 0 0 1 0-.69h14.106l2.507-2.911H5.825a.345.345 0 0 1 0-.69h16.634c.166 0 .305.117.338.274l1.404-1.631V8.673h-4.178A2.846 2.846 0 0 1 17.18 5.83V1.652H5.115c-.769 0-1.394.626-1.394 1.394v23.62c0 .769.626 1.394 1.394 1.394h8.361l2.758-3.202H5.826zM22.46 13.361a.345.345 0 0 1 0 .69H5.826a.345.345 0 0 1 0-.69H22.46zM5.463 4.924c0-.512.415-.928.928-.928h5.325c.512 0 .928.415.928.928v4.688a.928.928 0 0 1-.928.928H6.391a.928.928 0 0 1-.928-.928V4.924zM29.267 13.708a1.91 1.91 0 0 0-2.692.201L13.868 28.662l-.006.009a.558.558 0 0 0-.049.077c-.006.011-.014.021-.019.033a.487.487 0 0 0-.035.127l-.308 2.577a.46.46 0 0 0 .58.498l2.503-.687a.462.462 0 0 0 .12-.053c.011-.007.019-.016.03-.024a.396.396 0 0 0 .069-.06l.008-.007 12.707-14.753a1.91 1.91 0 0 0-.201-2.692zm-.497 2.091L16.363 30.203l-1.497-1.289L27.273 14.51c.355-.412.981-.459 1.393-.104s.459.98.104 1.393zM24.892 14.804l.96-1.114V8.672h-.96z"/><path fill="currentColor" d="M17.181 0H5.115A3.045 3.045 0 0 0 2.07 3.045v23.62a3.045 3.045 0 0 0 3.045 3.045h7.853l.115-.96H5.115a2.087 2.087 0 0 1-2.085-2.085V3.045c0-1.15.935-2.085 2.085-2.085H17.18V0zM17.872 5.691V.346l7.636 7.636h-5.345a2.29 2.29 0 0 1-2.29-2.29z"/></symbol><symbol viewBox="0 0 32 32" id="eui-file-edit-o" xmlns="http://www.w3.org/2000/svg"><path fill="none" d="M0 0h32v32H0V0z"/><path fill="currentColor" d="M22.561 14.243H6.105a.342.342 0 1 1 0-.684h16.456a.342.342 0 1 1 0 .684zM11.932 10.769H6.664a.917.917 0 0 1-.917-.918V5.213c0-.507.411-.917.918-.917h5.268c.507 0 .918.411.918.918v4.637a.918.918 0 0 1-.917.918zM29.297 13.903a1.89 1.89 0 0 0-2.663.198L14.062 28.697a.458.458 0 0 0-.107.243l-.305 2.55a.454.454 0 0 0 .573.493l2.476-.679a.455.455 0 0 0 .225-.142l12.572-14.596a1.89 1.89 0 0 0-.198-2.663zM6.106 20.686a.342.342 0 1 0 0 .684h13.366l.588-.683H6.105zM22.561 17.123H6.105a.342.342 0 1 0 0 .684H22.54l.355-.412a.342.342 0 0 0-.334-.271zM6.106 24.249a.342.342 0 1 0 0 .684h10.297l.588-.683H6.105zM26.26 13.505V8.579a.343.343 0 0 1-.026.13.341.341 0 0 1-.316.211h-.342v5.361l.539-.626c.046-.053.095-.102.144-.151zM25.576 26.721a2.674 2.674 0 0 1-2.671 2.671h-3.556l-.588.683h4.144a3.358 3.358 0 0 0 3.354-3.354v-5.352l-.683.793v4.558z"/><path fill="currentColor" d="M5.402 29.392a2.674 2.674 0 0 1-2.671-2.671V3.354A2.674 2.674 0 0 1 5.402.683h11.937V.341a.342.342 0 0 1 .342-.343H5.402a3.358 3.358 0 0 0-3.354 3.354v23.367a3.358 3.358 0 0 0 3.354 3.354h7.728l.082-.683h-7.81z"/><path fill="currentColor" d="M13.674 28.101H5.402c-.761 0-1.38-.619-1.38-1.379V3.355a1.38 1.38 0 0 1 1.38-1.379h11.937v-.683H5.402a2.065 2.065 0 0 0-2.063 2.063v23.367c0 1.137.925 2.063 2.063 2.063h7.883l.032-.269.357-.414zM24.968 26.721v-3.852l-.683.793v3.059a1.38 1.38 0 0 1-1.379 1.379h-2.443l-.588.683h3.032a2.065 2.065 0 0 0 2.063-2.063zM24.968 8.921h-.683v6.86l.683-.793z"/><path fill="currentColor" d="M26.159 8.338 17.922.1a.34.34 0 0 0-.583.242v5.767a2.816 2.816 0 0 0 2.812 2.813h5.767a.342.342 0 0 0 .242-.583zm-8.137-2.23V1.166l7.071 7.071h-4.942a2.131 2.131 0 0 1-2.129-2.129z"/></symbol><symbol viewBox="0 0 384 512" id="eui-file-empty" xmlns="http://www.w3.org/2000/svg"><!--! Font Awesome Pro 6.3.0 by @fontawesome - https://fontawesome.com License - https://fontawesome.com/license (Commercial License) Copyright 2023 Fonticons, Inc.--><path d="M0 64C0 28.7 28.7 0 64 0h160v128c0 17.7 14.3 32 32 32h128v288c0 35.3-28.7 64-64 64H64c-35.3 0-64-28.7-64-64V64zm384 64H256V0l128 128z"/></symbol><symbol viewBox="0 0 384 512" id="eui-file-empty-o" xmlns="http://www.w3.org/2000/svg"><!--! Font Awesome Pro 6.3.0 by @fontawesome - https://fontawesome.com License - https://fontawesome.com/license (Commercial License) Copyright 2023 Fonticons, Inc.--><path d="M320 464c8.8 0 16-7.2 16-16V160h-80c-17.7 0-32-14.3-32-32V48H64c-8.8 0-16 7.2-16 16v384c0 8.8 7.2 16 16 16h256zM0 64C0 28.7 28.7 0 64 0h165.5c17 0 33.3 6.7 45.3 18.7l90.5 90.5c12 12 18.7 28.3 18.7 45.3V448c0 35.3-28.7 64-64 64H64c-35.3 0-64-28.7-64-64V64z"/></symbol><symbol xml:space="preserve" viewBox="0 0 1024 1024" id="eui-file-excel" xmlns="http://www.w3.org/2000/svg"><path fill="none" d="M0 0h1024v1024H0z"/><g fill="currentColor"><path d="M628 264.403V0H164.13C145.834 0 131 15.249 131 33.467v956.732c0 18.22 14.834 33.801 33.13 33.801h695.739c18.296 0 33.131-15.581 33.131-33.801V298H661.087C642.791 298 628 282.622 628 264.403zM596.898 864l-81.787-155.687L433.933 864H306.121l136.906-218.91L320.661 448h131.461L523 587.331 595.676 448h123.591L595.676 645.09 731.378 864h-134.48z"/><path d="M743.913 0H694v215h199v-49.569z"/></g></symbol><symbol xml:space="preserve" viewBox="0 0 1024 1024" id="eui-file-excel-o" xmlns="http://www.w3.org/2000/svg"><path fill="none" d="M0 0h1024v1024H0z"/><path fill="currentColor" d="M667.365 0H209.895C165.01 0 133 25.73 133 61.677v885.116c0 37.794 39.13 77.207 76.895 77.207h640.461c35.918 0 61.645-32.291 61.645-77.207V169.187L760.646 0h-93.281zM835 948H213.29c-1.162-1-3.29-3.443-3.29-4.606V76h381v199.325C591 313.119 629.601 351 667.365 351H835v597zm0-673H670.761c-1.161 0-2.761-1.895-2.761-3.072V76h58.575L835 198.337V275z"/><path fill="currentColor" d="m360.646 794.353 97.453-158.269-87.104-142.726h93.577l50.454 99.18 51.732-99.18h87.975l-87.975 142.726 96.597 158.269h-95.727l-58.219-110.821-57.784 110.821h-90.979z"/></symbol><symbol xml:space="preserve" viewBox="0 0 1024 1024" id="eui-file-export" xmlns="http://www.w3.org/2000/svg"><path fill="none" d="M0 0h1024v1024H0z"/><path fill="currentColor" d="M612.913 0H563v215h199v-49.569z"/><g fill="currentColor"><path d="M380.852 653.315c-.132-36.088 24.271-65.425 54.53-65.567L762 587.017V298H530.087C511.791 298 497 282.622 497 264.403V0H33.13C14.834 0 0 15.249 0 33.467v956.732C0 1008.419 14.834 1024 33.13 1024h695.739c18.296 0 33.131-15.581 33.131-33.801V717.637l-326.069.755c-30.259.141-54.923-28.996-55.079-65.077zM993.96 615.808 864.4 499.91c-33.588-21.412-60.886-1.797-60.683 43.541l.166 43.475-41.883.091v130.62l42.451-.097.194 43.504c.174 45.318 27.652 64.687 61.051 43.001l128.576-109.883c33.408-21.657 33.261-56.924-.312-78.354z"/></g></symbol><symbol xml:space="preserve" viewBox="0 0 1024 1024" id="eui-file-image" xmlns="http://www.w3.org/2000/svg"><path fill="none" d="M0 0h1024v1024H0z"/><g fill="currentColor"><path d="M628 264.403V0H164.13C145.834 0 131 15.249 131 33.467v956.732c0 18.22 14.834 33.801 33.13 33.801h695.739c18.296 0 33.131-15.581 33.131-33.801V298H661.087C642.791 298 628 282.622 628 264.403zm-291.562 97.651c67.433 0 122.096 54.663 122.096 122.096 0 67.432-54.663 122.095-122.096 122.095S214.342 551.582 214.342 484.15c0-67.433 54.662-122.096 122.096-122.096zM823 683.489V943H204V842.962l123.529-119.604 123.435 127.079 264.508-279.075L823 683.489z"/><path d="M743.913 0H694v215h199v-49.569z"/></g></symbol><symbol xml:space="preserve" viewBox="0 0 1024 1024" id="eui-file-image-o" xmlns="http://www.w3.org/2000/svg"><path fill="none" d="M0 0h1024v1024H0z"/><g fill="currentColor"><path d="M667.365 0H209.895C165.01 0 133 25.73 133 61.677v885.116c0 37.794 39.13 77.207 76.895 77.207h640.461c35.918 0 61.645-32.291 61.645-77.207V169.187L760.646 0h-93.281zM835 948H213.29c-1.162-1-3.29-3.443-3.29-4.606V76h381v199.325C591 313.119 629.601 351 667.365 351H835v597zm0-673H670.761c-1.161 0-2.761-1.895-2.761-3.072V76h58.575L835 198.337V275z"/><path d="m374.25 697.438-99.25 96V873h496V665.438l-85.75-90-212 224z"/><circle cx="381.5" cy="505.437" r="98"/></g></symbol><symbol xml:space="preserve" viewBox="0 0 1024 1024" id="eui-file-import" xmlns="http://www.w3.org/2000/svg"><path fill="none" d="M0 0h1024v1024H0z"/><g fill="currentColor"><path d="M856.913 0H807v215h199v-49.569z"/><path d="M774.087 298C755.791 298 741 282.622 741 264.403V0H277.13C258.834 0 244 15.249 244 33.467v493.867l148.681-.418-.183-46.818c-.214-48.824 29.184-69.947 65.349-46.889L597.373 558.02c36.154 23.078 36.313 61.055.336 84.378L459.241 760.73c-35.961 23.353-65.552 2.495-65.746-46.309l-.204-46.849-149.291.435v322.192c0 18.22 14.834 33.801 33.13 33.801h695.739c18.296 0 33.131-15.581 33.131-33.801V298H774.087zM77.225 527.802c-32.585.153-58.866 31.745-58.724 70.608.168 38.854 26.729 70.232 59.309 70.08l166.19-.483V527.334l-166.775.468z"/></g></symbol><symbol xml:space="preserve" viewBox="0 0 1024 1024" id="eui-file-pdf" xmlns="http://www.w3.org/2000/svg"><path fill="none" d="M0 0h1024v1024H0z"/><g fill="currentColor"><path d="M488.917 504.436c.503 0 1.022-.067 1.542-.067.938-1.876 1.91-3.702 2.781-5.629 9.717-21.426 11.425-43.958 8.36-66.876-1.223-9.163-3.837-18.227-6.517-27.122-.988-3.25-3.685-6.25-6.265-8.611-2.832-2.58-4.959-1.708-5.863 2.027a62.875 62.875 0 0 0-1.542 10.269c-1.758 22.817-.938 45.534 2.278 68.167 1.339 9.33 3.45 18.561 5.226 27.842zM298.625 847.996c-9.733 10.739-17.271 23.521-25.647 35.449-1.307 1.876-1.91 4.222-2.848 6.299.469.317.904.603 1.374.921 33.605-22.096 53.842-55.735 75.822-87.9-.553-.553-1.106-1.038-1.676-1.574-15.731 15.546-32.166 30.472-47.025 46.805zM486.069 614.299c-17.825 46.824-40.508 90.062-64.129 133.082 46.539-17.054 94.048-29.233 143.469-39.2-33.371-25.883-58.868-57.06-79.34-93.882z"/><path d="M661.087 298C642.791 298 628 282.622 628 264.403V0H164.13C145.834 0 131 15.249 131 33.467v956.732c0 18.22 14.834 33.801 33.13 33.801h695.739c18.296 0 33.131-15.581 33.131-33.801V298H661.087zm125.254 453.436c-3.735 17.439-15.01 25.832-33.94 26.569-19.365.703-38.162-2.933-56.74-7.857-30.641-8.107-59.824-19.918-87.649-35.063-3.334-1.826-6.433-2.497-10.286-1.859-63.944 10.068-126.633 25.296-188.249 44.98-2.412.804-4.925 2.999-6.231 5.192-18.361 31.093-37.157 61.868-60.259 89.777-10.839 13.067-22.499 25.28-37.006 34.394-10.487 6.566-21.678 10.805-34.309 9.013-10.755-1.524-20.204-6.601-28.747-12.648-8.008-5.746-7.74-14.943-5.563-23.638 3.586-14.357 12.264-25.799 22.098-36.403 20.555-22.13 45.081-39.101 71.348-53.691 10.705-5.931 21.578-11.493 32.299-17.39 1.894-1.039 3.853-2.563 4.859-4.423 34.912-61.783 68.116-124.454 95.757-189.924 2.044-4.857 2.412-9.246 1.072-14.356-8.878-33.388-16.887-67.01-20.823-101.453-2.229-19.886-3.048-39.738 1.089-59.539 3.149-14.91 12.615-23.838 27.809-25.43 6.701-.704 13.604-.637 20.321.05 8.359.821 14.239 6.148 18.913 12.816 6.132 8.778 9.013 18.662 9.248 29.351.101 4.958.017 9.984.017 14.959.385.051.787.117 1.173.151-3.568 28.731-6.985 57.512-10.822 86.226-1.524 11.341-4.104 22.531-6.048 33.856-.268 1.659-.016 3.618.604 5.193 15.78 41.346 38.464 78.201 70.461 109.075 11.928 11.509 25.866 20.254 40.307 28.229 2.144 1.239 5.528.737 8.292.386 29.385-3.703 58.886-6.148 88.538-5.244 15.278.469 30.522 1.625 45.131 6.299 5.696 1.877 11.325 4.372 16.267 7.706 7.522 5.076 12.799 12.163 12.682 21.762-.105 7.672-.021 15.495-1.613 22.934z"/><path d="M766.455 735.504c-4.305-3.065-9.263-5.579-14.355-7.204-17.809-5.746-36.253-5.377-54.647-4.908-8.242.168-16.484.637-24.727.972-.067.485-.101.972-.168 1.475 23.152 9.18 45.752 20.271 71.131 22.313 6.501.553 13.235-.385 19.769-1.223 2.211-.301 5.78-2.245 5.931-3.669.2-2.58-.973-6.399-2.934-7.756zM743.913 0H694v215h199v-49.569z"/></g></symbol><symbol xml:space="preserve" viewBox="0 0 1024 1024" id="eui-file-pdf-o" xmlns="http://www.w3.org/2000/svg"><path fill="none" d="M0 0h1024v1024H0z"/><path fill="currentColor" d="M667.365 0H209.895C165.01 0 133 25.73 133 61.677v885.116c0 37.794 39.13 77.207 76.895 77.207h640.461c35.918 0 61.645-32.291 61.645-77.207V169.187L760.646 0h-93.281zM835 948H213.29c-1.162-1-3.29-3.443-3.29-4.606V76h381v199.325C591 313.119 629.601 351 667.365 351H835v597zm0-673H670.761c-1.161 0-2.761-1.895-2.761-3.072V76h58.575L835 198.337V275z"/><path fill="currentColor" d="M623.288 661.886c-12.206-6.74-23.987-14.133-34.069-23.859-27.046-26.098-46.219-57.25-59.558-92.197-.524-1.331-.736-2.988-.51-4.39 1.643-9.572 3.823-19.031 5.111-28.618 3.243-24.27 6.132-48.597 9.147-72.882-.325-.028-.665-.085-.991-.127 0-4.206.071-8.454-.014-12.645-.198-9.034-2.634-17.389-7.816-24.809-3.951-5.636-8.921-10.139-15.987-10.833-5.678-.581-11.512-.637-17.176-.042-12.844 1.345-20.844 8.893-23.506 21.495-3.498 16.737-2.804 33.517-.921 50.325 3.328 29.113 10.097 57.533 17.602 85.754 1.133 4.318.821 8.029-.906 12.135-23.364 55.338-51.43 108.311-80.939 160.533-.85 1.572-2.506 2.861-4.106 3.738-9.063 4.984-18.252 9.686-27.301 14.699-22.203 12.334-42.934 26.678-60.308 45.383-8.313 8.963-15.647 18.635-18.678 30.77-1.841 7.35-2.067 15.123 4.701 19.98 7.222 5.111 15.208 9.402 24.299 10.691 10.677 1.514 20.136-2.068 29-7.619 12.263-7.703 22.118-18.025 31.28-29.07 19.526-23.59 35.414-49.604 50.934-75.885 1.104-1.854 3.229-3.709 5.268-4.389 52.081-16.639 105.068-29.51 159.117-38.02 3.257-.539 5.877.027 8.694 1.57 23.521 12.801 48.188 22.785 74.086 29.639 15.704 4.162 31.592 7.234 47.961 6.641 16.001-.623 25.53-7.717 28.688-22.459 1.345-6.287 1.274-12.898 1.359-19.385.099-8.113-4.361-14.104-10.72-18.395-4.177-2.816-8.935-4.928-13.749-6.514-12.348-3.949-25.233-4.928-38.147-5.324-25.063-.764-50 1.303-74.837 4.434-2.335.298-5.195.722-7.008-.325zM331.221 825.081c-.396-.27-.765-.51-1.161-.779.793-1.756 1.303-3.738 2.407-5.324 7.08-10.082 13.452-20.885 21.68-29.963 12.56-13.805 26.451-26.422 39.747-39.563.481.453.949.863 1.416 1.33-18.579 27.188-35.684 55.621-64.089 74.299zm177.426-407.614a53.026 53.026 0 0 1 1.303-8.68c.765-3.158 2.563-3.894 4.956-1.713 2.181 1.997 4.46 4.531 5.296 7.278 2.266 7.519 4.475 15.18 5.508 22.925 2.592 19.371 1.147 38.417-7.065 56.527-.736 1.628-1.558 3.172-2.351 4.758-.439 0-.878.057-1.303.057-1.501-7.845-3.285-15.647-4.418-23.534-2.719-19.13-3.413-38.332-1.926-57.618zM458.379 703.97c19.966-36.363 39.139-72.91 54.205-112.488 17.304 31.123 38.855 57.477 67.063 79.354-41.773 8.425-81.931 18.718-121.268 33.134zm211.977-19.457c6.967-.283 13.934-.68 20.9-.82 15.548-.396 31.138-.709 46.19 4.148 4.305 1.373 8.496 3.498 12.135 6.09 1.657 1.146 2.648 4.375 2.479 6.555-.128 1.205-3.144 2.848-5.013 3.102-5.522.709-11.215 1.502-16.709 1.033-21.453-1.727-40.555-11.102-60.124-18.861.057-.425.086-.835.142-1.247z"/></symbol><symbol xml:space="preserve" viewBox="0 0 1024 1024" id="eui-file-powerpoint" xmlns="http://www.w3.org/2000/svg"><path fill="none" d="M0 0h1024v1024H0z"/><path fill="currentColor" d="M661.087 298C642.791 298 628 282.622 628 264.403V0H164.13C145.834 0 131 15.249 131 33.467v956.732c0 18.22 14.834 33.801 33.13 33.801h695.739c18.296 0 33.131-15.581 33.131-33.801V298H661.087zm-308.42 591.791V400.988h155.479c74.624 0 129.868 12.979 165.601 38.892 35.713 25.913 53.558 66.404 53.558 121.497 0 49.49-17.152 88.144-51.459 115.875-34.306 27.773-81.828 41.658-142.544 41.658h-50.42v170.881H352.667zm130.214-396.353v133.047h33.635c53.688 0 80.509-22.41 80.509-67.227 0-43.888-26.821-65.82-80.509-65.82h-33.635z"/><path fill="currentColor" d="M743.913 0H694v215h199v-49.569z"/></symbol><symbol xml:space="preserve" viewBox="0 0 1024 1024" id="eui-file-powerpoint-o" xmlns="http://www.w3.org/2000/svg"><path fill="none" d="M0 0h1024v1024H0z"/><path fill="currentColor" d="M667.365 0H209.895C165.01 0 133 25.73 133 61.677v885.116c0 37.794 39.13 77.207 76.895 77.207h640.461c35.918 0 61.645-32.291 61.645-77.207V169.187L760.646 0h-93.281zM835 948H213.29c-1.162-1-3.29-3.443-3.29-4.606V76h381v199.325C591 313.119 629.601 351 667.365 351H835v597zm0-673H670.761c-1.161 0-2.761-1.895-2.761-3.072V76h58.575L835 198.337V275z"/><path fill="currentColor" d="M362.764 857.068V440.241h132.585c63.636 0 110.745 11.067 141.217 33.165 30.453 22.098 45.67 56.627 45.67 103.607 0 42.202-14.626 75.164-43.882 98.812-29.254 23.684-69.777 35.526-121.553 35.526h-42.996v145.718H362.764zm111.041-337.992v113.457h28.683c45.78 0 68.652-19.109 68.652-57.327 0-37.427-22.872-56.13-68.652-56.13h-28.683z"/></symbol><symbol viewBox="0 0 576 512" id="eui-file-signature" xmlns="http://www.w3.org/2000/svg"><!--! Font Awesome Pro 6.3.0 by @fontawesome - https://fontawesome.com License - https://fontawesome.com/license (Commercial License) Copyright 2023 Fonticons, Inc.--><path d="M64 0C28.7 0 0 28.7 0 64v384c0 35.3 28.7 64 64 64h256c35.3 0 64-28.7 64-64v-19.3c-2.7 1.1-5.4 2-8.2 2.7l-60.1 15c-3 .7-6 1.2-9 1.4-.9.1-1.8.2-2.7.2h-64c-6.1 0-11.6-3.4-14.3-8.8l-8.8-17.7c-1.7-3.4-5.1-5.5-8.8-5.5s-7.2 2.1-8.8 5.5l-8.8 17.7c-2.9 5.9-9.2 9.4-15.7 8.8s-12.1-5.1-13.9-11.3L144 381l-9.8 32.8c-6.1 20.3-24.8 34.2-46 34.2H80c-8.8 0-16-7.2-16-16s7.2-16 16-16h8.2c7.1 0 13.3-4.6 15.3-11.4l14.9-49.5c3.4-11.3 13.8-19.1 25.6-19.1s22.2 7.8 25.6 19.1l11.6 38.6c7.4-6.2 16.8-9.7 26.8-9.7 15.9 0 30.4 9 37.5 23.2l4.4 8.8h8.9c-3.1-8.8-3.7-18.4-1.4-27.8l15-60.1c2.8-11.3 8.6-21.5 16.8-29.7l94.8-94.8V160H256c-17.7 0-32-14.3-32-32V0H64zm192 0v128h128L256 0zm293.8 139.7c-15.6-15.6-40.9-15.6-56.6 0l-29.4 29.4 71 71 29.4-29.4c15.6-15.6 15.6-40.9 0-56.6l-14.4-14.4zM311.9 321c-4.1 4.1-7 9.2-8.4 14.9l-15 60.1c-1.4 5.5.2 11.2 4.2 15.2s9.7 5.6 15.2 4.2l60.1-15c5.6-1.4 10.8-4.3 14.9-8.4l129.2-129.3-71-71L311.9 321z"/></symbol><symbol viewBox="0 0 384 512" id="eui-file-signed" xmlns="http://www.w3.org/2000/svg"><!--! Font Awesome Pro 6.3.0 by @fontawesome - https://fontawesome.com License - https://fontawesome.com/license (Commercial License) Copyright 2023 Fonticons, Inc.--><path d="M64 0C28.7 0 0 28.7 0 64v384c0 35.3 28.7 64 64 64h256c35.3 0 64-28.7 64-64V160H256c-17.7 0-32-14.3-32-32V0H64zm192 0v128h128L256 0zM80 64h64c8.8 0 16 7.2 16 16s-7.2 16-16 16H80c-8.8 0-16-7.2-16-16s7.2-16 16-16zm0 64h64c8.8 0 16 7.2 16 16s-7.2 16-16 16H80c-8.8 0-16-7.2-16-16s7.2-16 16-16zm54.2 253.8c-6.1 20.3-24.8 34.2-46 34.2H80c-8.8 0-16-7.2-16-16s7.2-16 16-16h8.2c7.1 0 13.3-4.6 15.3-11.4l14.9-49.5c3.4-11.3 13.8-19.1 25.6-19.1s22.2 7.7 25.6 19.1l11.6 38.6c7.4-6.2 16.8-9.7 26.8-9.7 15.9 0 30.4 9 37.5 23.2l4.4 8.8H304c8.8 0 16 7.2 16 16s-7.2 16-16 16h-64c-6.1 0-11.6-3.4-14.3-8.8l-8.8-17.7c-1.7-3.4-5.1-5.5-8.8-5.5s-7.2 2.1-8.8 5.5l-8.8 17.7c-2.9 5.9-9.2 9.4-15.7 8.8s-12.1-5.1-13.9-11.3L144 349l-9.8 32.8z"/></symbol><symbol viewBox="0 0 1024 1024" style="enable-background:new 0 0 1024 1024" xml:space="preserve" id="eui-file-text" xmlns="http://www.w3.org/2000/svg"><path d="M234.53 319.8h360.24v75.13H234.53zM234.53 474.43h554.94v75.13H234.53zM234.53 629.07h360.24v75.13H234.53zM234.53 783.71h554.94v75.13H234.53z"/><path d="M939.33 260.38 689.95 11c-.01-.01-.02-.02-.03-.02L678.95 0H174.49C118.89 0 73.66 45.23 73.66 100.82v822.36c0 55.59 45.23 100.82 100.82 100.82h675.03c55.59 0 100.82-45.23 100.82-100.82V271.39l-10.98-10.98c0-.01-.01-.02-.02-.03zM700.95 128.26l121.12 121.12h-95.43c-14.17 0-25.69-11.52-25.69-25.68v-95.44zM875.2 923.18c0 14.17-11.52 25.69-25.68 25.69H174.49c-14.17 0-25.69-11.52-25.69-25.69V100.82c0-14.16 11.52-25.68 25.69-25.68h451.33V223.7c0 55.59 45.23 100.82 100.82 100.82H875.2v598.66z"/></symbol><symbol xml:space="preserve" viewBox="0 0 1024 1024" id="eui-file-upload" xmlns="http://www.w3.org/2000/svg"><path fill="none" d="M0 0h1024v1024H0z"/><g fill="currentColor"><path d="M661.087 298C642.791 298 628 282.622 628 264.403V0H164.13C145.834 0 131 15.249 131 33.467v956.732c0 18.22 14.834 33.801 33.13 33.801h695.739c18.296 0 33.131-15.581 33.131-33.801V298H661.087zM340.363 627.465l130.72-146.133c24.171-37.867 63.947-38.032 88.373-.353l123.937 145.025c24.459 37.664 2.613 68.656-48.502 68.853l-49.066.219.96 112.327c.16 34.123-32.704 61.941-73.397 62.118-40.704.149-73.792-27.376-73.952-61.506l-.927-112.3-49.036.188c-51.137.228-73.26-30.562-49.11-68.438z"/><path d="M743.913 0H694v215h199v-49.569z"/></g></symbol><symbol xml:space="preserve" viewBox="0 0 1024 1024" id="eui-file-video" xmlns="http://www.w3.org/2000/svg"><path fill="none" d="M0 0h1024v1024H0z"/><path fill="currentColor" d="M661.087 298C642.791 298 628 282.622 628 264.403V0H164.13C145.834 0 131 15.249 131 33.467v956.732c0 18.22 14.834 33.801 33.13 33.801h695.739c18.296 0 33.131-15.581 33.131-33.801V298H661.087zm98.7 245.191-1.787 2.17v328.473l1.787 2.17c-12.22 12.255-29.945 12.255-42.201 0L597 753.291v90.748C597 863.838 580.621 879 560.823 879H291.939C272.141 879 256 863.838 256 844.039V575.156C256 555.357 272.141 540 291.939 540h268.884C580.621 540 597 555.357 597 575.156v90.748l120.586-122.713c12.256-12.254 29.947-12.254 42.201 0z"/><path fill="currentColor" d="M743.913 0H694v215h199v-49.569z"/></symbol><symbol xml:space="preserve" viewBox="0 0 1024 1024" id="eui-file-video-o" xmlns="http://www.w3.org/2000/svg"><path fill="none" d="M0 0h1024v1024H0z"/><path fill="currentColor" d="M667.365 0H209.895C165.01 0 133 25.73 133 61.677v885.116c0 37.794 39.13 77.207 76.895 77.207h640.461c35.918 0 61.645-32.291 61.645-77.207V169.187L760.646 0h-93.281zM835 948H213.29c-1.162-1-3.29-3.443-3.29-4.606V76h381v199.325C591 313.119 629.601 351 667.365 351H835v597zm0-673H670.761c-1.161 0-2.761-1.895-2.761-3.072V76h58.575L835 198.337V275z"/><path fill="currentColor" d="M712.469 556.54a24.75 24.75 0 0 0-35.079 0L580 654.012V582.43c0-15.701-12.728-28.43-28.429-28.43H338.429C322.728 554 310 566.729 310 582.43v213.14c0 15.701 12.728 28.43 28.429 28.43h213.143c15.7 0 28.428-12.729 28.428-28.43v-72.588l97.484 97.472a24.638 24.638 0 0 0 34.984 0l1.531-1.722v-260.47l-1.53-1.722z"/></symbol><symbol xml:space="preserve" viewBox="0 0 1024 1024" id="eui-file-word" xmlns="http://www.w3.org/2000/svg"><path fill="none" d="M0 0h1024v1024H0z"/><path fill="currentColor" d="M661.087 298C642.791 298 628 282.622 628 264.403V0H164.13C145.834 0 131 15.249 131 33.467v956.732c0 18.22 14.834 33.801 33.13 33.801h695.739c18.296 0 33.131-15.581 33.131-33.801V298H661.087zm43.155 612H567.488l-56.651-303h-1.121l-52.654 303H319.188L230.5 499h108.713l51.491 303h1.185l53.754-303h135.041l56.037 303h1.143l52.083-303H793.5l-89.258 411z"/><path fill="currentColor" d="M743.913 0H694v215h199v-49.569z"/></symbol><symbol xml:space="preserve" viewBox="0 0 1024 1024" id="eui-file-word-o" xmlns="http://www.w3.org/2000/svg"><path fill="none" d="M0 0h1024v1024H0z"/><path fill="currentColor" d="M667.365 0H209.895C165.01 0 133 25.73 133 61.677v885.116c0 37.794 39.13 77.207 76.895 77.207h640.461c35.918 0 61.645-32.291 61.645-77.207V169.187L760.646 0h-93.281zM835 948H213.29c-1.162-1-3.29-3.443-3.29-4.606V76h381v199.325C591 313.119 629.601 351 667.365 351H835v597zm0-673H670.761c-1.161 0-2.761-1.895-2.761-3.072V76h58.575L835 198.337V275z"/><path fill="currentColor" d="M620.57 780h-.889l-43.664-237H470.795l-41.884 237h-.923l-40.121-237H303.16l69.104 321h107.43l41.027-237h.873l44.141 237h106.557l69.549-321h-80.688z"/></symbol><symbol viewBox="0 0 48 48" id="eui-filter" xmlns="http://www.w3.org/2000/svg"><path d="M41.871 6.998a1.608 1.608 0 0 1-.358 1.79L28.909 21.392v18.97c0 .665-.409 1.253-.997 1.508a1.893 1.893 0 0 1-.639.128c-.435 0-.844-.153-1.15-.486l-6.545-6.545a1.626 1.626 0 0 1-.486-1.15V21.392L6.488 8.788c-.486-.46-.614-1.176-.358-1.79a1.657 1.657 0 0 1 1.508-.997h32.725c.665 0 1.253.409 1.508.997z"/></symbol><symbol viewBox="0 0 48 48" id="eui-flag" xmlns="http://www.w3.org/2000/svg"><path d="M10.881 10.191q0 1.554-1.381 2.373v27.317q0 .281-.205.485t-.485.205H7.429q-.281 0-.485-.205t-.205-.485V12.564q-1.381-.82-1.381-2.373 0-1.144.809-1.953t1.953-.809 1.953.809.809 1.953zm31.762 1.38v16.464q0 .539-.27.831t-.852.593q-4.639 2.503-7.962 2.503-1.316 0-2.665-.475t-2.341-1.036-2.492-1.036-3.075-.475q-4.143 0-10.012 3.15-.367.194-.712.194-.561 0-.971-.41t-.41-.971v-16.01q0-.69.669-1.187.453-.302 1.705-.928 5.092-2.589 9.084-2.589 2.309 0 4.315.626t4.726 1.899q.82.41 1.899.41 1.165 0 2.535-.453t2.373-1.014 1.899-1.014 1.176-.453q.561 0 .971.41t.41.971z"/></symbol><symbol viewBox="0 0 48 48" id="eui-flag-o" xmlns="http://www.w3.org/2000/svg"><path d="M39.881 27.215V13.923q-3.647 1.963-6.603 1.963-1.769 0-3.129-.69-2.158-1.057-3.97-1.651t-3.841-.593q-3.733 0-8.696 2.74v12.925q5.286-2.438 9.343-2.438 1.187 0 2.233.162t2.115.561 1.661.669 1.78.852l.604.302q.949.475 2.179.475 2.589 0 6.322-1.985zm-29-17.025q0 .755-.378 1.381t-1.003.993v27.317q0 .302-.194.496t-.496.194H7.429q-.302 0-.496-.194t-.194-.496V12.564q-.626-.367-1.003-.993t-.378-1.381q0-1.144.809-1.953t1.953-.809 1.953.809.809 1.953zm31.762 1.381v16.464q0 .842-.755 1.23-.216.108-.367.194-4.704 2.503-7.962 2.503-1.899 0-3.409-.755l-.604-.302q-1.381-.712-2.136-1.036t-1.964-.626-2.46-.302q-2.201 0-5.081.949t-4.93 2.201q-.324.194-.712.194-.345 0-.69-.173-.69-.41-.69-1.208v-16.01q0-.755.669-1.187.755-.453 1.694-.917t2.46-1.122 3.291-1.068 3.344-.41q2.417 0 4.51.669t4.51 1.856q.82.41 1.92.41 2.632 0 6.689-2.417.475-.259.669-.367.669-.345 1.338.043.669.431.669 1.187z"/></symbol><symbol class="ffionicon" viewBox="0 0 512 512" id="eui-home" xmlns="http://www.w3.org/2000/svg"><path d="M261.56 101.28a8 8 0 0 0-11.06 0L66.4 277.15a8 8 0 0 0-2.47 5.79L63.9 448a32 32 0 0 0 32 32H192a16 16 0 0 0 16-16V328a8 8 0 0 1 8-8h80a8 8 0 0 1 8 8v136a16 16 0 0 0 16 16h96.06a32 32 0 0 0 32-32V282.94a8 8 0 0 0-2.47-5.79z"/><path d="m490.91 244.15-74.8-71.56V64a16 16 0 0 0-16-16h-48a16 16 0 0 0-16 16v32l-57.92-55.38C272.77 35.14 264.71 32 256 32c-8.68 0-16.72 3.14-22.14 8.63l-212.7 203.5c-6.22 6-7 15.87-1.34 22.37A16 16 0 0 0 43 267.56L250.5 69.28a8 8 0 0 1 11.06 0l207.52 198.28a16 16 0 0 0 22.59-.44c6.14-6.36 5.63-16.86-.76-22.97z"/></symbol><symbol viewBox="0 0 48 48" id="eui-image-add" xmlns="http://www.w3.org/2000/svg"><path d="M36.316 15.474v5.665s-3.771.019-3.789 0v-5.665h-5.684s.019-3.771 0-3.789h5.684V6.001h3.789v5.684H42v3.789h-5.684zm-5.684 7.579v-5.684h-5.684v-5.684H9.79a3.8 3.8 0 0 0-3.789 3.789v22.737A3.8 3.8 0 0 0 9.79 42h22.737a3.8 3.8 0 0 0 3.789-3.789V23.053h-5.684zM9.789 38.211l5.684-7.579 3.789 5.684 5.684-7.579 7.579 9.474H9.788z"/></symbol><symbol viewBox="0 0 48 48" id="eui-info" xmlns="http://www.w3.org/2000/svg"><path d="M30.364 34.182v2.545c0 .696-.577 1.273-1.273 1.273H18.909a1.282 1.282 0 0 1-1.273-1.273v-2.545c0-.696.577-1.273 1.273-1.273h1.273v-7.636h-1.273A1.282 1.282 0 0 1 17.636 24v-2.545c0-.696.577-1.273 1.273-1.273h7.637c.696 0 1.273.577 1.273 1.273V32.91h1.273c.696 0 1.273.577 1.273 1.273zm-2.546-22.909v3.818c0 .696-.577 1.273-1.273 1.273h-5.091a1.282 1.282 0 0 1-1.273-1.273v-3.818c0-.696.577-1.273 1.273-1.273h5.091c.696 0 1.273.577 1.273 1.273z"/></symbol><symbol viewBox="0 0 48 48" id="eui-level-down" xmlns="http://www.w3.org/2000/svg"><path d="M11.723 6h18.003a.83.83 0 0 1 .818.844v22.069h4.91c.639 0 1.202.383 1.483.946a1.645 1.645 0 0 1-.23 1.765l-8.183 9.82c-.614.742-1.892.742-2.506 0l-8.183-9.82c-.409-.486-.486-1.176-.23-1.765.281-.563.844-.946 1.483-.946h4.91V12.546h-8.183a.915.915 0 0 1-.639-.281l-4.092-4.91c-.205-.23-.23-.588-.102-.869S11.417 6 11.724 6z"/></symbol><symbol viewBox="0 0 48 48" id="eui-level-up" xmlns="http://www.w3.org/2000/svg"><path d="M36.947 18.124a1.627 1.627 0 0 1-1.484.947h-4.914v22.111a.808.808 0 0 1-.819.819H11.714a.824.824 0 0 1-.742-.461c-.128-.307-.102-.64.102-.896l4.095-4.914a.874.874 0 0 1 .64-.281h8.189V19.071h-4.914c-.64 0-1.203-.358-1.484-.947a1.66 1.66 0 0 1 .23-1.74l8.189-9.827c.614-.742 1.894-.742 2.508 0l8.189 9.827c.41.486.512 1.177.23 1.74z"/></symbol><symbol viewBox="0 0 48 48" id="eui-logout-thin" xmlns="http://www.w3.org/2000/svg"><path d="m32.92 29.464 4.179-4.179H18.858v-2.571h18.241l-4.179-4.179 1.768-1.848L42 23.999l-7.312 7.312zm1.928 5.465c.241-.241.482-.402.643-.643h3.295C35.572 38.947 30.108 42 24 42c-9.964 0-18-8.036-18-18S14.036 6 24 6c6.107 0 11.572 3.054 14.786 7.714h-3.295c-.161-.241-.402-.402-.643-.643-2.893-2.893-6.75-4.5-10.848-4.5s-8.036 1.607-10.929 4.5-4.5 6.83-4.5 10.929 1.607 8.036 4.5 10.929 6.83 4.5 10.929 4.5 7.955-1.607 10.848-4.5z"/></symbol><symbol class="flionicon" viewBox="0 0 512 512" id="eui-menu" xmlns="http://www.w3.org/2000/svg"><path fill="none" stroke="currentColor" stroke-linecap="round" stroke-miterlimit="10" stroke-width="48" d="M88 152h336M88 256h336M88 360h336"/></symbol><symbol class="fnionicon" viewBox="0 0 512 512" id="eui-notifications" xmlns="http://www.w3.org/2000/svg"><path d="M440.08 341.31c-1.66-2-3.29-4-4.89-5.93-22-26.61-35.31-42.67-35.31-118 0-39-9.33-71-27.72-95-13.56-17.73-31.89-31.18-56.05-41.12a3 3 0 0 1-.82-.67C306.6 51.49 282.82 32 256 32s-50.59 19.49-59.28 48.56a3.13 3.13 0 0 1-.81.65c-56.38 23.21-83.78 67.74-83.78 136.14 0 75.36-13.29 91.42-35.31 118-1.6 1.93-3.23 3.89-4.89 5.93a35.16 35.16 0 0 0-4.65 37.62c6.17 13 19.32 21.07 34.33 21.07H410.5c14.94 0 28-8.06 34.19-21a35.17 35.17 0 0 0-4.61-37.66zM256 480a80.06 80.06 0 0 0 70.44-42.13 4 4 0 0 0-3.54-5.87H189.12a4 4 0 0 0-3.55 5.87A80.06 80.06 0 0 0 256 480z"/></symbol><symbol class="fmionicon" viewBox="0 0 512 512" id="eui-notifications-off" xmlns="http://www.w3.org/2000/svg"><path d="M448 464a15.92 15.92 0 0 1-11.31-4.69l-384-384a16 16 0 0 1 22.62-22.62l384 384A16 16 0 0 1 448 464zm-7.92-122.69c-1.66-2-3.29-4-4.89-5.93-22-26.61-35.31-42.67-35.31-118 0-39-9.33-71-27.72-95-13.56-17.73-31.89-31.18-56.05-41.12a3 3 0 0 1-.82-.67C306.6 51.49 282.82 32 256 32s-50.59 19.49-59.28 48.56a3.13 3.13 0 0 1-.81.65 157.88 157.88 0 0 0-21.88 11 8 8 0 0 0-1.49 12.49l261.78 261.74a8 8 0 0 0 13.6-6.63 35.39 35.39 0 0 0-7.84-18.5zM112.14 217.35c0 75.36-13.29 91.42-35.31 118-1.6 1.93-3.23 3.89-4.89 5.93a35.16 35.16 0 0 0-4.65 37.62c6.17 13 19.32 21.07 34.33 21.07H312.8a8 8 0 0 0 5.66-13.66l-192-192a8 8 0 0 0-13.62 5q-.7 8.69-.7 18.04zM256 480a80.06 80.06 0 0 0 70.44-42.13 4 4 0 0 0-3.54-5.87H189.12a4 4 0 0 0-3.55 5.87A80.06 80.06 0 0 0 256 480z"/></symbol><symbol class="fpionicon" viewBox="0 0 512 512" id="eui-options" xmlns="http://www.w3.org/2000/svg"><path d="M64 144h226.75a48 48 0 0 0 90.5 0H448a16 16 0 0 0 0-32h-66.75a48 48 0 0 0-90.5 0H64a16 16 0 0 0 0 32zm384 224h-66.75a48 48 0 0 0-90.5 0H64a16 16 0 0 0 0 32h226.75a48 48 0 0 0 90.5 0H448a16 16 0 0 0 0-32zm0-128H221.25a48 48 0 0 0-90.5 0H64a16 16 0 0 0 0 32h66.75a48 48 0 0 0 90.5 0H448a16 16 0 0 0 0-32z"/></symbol><symbol viewBox="0 0 32 32" id="eui-options-vertical" xmlns="http://www.w3.org/2000/svg"><path d="M9 28V13.828c1.175-.425 1.999-1.53 1.999-2.828s-.824-2.404-1.978-2.822L9 8.171V3.999a1 1 0 0 0-2 0v4.172c-1.175.425-1.999 1.53-1.999 2.828s.824 2.404 1.978 2.822l.021.007V28a1 1 0 0 0 2 0zM23 4v4.172c-1.175.425-1.999 1.53-1.999 2.828s.824 2.404 1.978 2.822l.021.007v14.172a1 1 0 0 0 2 0V13.829c1.175-.425 1.999-1.53 1.999-2.828s-.824-2.404-1.978-2.822L25 8.172V4a1 1 0 0 0-2 0zm-8 0v14.172c-1.175.425-1.999 1.53-1.999 2.828s.824 2.404 1.978 2.822l.021.007v4.172a1 1 0 0 0 2 0v-4.172c1.175-.425 1.999-1.53 1.999-2.828s-.824-2.404-1.978-2.822L17 18.172V4a1 1 0 0 0-2 0z"/></symbol><symbol class="fqionicon" viewBox="0 0 512 512" id="eui-pencil" xmlns="http://www.w3.org/2000/svg"><path fill="none" stroke="currentColor" stroke-linecap="round" stroke-linejoin="round" stroke-width="44" d="M358.62 129.28 86.49 402.08 70 442l39.92-16.49 272.8-272.13-24.1-24.1zm54.45-54.44-11.79 11.78 24.1 24.1 11.79-11.79a16.51 16.51 0 0 0 0-23.34l-.75-.75a16.51 16.51 0 0 0-23.35 0z"/></symbol><symbol viewBox="0 0 48 48" id="eui-person-thin-o" xmlns="http://www.w3.org/2000/svg"><path d="M17.925 17.925zM36.037 36.15c1.463.562 5.962 2.25 5.962 5.85h-36c0-3.6 4.5-5.287 5.962-5.85s3.488-.675 4.838-1.013c.788-.225 1.912-.562 2.25-1.013s.113-4.612.113-4.612-.675-1.125-1.013-2.025-.788-3.6-.788-3.6-.788 0-1.012-1.35c-.225-1.463-.675-1.912-.675-3.038 0-1.013.562-1.125.562-1.125s-.45-1.463-.562-4.725c-.113-3.825 2.813-7.65 8.325-7.65s8.438 3.825 8.325 7.65c-.113 3.262-.562 4.725-.562 4.725s.562.113.562 1.125c0 1.125-.338 1.688-.675 3.15-.225 1.35-1.013 1.35-1.013 1.35s-.45 2.587-.788 3.488-1.012 2.025-1.012 2.025-.225 4.163.113 4.612 1.463.788 2.25 1.013c1.35.337 3.375.45 4.838 1.013zM24 40.2h15.412c-.225-.338-.45-.675-.9-.9-.788-.562-1.8-1.013-3.038-1.463a19.255 19.255 0 0 0-2.925-.562c-.675-.113-1.125-.225-1.688-.337-.338-.113-2.362-.562-3.262-1.688-.45-.562-.675-1.35-.675-3.6 0-1.125.113-2.25.113-2.25v-.45l.225-.45c.113-.225.675-1.012.9-1.688.225-.562.562-2.138.675-3.15 0 0 0 .113.113-.45s.9-.45 1.012-.9.338-.788.562-2.025-.562-1.35-.562-1.912c0-.45.113-.562.113-.562 0-.113.45-1.575.45-4.275 0-1.463-.562-2.925-1.575-3.937-1.237-1.237-2.813-1.8-4.95-1.8-2.025 0-3.825.562-5.063 1.8-1.012 1.012-1.463 2.475-1.463 3.937.113 2.7.45 4.163.45 4.275s.113.338 0 .675c-.113.562-.675.562-.45 1.8s.45 1.575.562 2.025.9.337 1.013.9.113.45.113.45c.113 1.012.45 2.587.675 3.15.225.675.675 1.463.9 1.688l.225.45v.45s.113 1.125.113 2.25c0 2.25-.225 3.038-.675 3.6-.9 1.125-2.925 1.575-3.262 1.688-.562.113-1.125.225-1.8.337a17.916 17.916 0 0 0-2.813.562c-1.237.45-2.25.9-3.038 1.463-.45.225-.675.562-.9.9h15.412z"/></symbol><symbol class="fsionicon" viewBox="0 0 512 512" id="eui-pie-chart" xmlns="http://www.w3.org/2000/svg"><path d="M66.1 357a16 16 0 0 1-14.61-9.46A224 224 0 0 1 256 32a16 16 0 0 1 16 16v208a16 16 0 0 1-9.47 14.61l-189.9 84.95A15.93 15.93 0 0 1 66.1 357z"/><path d="M313.59 68.18A8 8 0 0 0 304 76v180a48.07 48.07 0 0 1-28.4 43.82L103.13 377a8 8 0 0 0-3.35 11.81 208.42 208.42 0 0 0 48.46 50.41A206.32 206.32 0 0 0 272 480c114.69 0 208-93.31 208-208 0-100.45-71.58-184.5-166.41-203.82z"/></symbol><symbol class="ftionicon" viewBox="0 0 512 512" id="eui-print" xmlns="http://www.w3.org/2000/svg"><path d="M408 112H106a58 58 0 0 0-58 58v158a56 56 0 0 0 56 56h8v39.68A40.32 40.32 0 0 0 152.32 464h207.36A40.32 40.32 0 0 0 400 423.68V384h8a56 56 0 0 0 56-56V168a56 56 0 0 0-56-56zm-40 311.68a8.35 8.35 0 0 1-8.32 8.32H152.32a8.35 8.35 0 0 1-8.32-8.32V264.32a8.35 8.35 0 0 1 8.32-8.32h207.36a8.35 8.35 0 0 1 8.32 8.32zm26-215.76a24 24 0 1 1 22-22 24 24 0 0 1-22 22zM344 48H168a56.09 56.09 0 0 0-55.42 48h286.84A56.09 56.09 0 0 0 344 48z"/></symbol><symbol viewBox="0 0 48 48" id="eui-question" xmlns="http://www.w3.org/2000/svg"><path d="M28.108 34.125v6.75c0 .619-.506 1.125-1.125 1.125h-6.75a1.128 1.128 0 0 1-1.125-1.125v-6.75c0-.619.506-1.125 1.125-1.125h6.75c.619 0 1.125.506 1.125 1.125zm8.888-16.875c0 5.344-3.628 7.397-6.3 8.888-1.659.956-2.7 2.897-2.7 3.713 0 .619-.478 1.35-1.125 1.35h-6.75c-.619 0-1.012-.956-1.012-1.575V28.36c0-3.403 3.375-6.328 5.85-7.453 2.166-.984 3.066-1.912 3.066-3.713 0-1.575-2.053-2.981-4.331-2.981-1.266 0-2.419.394-3.037.815-.675.478-1.35 1.153-3.009 3.234-.225.281-.562.45-.872.45-.253 0-.478-.084-.703-.225l-4.612-3.516a1.109 1.109 0 0 1-.281-1.491c3.038-5.034 7.312-7.481 13.05-7.481 6.019 0 12.769 4.809 12.769 11.25z"/></symbol><symbol viewBox="0 0 48 48" id="eui-question-circle" xmlns="http://www.w3.org/2000/svg"><path d="M24 6C14.064 6 6 14.064 6 24s8.064 18 18 18 18-8.064 18-18S33.936 6 24 6zm1.8 30.6h-3.6V33h3.6v3.6zm3.726-13.95-1.62 1.656C26.61 25.62 25.8 26.7 25.8 29.4h-3.6v-.9c0-1.98.81-3.78 2.106-5.094l2.232-2.268A3.52 3.52 0 0 0 27.6 18.6c0-1.98-1.62-3.6-3.6-3.6s-3.6 1.62-3.6 3.6h-3.6c0-3.978 3.222-7.2 7.2-7.2s7.2 3.222 7.2 7.2a5.728 5.728 0 0 1-1.674 4.05z"/></symbol><symbol class="fwionicon" viewBox="0 0 512 512" id="eui-radio-button-off" xmlns="http://www.w3.org/2000/svg"><path d="M448 256c0-106-86-192-192-192S64 150 64 256s86 192 192 192 192-86 192-192z" fill="none" stroke="currentColor" stroke-miterlimit="10" stroke-width="32"/></symbol><symbol class="fxionicon" viewBox="0 0 512 512" id="eui-radio-button-on" xmlns="http://www.w3.org/2000/svg"><path d="M448 256c0-106-86-192-192-192S64 150 64 256s86 192 192 192 192-86 192-192z" fill="none" stroke="currentColor" stroke-miterlimit="10" stroke-width="32"/><circle cx="256" cy="256" r="144"/></symbol><symbol viewBox="0 0 48 48" id="eui-redo" xmlns="http://www.w3.org/2000/svg"><path d="M39.234 8.016h-3.008a.761.761 0 0 0-.76.799v-.002l.254 5.249c-2.897-3.398-7.181-5.539-11.966-5.539h-.018.001C15.069 8.523 8 15.597 8.006 24.266c.006 8.682 7.047 15.719 15.731 15.719h.022c4.054 0 7.749-1.539 10.532-4.065l-.013.012a.76.76 0 0 0 .031-1.105l-2.157-2.157a.758.758 0 0 0-1.04-.034l.001-.001a11.113 11.113 0 0 1-7.374 2.782c-6.165 0-11.164-4.998-11.164-11.164s4.998-11.164 11.164-11.164c3.843 0 7.232 1.942 9.241 4.898l.025.039-6.44-.309-.036-.001a.761.761 0 0 0-.761.761v3.008c0 .42.341.761.761.761h12.707c.42 0 .761-.341.761-.761V8.777a.761.761 0 0 0-.761-.761z"/></symbol><symbol class="fzionicon" viewBox="0 0 512 512" id="eui-refresh" xmlns="http://www.w3.org/2000/svg"><path d="M320 146s24.36-12-64-12a160 160 0 1 0 160 160" fill="none" stroke="currentColor" stroke-linecap="round" stroke-miterlimit="10" stroke-width="32"/><path fill="none" stroke="currentColor" stroke-linecap="round" stroke-linejoin="round" stroke-width="32" d="m256 58 80 80-80 80"/></symbol><symbol class="gaionicon" viewBox="0 0 512 512" id="eui-reload" xmlns="http://www.w3.org/2000/svg"><path d="m400 148-21.12-24.57A191.43 191.43 0 0 0 240 64C134 64 48 150 48 256s86 192 192 192a192.09 192.09 0 0 0 181.07-128" fill="none" stroke="currentColor" stroke-linecap="round" stroke-miterlimit="10" stroke-width="32"/><path d="M464 97.42V208a16 16 0 0 1-16 16H337.42c-14.26 0-21.4-17.23-11.32-27.31L436.69 86.1C446.77 76 464 83.16 464 97.42z"/></symbol><symbol class="gbionicon" viewBox="0 0 512 512" id="eui-remove" xmlns="http://www.w3.org/2000/svg"><path fill="none" stroke="currentColor" stroke-linecap="round" stroke-linejoin="round" stroke-width="32" d="M400 256H112"/></symbol><symbol class="gcionicon" viewBox="0 0 512 512" id="eui-reorder-three" xmlns="http://www.w3.org/2000/svg"><path fill="none" stroke="currentColor" stroke-linecap="round" stroke-linejoin="round" stroke-width="44" d="M102 256h308m-308-80h308M102 336h308"/></symbol><symbol class="gdionicon" viewBox="0 0 512 512" id="eui-search" xmlns="http://www.w3.org/2000/svg"><path d="M456.69 421.39 362.6 327.3a173.81 173.81 0 0 0 34.84-104.58C397.44 126.38 319.06 48 222.72 48S48 126.38 48 222.72s78.38 174.72 174.72 174.72A173.81 173.81 0 0 0 327.3 362.6l94.09 94.09a25 25 0 0 0 35.3-35.3zM97.92 222.72a124.8 124.8 0 1 1 124.8 124.8 124.95 124.95 0 0 1-124.8-124.8z"/></symbol><symbol class="geionicon" viewBox="0 0 512 512" id="eui-send" xmlns="http://www.w3.org/2000/svg"><path d="m476.59 227.05-.16-.07L49.35 49.84A23.56 23.56 0 0 0 27.14 52 24.65 24.65 0 0 0 16 72.59v113.29a24 24 0 0 0 19.52 23.57l232.93 43.07a4 4 0 0 1 0 7.86L35.53 303.45A24 24 0 0 0 16 327v113.31A23.57 23.57 0 0 0 26.59 460a23.94 23.94 0 0 0 13.22 4 24.55 24.55 0 0 0 9.52-1.93L476.4 285.94l.19-.09a32 32 0 0 0 0-58.8z"/></symbol><symbol class="gfionicon" viewBox="0 0 512 512" id="eui-settings" xmlns="http://www.w3.org/2000/svg"><circle cx="256" cy="256" r="48"/><path d="m470.39 300-.47-.38-31.56-24.75a16.11 16.11 0 0 1-6.1-13.33v-11.56a16 16 0 0 1 6.11-13.22L469.92 212l.47-.38a26.68 26.68 0 0 0 5.9-34.06l-42.71-73.9a1.59 1.59 0 0 1-.13-.22A26.86 26.86 0 0 0 401 92.14l-.35.13-37.1 14.93a15.94 15.94 0 0 1-14.47-1.29q-4.92-3.1-10-5.86a15.94 15.94 0 0 1-8.19-11.82l-5.59-39.59-.12-.72A27.22 27.22 0 0 0 298.76 26h-85.52a26.92 26.92 0 0 0-26.45 22.39l-.09.56-5.57 39.67a16 16 0 0 1-8.13 11.82 175.21 175.21 0 0 0-10 5.82 15.92 15.92 0 0 1-14.43 1.27l-37.13-15-.35-.14a26.87 26.87 0 0 0-32.48 11.34l-.13.22-42.77 73.95a26.71 26.71 0 0 0 5.9 34.1l.47.38 31.56 24.75a16.11 16.11 0 0 1 6.1 13.33v11.56a16 16 0 0 1-6.11 13.22L42.08 300l-.47.38a26.68 26.68 0 0 0-5.9 34.06l42.71 73.9a1.59 1.59 0 0 1 .13.22 26.86 26.86 0 0 0 32.45 11.3l.35-.13 37.07-14.93a15.94 15.94 0 0 1 14.47 1.29q4.92 3.11 10 5.86a15.94 15.94 0 0 1 8.19 11.82l5.56 39.59.12.72A27.22 27.22 0 0 0 213.24 486h85.52a26.92 26.92 0 0 0 26.45-22.39l.09-.56 5.57-39.67a16 16 0 0 1 8.18-11.82c3.42-1.84 6.76-3.79 10-5.82a15.92 15.92 0 0 1 14.43-1.27l37.13 14.95.35.14a26.85 26.85 0 0 0 32.48-11.34 2.53 2.53 0 0 1 .13-.22l42.71-73.89a26.7 26.7 0 0 0-5.89-34.11zm-134.48-40.24a80 80 0 1 1-83.66-83.67 80.21 80.21 0 0 1 83.66 83.67z"/></symbol><symbol class="ghionicon" viewBox="0 0 512 512" id="eui-square" xmlns="http://www.w3.org/2000/svg"><path d="M416 464H96a48.05 48.05 0 0 1-48-48V96a48.05 48.05 0 0 1 48-48h320a48.05 48.05 0 0 1 48 48v320a48.05 48.05 0 0 1-48 48z"/></symbol><symbol class="ggionicon" viewBox="0 0 512 512" id="eui-square-outline" xmlns="http://www.w3.org/2000/svg"><path d="M416 448H96a32.09 32.09 0 0 1-32-32V96a32.09 32.09 0 0 1 32-32h320a32.09 32.09 0 0 1 32 32v320a32.09 32.09 0 0 1-32 32z" fill="none" stroke="currentColor" stroke-linecap="round" stroke-linejoin="round" stroke-width="32"/></symbol><symbol xml:space="preserve" viewBox="0 0 1024 1024" id="eui-stamp" xmlns="http://www.w3.org/2000/svg"><path fill="none" d="M0 0h1024v1024H0z"/><path fill-rule="evenodd" clip-rule="evenodd" fill="currentColor" d="M783.335 774.132c-20.385-2.9-40.854-1.969-61.296-2.162-27.327-.246-25.572 2.516-25.626-25.019-.027-13.363.247-26.742-.193-40.078-1.151-34.264-22.252-62.35-54.998-71.95-9.535-2.805-12.225-6.828-10.934-16.511a106312.844 106312.844 0 0 0 49.799-378.608c3.855-29.731 9.192-59.25 5.172-89.692C674.037 65.147 595.057-2.823 509.671.09c-104.635 3.563-182.324 93.193-170.02 197.111 6.846 57.854 15.078 115.544 22.678 173.311 10.824 82.415 21.524 164.868 32.583 247.259 1.303 9.697-.741 14.334-11.14 17.33-33.9 9.765-55.191 38.299-56.179 73.398-.385 14.091-.137 28.206-.165 42.31-.042 21.105-.042 21.105-20.661 21.134-13.39.027-26.807-.177-40.196.081-93.549 1.889-165.313 69.517-172.516 162.465-2.085 26.905 9.822 40.42 37.054 41.404 13.39.492 26.808.355 40.198.192 7.983-.097 12.319 1.626 11.537 11.354-1.249 15.538 5.611 27.406 17.862 32.658 7.093 3.05 14.556 3.903 21.992 3.903h304.889c92.328 0 184.658-1.086 276.972-1.222 25.86-.027 36.781-11.543 36.356-37.204-.124-7.727 3.826-8.979 9.548-9.06 16.01-.193 32.061.206 48.002-.777 22.252-1.38 32.775-13.5 32.542-35.55-.865-80.758-66.51-154.456-147.672-166.055zm-395.406-62.267c.329-12.285 5.57-17.892 17.917-17.919 69.144-.247 138.287-.247 207.417-.014 12.195.041 17.752 5.843 18.067 17.905.398 15.922-.15 31.884.247 47.807.247 9.166-3.596 12.434-12.594 12.379-36.425-.271-72.848-.109-109.285-.109-36.053 0-72.121-.217-108.174.15-9.974.099-14.227-3.296-13.883-13.513.507-15.553-.11-31.132.288-46.686zm464.66 201.195c-3.718.083-7.437-1.06-11.167-1.06H183.667c-4.102 0-8.189 1.212-12.278 1.02-10.413-.52-12.209-2.254-7.724-11.885 18.41-39.57 49.553-61.702 93.028-66.846 5.516-.656 11.153-.395 16.737-.395 159.318-.03 318.636.258 477.967-.123 39.072-.083 71.092 13.391 95.896 43.594 5.707 6.949 10.18 14.134 13.829 22.261 5.213 11.627 3.842 13.175-8.533 13.434z"/></symbol><symbol viewBox="0 0 48 48" id="eui-star" xmlns="http://www.w3.org/2000/svg"><path d="M42.758 19.976c0 .406-.293.789-.586 1.082l-8.184 7.981 1.939 11.272c.023.158.023.293.023.451 0 .586-.27 1.127-.924 1.127-.316 0-.631-.113-.902-.27l-10.123-5.321-10.123 5.321c-.293.158-.586.27-.902.27-.654 0-.947-.541-.947-1.127 0-.158.023-.293.045-.451l1.939-11.272-8.206-7.981c-.27-.293-.564-.676-.564-1.082 0-.676.699-.947 1.262-1.037l11.318-1.646 5.073-10.258c.203-.428.586-.924 1.105-.924s.902.496 1.105.924l5.073 10.258 11.318 1.646c.541.09 1.262.361 1.262 1.037z"/></symbol><symbol viewBox="0 0 48 48" id="eui-star-o" xmlns="http://www.w3.org/2000/svg"><path d="m30.876 28.024 6.899-6.696-9.514-1.398L24 11.318l-4.261 8.612-9.514 1.398 6.899 6.696-1.646 9.491L24 33.029l8.499 4.486zm11.881-8.048c0 .406-.293.789-.586 1.082l-8.184 7.981 1.939 11.272c.023.158.023.293.023.451 0 .609-.27 1.127-.924 1.127-.316 0-.631-.113-.902-.27L24 36.298l-10.123 5.321c-.293.158-.586.27-.902.27-.654 0-.947-.541-.947-1.127 0-.158.023-.293.045-.451l1.939-11.272-8.206-7.981c-.27-.293-.564-.676-.564-1.082 0-.676.699-.947 1.262-1.037l11.318-1.646 5.073-10.258c.203-.428.586-.924 1.105-.924s.902.496 1.105.924l5.073 10.258 11.318 1.646c.541.09 1.262.361 1.262 1.037z"/></symbol><symbol class="glionicon" viewBox="0 0 512 512" id="eui-swap-horizontal" xmlns="http://www.w3.org/2000/svg"><path fill="none" stroke="currentColor" stroke-linecap="round" stroke-linejoin="round" stroke-width="32" d="m304 48 112 112-112 112m94.87-112H96m112 304L96 352l112-112m-94 112h302"/></symbol><symbol class="gmionicon" viewBox="0 0 512 512" id="eui-swap-vertical" xmlns="http://www.w3.org/2000/svg"><path fill="none" stroke="currentColor" stroke-linecap="round" stroke-linejoin="round" stroke-width="32" d="M464 208 352 96 240 208m112-94.87V416M48 304l112 112 112-112m-112 94V96"/></symbol><symbol class="gnionicon" viewBox="0 0 512 512" id="eui-today-outline" xmlns="http://www.w3.org/2000/svg"><rect fill="none" stroke="currentColor" stroke-linejoin="round" stroke-width="32" x="48" y="80" width="416" height="384" rx="48"/><path fill="none" stroke="currentColor" stroke-linejoin="round" stroke-width="32" stroke-linecap="round" d="M128 48v32m256-32v32"/><rect fill="none" stroke="currentColor" stroke-linejoin="round" stroke-width="32" stroke-linecap="round" x="112" y="224" width="96" height="96" rx="13"/><path fill="none" stroke="currentColor" stroke-linejoin="round" stroke-width="32" stroke-linecap="round" d="M464 160H48"/></symbol><symbol viewBox="0 0 48 48" id="eui-undo" xmlns="http://www.w3.org/2000/svg"><path d="M21.473 22.245H8.766a.761.761 0 0 1-.761-.761V8.777c0-.42.341-.761.761-.761h3.045c.42 0 .761.341.761.761v4.954a15.691 15.691 0 0 1 11.809-5.208 15.692 15.692 0 0 1 15.613 15.764c-.018 8.672-7.054 15.696-15.73 15.696-4.065 0-7.77-1.542-10.562-4.073a.764.764 0 0 1-.03-1.105l2.154-2.154a.76.76 0 0 1 1.04-.033 11.122 11.122 0 0 0 7.396 2.799c6.17 0 11.164-4.993 11.164-11.164 0-6.17-4.993-11.164-11.164-11.164-3.71 0-6.995 1.806-9.024 4.588h6.233c.42 0 .761.341.761.761v3.045c0 .42-.341.761-.761.761z"/></symbol><symbol fill="none" viewBox="0 0 24 24" id="eui-user-preferences" xmlns="http://www.w3.org/2000/svg"><path d="M12 14v2a6 6 0 0 0-6 6H4a8 8 0 0 1 8-8Zm0-1c-3.315 0-6-2.685-6-6s2.685-6 6-6 6 2.685 6 6-2.685 6-6 6Zm0-2c2.21 0 4-1.79 4-4s-1.79-4-4-4-4 1.79-4 4 1.79 4 4 4Zm2.595 7.812a3.51 3.51 0 0 1 0-1.623l-.992-.573 1-1.732.992.573c.398-.377.88-.655 1.405-.812V13.5h2v1.145c.532.158 1.012.44 1.405.812l.992-.573 1 1.732-.992.573a3.511 3.511 0 0 1 0 1.622l.992.573-1 1.732-.992-.573c-.398.377-.88.655-1.405.812V22.5h-2v-1.145a3.497 3.497 0 0 1-1.405-.812l-.992.573-1-1.732.992-.572ZM18 19.5a1.5 1.5 0 1 0 0-3 1.5 1.5 0 0 0 0 3Z" fill="currentColor" stroke="currentColor"/></symbol></svg>