<svg width="48" height="48" viewBox="0 0 48 48" xmlns="http://www.w3.org/2000/svg" xmlns:xlink="http://www.w3.org/1999/xlink"><defs><path id="id-social-14a" d="M2 2h44v43.963H2z"/><path id="id-social-15b" d="M2 2h43.964v44H2z"/></defs><mask id="id-social-16c" fill="#fff"><use xlink:href="#id-social-14a"/></mask><mask id="id-social-17d" fill="#fff"><use xlink:href="#id-social-15b"/></mask><path d="M24 2c12.15 0 22 9.84 22 21.982 0 12.14-9.85 21.981-22 21.981s-22-9.84-22-21.98C2 11.84 11.85 2 24 2" fill="#FFF" mask="url(#id-social-16c)"/><path d="M24 2C11.85 2 2 11.842 2 23.982 2 33.3 7.795 41.26 15.978 44.462c-.2-1.736-.362-4.414.073-6.313.398-1.719 2.571-10.929 2.571-10.929s-.65-1.321-.65-3.256c0-3.058 1.773-5.337 3.982-5.337 1.882 0 2.788 1.41 2.788 3.093 0 1.881-1.195 4.704-1.83 7.328-.524 2.189 1.106 3.98 3.26 3.98 3.912 0 6.917-4.125 6.917-10.06 0-5.264-3.784-8.937-9.198-8.937-6.264 0-9.941 4.686-9.941 9.535 0 1.88.725 3.907 1.63 5.011.181.218.199.416.145.634-.162.688-.543 2.188-.615 2.496-.09.399-.326.488-.743.29-2.752-1.286-4.472-5.284-4.472-8.522 0-6.929 5.033-13.298 14.54-13.298 7.622 0 13.561 5.429 13.561 12.701 0 7.58-4.78 13.677-11.406 13.677-2.228 0-4.328-1.156-5.034-2.531l-1.376 5.228c-.489 1.918-1.83 4.305-2.735 5.772 2.065.632 4.237.976 6.52.976 12.149 0 22-9.842 22-21.982C46 11.842 36.15 2 24 2" mask="url(#id-social-17d)"/></svg>