<svg width="48" height="48" viewBox="0 0 48 48" xmlns="http://www.w3.org/2000/svg" xmlns:xlink="http://www.w3.org/1999/xlink"><defs><path id="id-social-18a" d="M2 2h44v44H2z"/></defs><g fill="none" fill-rule="evenodd"><mask id="id-social-19b" fill="#fff"><use xlink:href="#id-social-18a"/></mask><path d="M24 2C11.85 2 2 11.85 2 24s9.85 22 22 22 22-9.85 22-22S36.15 2 24 2" fill="#1ED760" mask="url(#id-social-19b)"/><path d="M33.58 32.424c.64.401.84 1.255.45 1.91a1.34 1.34 0 0 1-1.866.463c-5.113-3.196-11.548-3.918-19.128-2.147-.731.17-1.458-.298-1.625-1.044-.168-.747.288-1.491 1.02-1.662 8.295-1.939 15.41-1.105 21.148 2.48Zm2.557-6.54a1.76 1.76 0 0 1 .557 2.387 1.676 1.676 0 0 1-2.335.572c-5.852-3.676-14.773-4.743-21.696-2.594a1.695 1.695 0 0 1-2.119-1.156c-.27-.918.235-1.887 1.132-2.165 7.908-2.453 17.738-1.266 24.46 2.957Zm2.865-7.506c.968.589 1.287 1.866.712 2.854a2.012 2.012 0 0 1-2.79.728c-7.018-4.262-18.596-4.655-25.295-2.576-1.077.335-2.215-.287-2.541-1.387-.325-1.1.28-2.263 1.358-2.596 7.692-2.388 20.477-1.928 28.556 2.977Z" fill="#FFF" fill-rule="nonzero" mask="url(#id-social-19b)"/></g></svg>