<svg xmlns="http://www.w3.org/2000/svg" viewBox="0 0 24 24" style="enable-background:new 0 0 24 24" xml:space="preserve"><path d="M11.3 4.4c.9-.8 1.7-.4 1.7.8v13.6c0 1.2-.8 1.6-1.7.8l-2-1.6c-.6-.5-1.5-1.3-2.3-1.9H4c-1.1 0-2-.9-2-2v-4c0-1.1.9-2 2-2h3.1c.8-.7 1.7-1.4 2.3-1.9l1.9-1.8zm8 1c.5-.3 1.1 0 1.4.5.8 2 1.3 4.1 1.3 6.1s-.5 4.1-1.3 6.1c-.2.5-.9.8-1.4.5-.5-.2-.7-.8-.5-1.3.8-1.8 1.2-3.7 1.2-5.4s-.4-3.5-1.2-5.3c-.2-.4 0-1 .5-1.2zm-3.5 1.8c.5-.3 1.2 0 1.4.5.6 1.4.8 2.9.8 4.4s-.3 2.9-.8 4.2c-.2.5-.9.8-1.4.5-.4-.3-.6-.8-.4-1.3.4-1 .7-2.2.7-3.4 0-1.3-.2-2.5-.7-3.7-.3-.4-.1-1 .4-1.2z"/></svg>