<svg xmlns="http://www.w3.org/2000/svg" width="32" height="32" viewBox="0 0 24 24"><path d="M17.957 4.668v-2.25c0-.277-.223-.5-.5-.5H4.707c-.273 0-.5.223-.5.5v16.414c0 .273.227.5.5.5h.004c.969-.004 1.562-.004 1.789 0v2.25c0 .277.223.5.5.5h11.832c.277 0 .5-.223.5-.5V5.168c0-.277-.223-.5-.5-.5h-.875ZM6.5 18.418H5.121l.004-15.086c0-.273.223-.5.5-.5h8.207l-6.926 1.3a.5.5 0 0 0-.406.493Zm10.543-14.98v1.23H7.418l9.031-1.723a.5.5 0 0 1 .582.399.385.385 0 0 1 .012.094Zm.875 17.73h-10a.501.501 0 0 1-.5-.5V6.082c0-.273.223-.5.5-.5h10c.273 0 .5.227.5.5v14.586c0 .273-.227.5-.5.5Zm0 0"/><path d="M16.582 8.332H9.25a.458.458 0 0 0 0 .918h7.332c.254 0 .461-.207.461-.457a.462.462 0 0 0-.461-.461ZM16.582 10.625H9.25a.458.458 0 0 0 0 .918h7.332c.254 0 .461-.207.461-.461a.461.461 0 0 0-.461-.457ZM16.582 12.918H9.25a.455.455 0 0 0-.457.457c0 .254.203.457.457.457h7.332c.254 0 .461-.203.461-.457a.458.458 0 0 0-.461-.457ZM14.293 15.207H9.25a.458.458 0 0 0 0 .918h5.043a.46.46 0 0 0 .457-.457.461.461 0 0 0-.457-.461Zm0 0"/></svg>