<svg xmlns="http://www.w3.org/2000/svg" width="32" height="32" viewBox="0 0 24 24"><path d="M12.637 9.184c1.457-.22 2.703 1.394 1.816 2.832-.742 1.199-3.191 1.195-3.367-.817-.04-.476.254-1.18.266-1.199.246-.395.675-.723 1.285-.816ZM12 14.75l1.832 1.832.918 5.5h-3.668Zm4.035-2.66c1.172 1.726 2.64 4.004 3.13 5.676.093.308.187 1.007-.18 1.285-.364.277-1-.004-1.282-.18-1.55-.969-3.144-2.879-4.594-4.574 1.282.18 2.746-.922 2.926-2.207Zm-5.992-2.738c-.848.976-.723 2.808.258 3.656-2.086.043-4.797.035-6.465-.465-.309-.094-.95-.395-.98-.852-.032-.457.55-.836.851-.976 1.656-.774 4.129-1.07 6.336-1.363Zm6.812-7.637c.422.18.5.87.489 1.203-.067 1.828-.922 4.164-1.664 6.266-.489-1.204-2.176-1.918-3.375-1.434.906-1.879 2.144-4.29 3.351-5.547.223-.234.778-.664 1.2-.488Zm0 0"/></svg>