<svg xmlns="http://www.w3.org/2000/svg" viewBox="0 0 24 24" height="32" width="32"><path transform="scale(.75)" d="M16 2.557C8.573 2.557 2.557 8.573 2.557 16S8.573 29.443 16 29.443 29.443 23.427 29.443 16 23.427 2.557 16 2.557zm1.084 7.334c.995 0 1.853.28 2.582.609l-.52 2.11c-.5-.454-1.23-.678-2.193-.678-.963 0-2.787.4-3.396 2.234h5.5l-.614 1.225h-4.886c-.01.12-.01 1.02 0 1.218h4.886l-.609 1.225h-4.277c.609 1.833 2.392 2.234 3.34 2.234 1.135 0 2.097-.381 2.769-1.011V21.5a6.777 6.777 0 0 1-2.744.61c-1.719 0-3.484-.756-4.588-1.835-.755-.729-.975-1.347-1.225-2.441H9.891l.609-1.225h.61a47.477 47.477 0 0 1 0-1.218H9.89l.61-1.225h.61c.25-1.068.848-1.931 1.587-2.645 1.115-1.088 2.574-1.63 4.387-1.63z" style="stroke-width:1.33333"/></svg>