<svg width="24" height="24" viewBox="0 0 24 24" xmlns="http://www.w3.org/2000/svg"><path d="M7.923 9.855v2.09c0 .33-.27.605-.592.605H5.285a.604.604 0 0 1-.593-.605v-2.09c0-.33.27-.605.593-.605H7.33c.323 0 .592.275.592.605ZM12.77 9.855v2.09c0 .33-.27.605-.593.605H10.13a.604.604 0 0 1-.593-.605v-2.09c0-.33.27-.605.593-.605h2.046c.323 0 .592.275.592.605ZM17.615 9.855v2.09c0 .33-.269.605-.592.605h-2.046a.604.604 0 0 1-.592-.605v-2.09c0-.33.269-.605.592-.605h2.046c.323 0 .592.275.592.605ZM12.77 15.355v2.09c0 .33-.27.605-.593.605H10.13a.604.604 0 0 1-.593-.605v-2.09c0-.33.27-.605.593-.605h2.046c.323 0 .592.275.592.605ZM7.923 15.355v2.09c0 .33-.27.605-.592.605H5.285a.604.604 0 0 1-.593-.605v-2.09c0-.33.27-.605.593-.605H7.33c.323 0 .592.275.592.605Z"/><path d="M20.308 4.905v6.82c0 .11 0 .44-.27.605-.161.165-.376.165-.538.165-.215 0-.377-.055-.485-.11-.215-.11-.323-.385-.323-.66V7.05H3.615v12.76c0 .055 0 .165.108.275.054.055.215.11.27.11h7.915c.269 0 .43.055.646.275.161.165.161.385.161.55 0 .22-.053.385-.107.495l-.054.055c-.162.275-.323.33-.592.33H3.615c-.377 0-.646 0-.861-.055-.162-.055-.27-.11-.43-.165l-.055-.055c-.107-.11-.161-.275-.215-.495C2 20.91 2 20.635 2 20.25V4.85c0-.66.108-1.045.377-1.265.215-.275.592-.385 1.238-.385h1.616V2.1c0-.385.054-.66.269-.825.215-.165.43-.275.808-.275.377 0 .646.055.807.275.162.22.27.44.27.825v1.1h7.538V2.1c0-.385.054-.66.27-.825.215-.165.43-.275.807-.275.377 0 .646.055.808.275.161.22.269.44.269.825v1.1h1.615c.646 0 1.023.11 1.239.385.269.22.377.66.377 1.32ZM22.57 15.355v2.09c0 .44-.324.55-.432.605h-.107c-.054 0-.162 0-.27-.11-.161-.055-.376-.22-.376-.495v-.77l-2.423 2.2c-.162.165-.27.165-.377.165-.162 0-.27-.11-.377-.165a.632.632 0 0 1-.162-.44c0-.165.054-.33.162-.44l2.423-2.2h-.754c-.27 0-.43-.11-.539-.275-.053-.11-.053-.22-.053-.275 0-.275.215-.55.592-.55h2.046c.162 0 .323.055.43.165.162.165.216.33.216.495Z"/><path d="M22.462 19.7v2.2c0 .33-.054.66-.27.825-.215.165-.484.22-.807.22h-5.923c-.377 0-.647-.055-.808-.275-.162-.22-.27-.44-.27-.825v-6.05c0-.385.054-.66.27-.88.215-.22.484-.22.808-.22h2.046c.43 0 .646.275.646.55 0 .055 0 .22-.108.33a.814.814 0 0 1-.538.22H16c-.108 0-.27 0-.323.055-.108.055-.162.165-.162.495v4.95c0 .055 0 .22.054.33.054.11.162.165.485.165h5.223c.054-.055.108-.22.108-.22v-1.815c0-.275.107-.385.161-.495.108-.11.27-.11.377-.11.27-.055.539.165.539.55Z"/></svg>