<svg xmlns="http://www.w3.org/2000/svg" viewBox="0 0 24 24" style="enable-background:new 0 0 24 24" xml:space="preserve"><path d="M6 19c.5 0 1 .5 1 1v1c0 .5-.5 1-1 1s-1-.5-1-1v-1c0-.5.4-1 1-1zm4-3c.6 0 1 .5 1 1v4c0 .5-.4 1-1 1-.5 0-1-.5-1-1v-4c0-.5.4-1 1-1zm4-3c.5 0 1 .4 1 1v7c0 .5-.4 1-1 1-.5 0-1-.4-1-1v-7c0-.6.4-1 1-1zm4-2c.5 0 1 .5 1 1v9c0 .6-.5 1-1 1-.6 0-1-.5-1-1v-9c0-.5.4-1 1-1zm3.5-9c.3 0 .5.2.5.5v4.3c0 .4-.5.7-.9.4l-1.4-1.4-5.6 5.6c-.4.4-1 .4-1.4 0L9.4 8l-5.7 5.7c-.4.4-1 .4-1.4 0-.4-.4-.4-1 0-1.4l6.4-6.4c.4-.4 1-.4 1.4 0l3.3 3.3 4.9-4.9-1.4-1.4c-.4-.4-.1-.9.3-.9h4.3z"/></svg>