<svg xmlns="http://www.w3.org/2000/svg" viewBox="0 0 24 24" style="enable-background:new 0 0 24 24" xml:space="preserve"><path d="M16.1 19.1c.5-.3 1.1-.1 1.4.4.3.5.1 1.1-.4 1.4-.9.5-1.8.9-2.8 1.1h-.2c-.5 0-.9-.3-1-.8-.1-.6.2-1.1.8-1.2.7-.2 1.5-.5 2.2-.9zm-13.3-6c.6-.1 1.1.2 1.2.8.7 3.1 3.1 5.5 6.2 6.2.6.1.9.7.8 1.2-.1.5-.5.8-1 .8h-.2c-3.8-.9-6.9-3.9-7.7-7.7-.2-.6.1-1.2.7-1.3zm17.2.8c.1-.6.7-.9 1.2-.8.6.1.9.7.8 1.2-.3 1.2-.8 2.4-1.5 3.4-.2.3-.5.5-.9.5-.2 0-.4-.1-.6-.2-.5-.3-.6-1-.3-1.4.7-.8 1.1-1.8 1.3-2.7zM12.1 7c.5 0 1 .4 1 1v7.1c0 .5-.4 1-1 1H12c-.5 0-1-.4-1-1V8c0-.5.5-1 1.1-1zM8 13c.6 0 1 .4 1 1v1c0 .6-.4 1-1 1s-1-.4-1-1v-1c0-.6.5-1 1-1zm8-3c.5 0 1 .4 1 1v4c0 .6-.5 1-1 1-.6 0-1-.4-1-1v-4c0-.6.5-1 1-1zM9.7 2c.6-.1 1.1.2 1.2.8.1.6-.2 1.1-.8 1.2-3 .7-5.4 3.1-6.1 6.2-.1.5-.5.8-1 .8h-.2c-.6-.2-.9-.7-.8-1.3.9-3.8 3.9-6.8 7.7-7.7zm3.4.8c.1-.6.7-.9 1.2-.8 3.8.9 6.9 3.9 7.7 7.7.1.6-.2 1.1-.8 1.2H21c-.5 0-.9-.3-1-.8-.7-3.1-3.1-5.5-6.2-6.2-.5 0-.8-.5-.7-1.1z"/></svg>