<svg xmlns="http://www.w3.org/2000/svg" viewBox="0 0 24 24" style="enable-background:new 0 0 24 24" xml:space="preserve"><path d="M20 3c1.1 0 2 .9 2 2v14c0 1.1-.9 2-2 2h-4c-.6 0-1-.5-1-1s.4-1 1-1h3c.5 0 1-.5 1-1V6c0-.6-.5-1-1-1H5c-.6 0-1 .4-1 1v1c0 .6-.5 1-1 1s-1-.4-1-1V5c0-1.1.9-2 2-2h16zM2 18c1.7 0 3 1.3 3 3H2v-3zm1.1-3.9h.1c3 .5 5.3 2.8 5.8 5.8 0 .6-.4 1.1-1 1.1-.5 0-.9-.4-1-.8-.4-2.1-2-3.7-4.1-4.1-.5-.1-.9-.5-.9-1 0-.6.5-1.1 1.1-1zM3 10h.1c5.2.5 9.3 4.6 9.9 9.8.1.6-.4 1.1-1 1.1-.5 0-.9-.4-1-.9-.4-4.3-3.8-7.7-8.1-8.1-.5.1-.9-.3-.9-.9 0-.6.5-1.1 1.1-1H3z"/></svg>