<svg xmlns="http://www.w3.org/2000/svg" width="32" height="32" viewBox="0 0 24 24"><path d="M3.25 9.75h16.5c.277 0 .5.223.5.5v10.375c0 .277-.223.5-.5.5H3.25a.498.498 0 0 1-.5-.5V10.25c0-.277.223-.5.5-.5Zm5.25 4.375h6c.277 0 .5-.223.5-.5V12c0-.277-.223-.5-.5-.5h-6c-.277 0-.5.223-.5.5v1.625c0 .277.223.5.5.5Zm12.625-5.75V6.387c0-.09-.023-.18-.07-.254l-2.41-4.016a.503.503 0 0 0-.426-.242H4.78a.503.503 0 0 0-.426.242l-2.41 4.016a.478.478 0 0 0-.07.254v1.988c0 .277.223.5.5.5h18.25c.277 0 .5-.223.5-.5Zm0 0"/></svg>