<svg xmlns="http://www.w3.org/2000/svg" viewBox="0 0 24 24" style="enable-background:new 0 0 24 24" xml:space="preserve"><path d="M21 20c.5 0 1 .5 1 1s-.5 1-1 1H3c-.5 0-1-.5-1-1s.5-1 1-1h18zM6 10c.6 0 1 .5 1 1.2v5.7c0 .6-.4 1.1-1 1.1s-1-.5-1-1.2v-5.7c0-.6.4-1.1 1-1.1zm4 0c.6 0 1 .5 1 1.2v5.7c0 .6-.4 1.2-1 1.2s-1-.5-1-1.2v-5.7c0-.7.4-1.2 1-1.2zm4 0c.6 0 1 .5 1 1.2v5.7c0 .6-.4 1.2-1 1.2s-1-.5-1-1.2v-5.7c0-.7.4-1.2 1-1.2zm4 0c.5 0 1 .5 1 1.2v5.7c0 .6-.5 1.2-1 1.2s-1-.5-1-1.2v-5.7c0-.7.5-1.2 1-1.2zm-7-7.8c.6-.3 1.3-.3 2 0l8.3 3.7c.4.2.7.6.7 1 0 .6-.6 1.1-1.3 1.1H3.3C2.6 8 2 7.5 2 6.9c0-.4.3-.8.7-1L11 2.2z"/></svg>