<svg xmlns="http://www.w3.org/2000/svg" viewBox="0 0 24 24" style="enable-background:new 0 0 24 24" xml:space="preserve"><path d="M12 17c.6 0 1 .5 1 1v3c0 .5-.4 1-1 1s-1-.5-1-1v-3c0-.5.4-1 1-1zm2.6-.5c.5-.3 1.1-.1 1.4.4l1.5 2.6c.3.5.1 1.1-.4 1.4-.5.3-1.1.1-1.4-.4l-1.5-2.6c-.2-.5 0-1.1.4-1.4zm-6.6.4c.3-.5.9-.6 1.4-.4.5.3.6.9.4 1.4l-1.5 2.6c-.3.5-.9.6-1.4.4s-.6-.9-.4-1.4L8 16.9zm8.5-2.3c.3-.5.9-.6 1.4-.4l2.6 1.5c.5.3.6.9.4 1.4-.3.5-.9.6-1.4.4L16.9 16c-.5-.3-.7-.9-.4-1.4zm-10.4-.3c.5-.3 1.1-.1 1.4.4.3.5.1 1.1-.4 1.4l-2.6 1.5c-.5.3-1.1.1-1.4-.4-.3-.5-.1-1.1.4-1.4l2.6-1.5zM21 11c.5 0 1 .4 1 1s-.5 1-1 1h-3c-.5 0-1-.4-1-1s.5-1 1-1h3zM6 11c.6 0 1 .4 1 1s-.4 1-1 1H3c-.5 0-1-.4-1-1s.5-1 1-1h3zM3.2 6.9c.3-.5.9-.6 1.4-.4L7.1 8c.5.3.6.9.4 1.4-.3.4-.9.6-1.4.3L3.5 8.2c-.4-.2-.6-.9-.3-1.3zm16.3-.4c.5-.3 1.1-.1 1.4.4s.1 1.1-.4 1.4l-2.6 1.5c-.5.3-1.1.1-1.4-.4-.3-.5-.1-1.1.4-1.4l2.6-1.5zM6.9 3.2c.4-.3 1.1-.1 1.3.3l1.5 2.6c.3.5.1 1.1-.3 1.4-.5.3-1.1.1-1.4-.4L6.5 4.5c-.3-.4-.1-1.1.4-1.3zm8.9.3c.3-.5.9-.6 1.4-.4.5.3.6.9.4 1.4L16 7.1c-.3.5-.9.6-1.4.4-.5-.3-.6-.9-.4-1.4l1.6-2.6zM12 2c.6 0 1 .5 1 1v3c0 .6-.4 1-1 1s-1-.4-1-1V3c0-.5.4-1 1-1z"/></svg>