<svg xmlns="http://www.w3.org/2000/svg" viewBox="0 0 24 24" style="enable-background:new 0 0 24 24" xml:space="preserve"><path d="M17 9h-7c-.6 0-1-.4-1-1s.4-1 1-1h7c.6 0 1 .4 1 1s-.4 1-1 1m0 4h-7c-.6 0-1-.4-1-1s.4-1 1-1h7c.6 0 1 .4 1 1s-.4 1-1 1m0 4h-7c-.6 0-1-.4-1-1s.4-1 1-1h7c.6 0 1 .4 1 1s-.4 1-1 1M6 9c-.6 0-1-.4-1-1s.4-1 1-1 1 .4 1 1-.4 1-1 1m0 4c-.6 0-1-.4-1-1s.4-1 1-1 1 .4 1 1-.4 1-1 1m0 4c-.6 0-1-.4-1-1s.4-1 1-1 1 .4 1 1-.4 1-1 1M20 2H4c-1.1 0-2 .9-2 2v16c0 1.1.9 2 2 2h16c1.1 0 2-.9 2-2V4c0-1.1-.9-2-2-2"/></svg>