<svg width="24" height="24" viewBox="0 0 24 24" xmlns="http://www.w3.org/2000/svg"><path fill-rule="evenodd" clip-rule="evenodd" d="M12 2c.34 0 .653.19.809.494l2.852 5.551 5.534.635a.909.909 0 0 1 .574 1.51l-3.978 4.452 1.318 6.262a.909.909 0 0 1-1.33.982L12 18.678l-5.778 3.208a.91.91 0 0 1-1.331-.982l1.319-6.262L2.23 10.19a.91.91 0 0 1 .574-1.509l5.534-.635 2.852-5.551A.909.909 0 0 1 12 2Zm0 2.899-2.265 4.41a.91.91 0 0 1-.705.487l-4.274.49 3.116 3.488c.192.216.271.51.211.793L7.08 19.33l4.479-2.486a.91.91 0 0 1 .882 0l4.478 2.486-1.002-4.763a.909.909 0 0 1 .211-.793l3.116-3.487-4.274-.49a.91.91 0 0 1-.705-.489L12 4.898Z"/></svg>