<svg width="48" height="48" viewBox="0 0 48 48" xmlns="http://www.w3.org/2000/svg" xmlns:xlink="http://www.w3.org/1999/xlink"><defs><path d="M32 29.315L26.703 24 32 18.685 29.31 16l-5.161 5.288-5.46-5.261L16 18.712 21.324 24 16 29.288l2.69 2.685 5.324-5.288L29.31 32 32 29.315zm4.726-18.041a17.807 17.807 0 00-5.715-3.854A17.847 17.847 0 0024 6c-2.435 0-4.795.479-7.013 1.42-2.133.902-4.06 2.2-5.715 3.854a17.817 17.817 0 00-3.854 5.715A17.877 17.877 0 006 24c0 2.435.479 4.793 1.418 7.013.902 2.133 2.2 4.06 3.854 5.715a17.836 17.836 0 005.715 3.854A17.88 17.88 0 0024 42a17.942 17.942 0 0012.726-5.272 17.856 17.856 0 003.854-5.715C41.52 28.793 42 26.435 42 24c0-2.434-.48-4.793-1.42-7.011a17.814 17.814 0 00-3.854-5.715zm2.828-2.828a21.764 21.764 0 00-6.985-4.71A21.813 21.813 0 0024 2c-2.977 0-5.86.585-8.571 1.736a21.917 21.917 0 00-6.985 4.71 21.776 21.776 0 00-4.71 6.985A21.85 21.85 0 002 24c0 2.977.585 5.859 1.734 8.571a21.917 21.917 0 004.71 6.985 21.8 21.8 0 006.985 4.71A21.852 21.852 0 0024 46a21.85 21.85 0 008.569-1.734 21.929 21.929 0 006.985-4.71 21.824 21.824 0 004.71-6.985A21.862 21.862 0 0046 24c0-2.974-.587-5.859-1.736-8.569a21.772 21.772 0 00-4.71-6.985z" id="id-5a"/></defs><use xlink:href="#id-5a" fill-rule="evenodd"/></svg>