<svg width="48" height="48" viewBox="0 0 48 48" xmlns="http://www.w3.org/2000/svg" xmlns:xlink="http://www.w3.org/1999/xlink"><defs><path d="M33.952 24.657a11.612 11.612 0 001.072-4.197h-4.151a18.897 18.897 0 01-.607 4.197h3.686zm1.12-5.876A11.642 11.642 0 0034 14.583h-3.73c.325 1.26.56 2.66.652 4.198h4.15zm-10.868 7.555v4.803c.746-.56 2.47-2.052 3.684-4.803h-3.684zm5.457 0c-.746 1.865-1.725 3.357-2.612 4.384 2.424-.84 4.477-2.332 5.923-4.384h-3.31zm3.357-13.431c-1.4-2.053-3.451-3.592-5.83-4.43.84 1.071 1.819 2.517 2.565 4.43h3.265zm-4.477 1.678h-4.337v4.198h5.037c-.093-1.585-.326-2.985-.7-4.198zm-4.337 5.877v4.197h4.337c.372-1.213.607-2.612.653-4.197h-4.99zm3.684-7.602c-.372-1.025-.932-1.865-1.4-2.564-.699-.933-1.399-1.586-1.912-2.006-.093-.14-.233-.186-.372-.28v4.852h3.684v-.002zm-9.047 0h3.73V8.055c-.792.56-2.517 2.1-3.73 4.803zm-1.773 0a14.683 14.683 0 012.612-4.384c-2.425.793-4.477 2.378-5.923 4.384h3.31zm-1.259 7.555h-4.15a11.402 11.402 0 001.071 4.198h3.685c-.326-1.26-.514-2.612-.607-4.198h.001zm.654-5.876h-3.685a12.734 12.734 0 00-1.12 4.198h4.198c.093-1.54.28-2.939.607-4.198zM2 32c0 2.383 1.96 4 4 4h12l16 10V36h8c2.188 0 4-1.775 4-4V6c0-2.108-1.905-4-4-4H6.182C4.075 2 2 4.073 2 6.182V32zm7.98-12.426c0-7.415 6.016-13.431 13.43-13.385 7.416 0 13.386 6.016 13.34 13.431 0 7.416-6.017 13.432-13.432 13.385-7.415 0-13.385-6.016-13.338-13.431zm3.732 6.715a12.087 12.087 0 005.876 4.431 14.952 14.952 0 01-2.564-4.43h-3.312zm4.522-1.678h4.291v-4.198h-4.99c.046 1.586.279 2.985.7 4.198zm4.293-5.876v-4.198h-4.338c-.374 1.213-.56 2.612-.653 4.198h4.99zM20.24 28.854c.7.886 1.4 1.585 1.913 2.006.093.14.232.232.326.279v-4.803h-3.685c.42.979.98 1.818 1.446 2.518z" id="id-11a"/></defs><use xlink:href="#id-11a"/></svg>