<svg width="48" height="48" viewBox="0 0 48 48" xmlns="http://www.w3.org/2000/svg"><path d="M39.554 8.446a21.767 21.767 0 00-6.985-4.71A21.812 21.812 0 0024 2c-2.977 0-5.86.585-8.571 1.736a21.917 21.917 0 00-6.985 4.71 21.776 21.776 0 00-4.71 6.985A21.85 21.85 0 002 24c0 2.977.585 5.859 1.734 8.571a21.92 21.92 0 004.71 6.985 21.797 21.797 0 006.985 4.71A21.853 21.853 0 0024 46a21.85 21.85 0 008.569-1.734 21.93 21.93 0 006.985-4.71 21.826 21.826 0 004.71-6.985A21.86 21.86 0 0046 24a21.85 21.85 0 00-1.736-8.569 21.773 21.773 0 00-4.71-6.985zM17.89 14.222h3.667v18.334h-3.667V14.222zm12.222 0h-3.667v18.334h3.667V14.222z" fill-rule="evenodd"/></svg>