<svg width="48" height="48" viewBox="0 0 48 48" xmlns="http://www.w3.org/2000/svg"><path d="M39.554 8.446a21.764 21.764 0 00-6.985-4.71A21.813 21.813 0 0024 2c-2.977 0-5.86.585-8.571 1.736a21.917 21.917 0 00-6.985 4.71 21.776 21.776 0 00-4.71 6.985A21.85 21.85 0 002 24c0 2.977.585 5.859 1.734 8.571a21.917 21.917 0 004.71 6.985 21.8 21.8 0 006.985 4.71A21.852 21.852 0 0024 46a21.85 21.85 0 008.569-1.734 21.929 21.929 0 006.985-4.71 21.824 21.824 0 004.71-6.985A21.862 21.862 0 0046 24c0-2.974-.587-5.859-1.736-8.569a21.772 21.772 0 00-4.71-6.985zM18 33V15l16 9-16 9z"/></svg>