<svg width="48" height="48" viewBox="0 0 48 48" xmlns="http://www.w3.org/2000/svg"><path d="M29.133 36.281l2.495 8.497-4.109 1.207-2.495-8.497 4.11-1.207zm-11.266 0l4.109 1.207-2.495 8.497-4.11-1.207 2.496-8.497zm16.635-5.061l6.693 5.799-2.805 3.237-6.692-5.8 2.804-3.236zm-22.004 0l2.804 3.236-6.692 5.8-2.805-3.237 6.693-5.8zm23.88-7.31l8.766 1.26-.61 4.24-8.765-1.26.61-4.24zm-25.756 0l.61 4.24-8.766 1.26-.61-4.24 8.766-1.26zM42.22 12.994L44 16.89l-8.056 3.679-1.779-3.896 8.056-3.679zm-37.442 0l8.056 3.68-1.78 3.895L3 16.89l1.78-3.896zm28.575-8.637l3.603 2.315-4.788 7.45-3.603-2.315 4.788-7.45zm-19.708 0l4.788 7.45-3.603 2.315-4.788-7.45 3.603-2.315zM25 2v9h-4V2h4z"/></svg>