<!-- Generated by IcoMoon.io -->
<svg version="1.1" xmlns="http://www.w3.org/2000/svg" width="48" height="48" viewBox="0 0 48 48">
<title>code</title>
<path d="M16.5 33.599l-1.093 1.093c-0.284 0.284-0.721 0.284-1.006 0l-10.189-10.189c-0.284-0.284-0.284-0.721 0-1.006l10.189-10.189c0.284-0.284 0.721-0.284 1.006 0l1.093 1.093c0.284 0.284 0.284 0.721 0 1.006l-8.593 8.593 8.593 8.593c0.284 0.284 0.284 0.721 0 1.006zM29.423 10.269l-8.156 28.228c-0.109 0.372-0.503 0.59-0.853 0.481l-1.356-0.372c-0.372-0.109-0.59-0.503-0.481-0.875l8.156-28.228c0.109-0.372 0.503-0.59 0.853-0.481l1.356 0.372c0.372 0.109 0.59 0.503 0.481 0.875zM43.788 24.503l-10.189 10.189c-0.284 0.284-0.721 0.284-1.006 0l-1.093-1.093c-0.284-0.284-0.284-0.721 0-1.006l8.593-8.593-8.593-8.593c-0.284-0.284-0.284-0.721 0-1.006l1.093-1.093c0.284-0.284 0.721-0.284 1.006 0l10.189 10.189c0.284 0.284 0.284 0.721 0 1.006z"></path>
</svg>
