<?xml version="1.0" encoding="utf-8"?>
<!-- Generator: Adobe Illustrator 16.0.0, SVG Export Plug-In . SVG Version: 6.00 Build 0)  -->
<!DOCTYPE svg PUBLIC "-//W3C//DTD SVG 1.1//EN" "http://www.w3.org/Graphics/SVG/1.1/DTD/svg11.dtd">
<svg version="1.1" id="Layer_1" xmlns="http://www.w3.org/2000/svg" xmlns:xlink="http://www.w3.org/1999/xlink" x="0px" y="0px"
	 width="1024px" height="1024px" viewBox="0 0 1024 1024" enable-background="new 0 0 1024 1024" xml:space="preserve">
<rect fill="none" width="1024" height="1024"/>
<g>
	<path fill-rule="evenodd" clip-rule="evenodd" fill="currentColor" d="M642.764,264.319V0H183.71c-18.108,0-32.79,14.794-32.79,33.04
		v958.158c0,18.247,14.682,33.041,32.79,33.041h688.58c18.107,0,32.789-14.794,32.789-33.041V297.359H675.553
		C657.445,297.359,642.764,282.566,642.764,264.319z M352.909,735.138l-5.252,0.348c-94.27-1.372-118.862-78.123-106.565-119.423
		c12.296-41.299,46.334-207.71,46.334-207.71l0,0v-68.822c0-2.065,1.665-3.743,3.714-3.743h78.259v-76.856H291.14
		c-2.05,0-3.714-1.678-3.714-3.743v-80.858c0-2.064,1.665-3.743,3.714-3.743h78.259V93.731H291.14c-2.05,0-3.714-1.678-3.714-3.743
		V9.131c0-2.065,1.665-3.743,3.714-3.743h80.245c2.049,0,3.715,1.678,3.715,3.743v78.857h78.259c2.049,0,3.714,1.678,3.714,3.743
		v80.857c0,2.065-1.666,3.743-3.714,3.743H375.1v76.857h78.259c2.049,0,3.714,1.677,3.714,3.743v80.857
		c0,2.065-1.666,3.743-3.714,3.743H375.1v66.821h41.21c0,0,30.868,166.411,43.165,207.71
		C471.771,657.362,447.179,733.768,352.909,735.138z"/>
	<path fill-rule="evenodd" clip-rule="evenodd" fill="currentColor" d="M346.28,604.262c-50.337,0-50.337,78.662,0,78.662
		C396.634,682.924,396.634,604.262,346.28,604.262z"/>
	<polygon fill-rule="evenodd" clip-rule="evenodd" fill="currentColor" points="757.526,0 708.342,0 708.342,214.759 905.079,214.759 
		905.079,165.199 	"/>
</g>
</svg>
