<?xml version="1.0" encoding="utf-8"?>
<!-- Generator: Adobe Illustrator 24.1.3, SVG Export Plug-In . SVG Version: 6.00 Build 0)  -->
<svg version="1.1" id="Layer_2" xmlns="http://www.w3.org/2000/svg" xmlns:xlink="http://www.w3.org/1999/xlink" x="0px" y="0px"
	 viewBox="0 0 1024 1024" style="enable-background:new 0 0 1024 1024;" xml:space="preserve">
<g>
	<rect x="234.53" y="319.8" width="360.24" height="75.13"/>
	<rect x="234.53" y="474.43" width="554.94" height="75.13"/>
	<rect x="234.53" y="629.07" width="360.24" height="75.13"/>
	<rect x="234.53" y="783.71" width="554.94" height="75.13"/>
	<path d="M939.33,260.38L689.95,11c-0.01-0.01-0.02-0.02-0.03-0.02L678.95,0H174.49C118.89,0,73.66,45.23,73.66,100.82v822.36
		c0,55.59,45.23,100.82,100.82,100.82h675.03c55.59,0,100.82-45.23,100.82-100.82V271.39l-10.98-10.98
		C939.35,260.4,939.34,260.39,939.33,260.38z M700.95,128.26l121.12,121.12h-95.43c-14.17,0-25.69-11.52-25.69-25.68V128.26z
		 M875.2,923.18c0,14.17-11.52,25.69-25.68,25.69H174.49c-14.17,0-25.69-11.52-25.69-25.69V100.82c0-14.16,11.52-25.68,25.69-25.68
		h451.33V223.7c0,55.59,45.23,100.82,100.82,100.82H875.2V923.18z"/>
</g>
</svg>
