<?xml version="1.0" encoding="utf-8"?>
<!-- Generator: Adobe Illustrator 16.0.0, SVG Export Plug-In . SVG Version: 6.00 Build 0)  -->
<!DOCTYPE svg PUBLIC "-//W3C//DTD SVG 1.1//EN" "http://www.w3.org/Graphics/SVG/1.1/DTD/svg11.dtd">
<svg version="1.1" id="Layer_1" xmlns="http://www.w3.org/2000/svg" xmlns:xlink="http://www.w3.org/1999/xlink" x="0px" y="0px"
	 width="1024px" height="1024px" viewBox="0 0 1024 1024" enable-background="new 0 0 1024 1024" xml:space="preserve">
<rect fill="none" width="1024" height="1024"/>
<g>
	<path fill="currentColor" d="M666.985,0h-45.627H210.717C165.952,0,135,25.134,135,61.134v886.448c0,37.851,38.051,76.418,75.717,76.418
		h638.776c35.824,0,60.507-31.433,60.507-76.418V320.956v-45.851V168.806L760.021,0H666.985z M835,948H214.103
		c-1.159-1-3.103-2.656-4.103-3.82V76h122v58.089c0,1.911,1.933,3.911,3.834,3.911h69.153c1.902,0,4.013-2,4.013-3.911V76h182
		v199.104C591,312.956,629.319,352,666.985,352H835V948z M835,275H670.372c-1.159-1-3.372-2.12-3.372-3.291V76h59.038L835,198V275z"
		/>
	<path fill="currentColor" d="M485,141.135c0-1.912-1.543-3.135-3.446-3.135h-69.108c-1.903,0-3.446,1.223-3.446,3.135v69.448
		c0,1.912,1.543,3.417,3.446,3.417h69.108c1.903,0,3.446-1.505,3.446-3.417V141.135z"/>
	<path fill="currentColor" d="M408,217.508c0-1.912-1.543-3.508-3.446-3.508h-69.108c-1.903,0-3.446,1.596-3.446,3.508v69.448
		c0,1.912,1.543,3.044,3.446,3.044h69.108c1.903,0,3.446-1.132,3.446-3.044V217.508z"/>
	<path fill="currentColor" d="M485,293.881c0-1.912-1.543-3.881-3.446-3.881h-69.108c-1.903,0-3.446,1.969-3.446,3.881v69.447
		c0,1.912,1.543,3.672,3.446,3.672h69.108c1.903,0,3.446-1.76,3.446-3.672V293.881z"/>
	<path fill="currentColor" d="M456.912,443H409v-72.731c0-1.911-2.111-3.269-4.013-3.269h-69.153c-1.901,0-3.834,1.358-3.834,3.269
		v69.493c0,0.059,0.254,0.097,0.254,0.157c-2.199,12.574-27.083,154.664-37.985,191.17
		c-11.406,38.211,11.456,109.219,98.907,110.486l4.896-0.32c87.452-1.27,110.277-69.918,98.87-108.127
		C485.535,594.918,456.912,443,456.912,443z M393,692.948c-46,0-46-72.777,0-72.777S439,692.948,393,692.948z"/>
</g>
</svg>
