<?xml version="1.0" encoding="utf-8"?>
<!-- Generator: Adobe Illustrator 16.0.0, SVG Export Plug-In . SVG Version: 6.00 Build 0)  -->
<!DOCTYPE svg PUBLIC "-//W3C//DTD SVG 1.1//EN" "http://www.w3.org/Graphics/SVG/1.1/DTD/svg11.dtd">
<svg version="1.1" id="Layer_1" xmlns="http://www.w3.org/2000/svg" xmlns:xlink="http://www.w3.org/1999/xlink" x="0px" y="0px"
	 width="1024px" height="1024px" viewBox="0 0 1024 1024" enable-background="new 0 0 1024 1024" xml:space="preserve">
<rect fill="none" width="1024" height="1024"/>
<g>
	<path fill="currentColor" d="M667.365,0h-45.746H209.895C165.01,0,133,25.73,133,61.677v885.116c0,37.794,39.13,77.207,76.895,77.207
		h640.461c35.918,0,61.645-32.291,61.645-77.207V321.108v-45.783V169.187L760.646,0H667.365z M835,948H213.29
		c-1.162-1-3.29-3.443-3.29-4.606V76h381v199.325C591,313.119,629.601,351,667.365,351H835V948z M835,275H670.761
		c-1.161,0-2.761-1.895-2.761-3.072V76h58.575L835,198.337V275z"/>
</g>
<path fill="currentColor" d="M623.288,661.886c-12.206-6.74-23.987-14.133-34.069-23.859c-27.046-26.098-46.219-57.25-59.558-92.197
	c-0.524-1.331-0.736-2.988-0.51-4.39c1.643-9.572,3.823-19.031,5.111-28.618c3.243-24.27,6.132-48.597,9.147-72.882
	c-0.325-0.028-0.665-0.085-0.991-0.127c0-4.206,0.071-8.454-0.014-12.645c-0.198-9.034-2.634-17.389-7.816-24.809
	c-3.951-5.636-8.921-10.139-15.987-10.833c-5.678-0.581-11.512-0.637-17.176-0.042c-12.844,1.345-20.844,8.893-23.506,21.495
	c-3.498,16.737-2.804,33.517-0.921,50.325c3.328,29.113,10.097,57.533,17.602,85.754c1.133,4.318,0.821,8.029-0.906,12.135
	c-23.364,55.338-51.43,108.311-80.939,160.533c-0.85,1.572-2.506,2.861-4.106,3.738c-9.063,4.984-18.252,9.686-27.301,14.699
	c-22.203,12.334-42.934,26.678-60.308,45.383c-8.313,8.963-15.647,18.635-18.678,30.77c-1.841,7.35-2.067,15.123,4.701,19.98
	c7.222,5.111,15.208,9.402,24.299,10.691c10.677,1.514,20.136-2.068,29-7.619c12.263-7.703,22.118-18.025,31.28-29.07
	c19.526-23.59,35.414-49.604,50.934-75.885c1.104-1.854,3.229-3.709,5.268-4.389c52.081-16.639,105.068-29.51,159.117-38.02
	c3.257-0.539,5.877,0.027,8.694,1.57c23.521,12.801,48.188,22.785,74.086,29.639c15.704,4.162,31.592,7.234,47.961,6.641
	c16.001-0.623,25.53-7.717,28.688-22.459c1.345-6.287,1.274-12.898,1.359-19.385c0.099-8.113-4.361-14.104-10.72-18.395
	c-4.177-2.816-8.935-4.928-13.749-6.514c-12.348-3.949-25.233-4.928-38.147-5.324c-25.063-0.764-50,1.303-74.837,4.434
	C627.961,662.509,625.101,662.933,623.288,661.886z M331.221,825.081c-0.396-0.27-0.765-0.51-1.161-0.779
	c0.793-1.756,1.303-3.738,2.407-5.324c7.08-10.082,13.452-20.885,21.68-29.963c12.56-13.805,26.451-26.422,39.747-39.563
	c0.481,0.453,0.949,0.863,1.416,1.33C376.731,777.97,359.626,806.403,331.221,825.081z M508.647,417.467
	c0.198-2.903,0.623-5.834,1.303-8.68c0.765-3.158,2.563-3.894,4.956-1.713c2.181,1.997,4.46,4.531,5.296,7.278
	c2.266,7.519,4.475,15.18,5.508,22.925c2.592,19.371,1.147,38.417-7.065,56.527c-0.736,1.628-1.558,3.172-2.351,4.758
	c-0.439,0-0.878,0.057-1.303,0.057c-1.501-7.845-3.285-15.647-4.418-23.534C507.854,455.955,507.16,436.753,508.647,417.467z
	 M458.379,703.97c19.966-36.363,39.139-72.91,54.205-112.488c17.304,31.123,38.855,57.477,67.063,79.354
	C537.874,679.261,497.716,689.554,458.379,703.97z M670.356,684.513c6.967-0.283,13.934-0.68,20.9-0.82
	c15.548-0.396,31.138-0.709,46.19,4.148c4.305,1.373,8.496,3.498,12.135,6.09c1.657,1.146,2.648,4.375,2.479,6.555
	c-0.128,1.205-3.144,2.848-5.013,3.102c-5.522,0.709-11.215,1.502-16.709,1.033c-21.453-1.727-40.555-11.102-60.124-18.861
	C670.271,685.335,670.3,684.925,670.356,684.513z"/>
</svg>
