<!-- Generated by IcoMoon.io -->
<svg version="1.1" xmlns="http://www.w3.org/2000/svg" width="32" height="32" viewBox="0 0 32 32">
<title>file-alt-o</title>
<path fill="none" d="M0 0h32v32h-32v-32z"></path>
<path fill="currentColor" d="M22.561 14.243h-16.456c-0.189 0-0.342-0.153-0.342-0.342s0.153-0.342 0.342-0.342h16.456c0.189 0 0.342 0.153 0.342 0.342s-0.153 0.342-0.342 0.342z"></path>
<path fill="currentColor" d="M11.932 10.769h-5.268c-0.507 0-0.917-0.411-0.917-0.918v-4.638c0-0.507 0.411-0.917 0.918-0.917h5.268c0.507 0 0.918 0.411 0.918 0.918v4.637c0 0.507-0.411 0.918-0.917 0.918z"></path>
<path fill="currentColor" d="M29.297 13.903c-0.789-0.679-1.983-0.591-2.663 0.198l-12.572 14.596c-0.059 0.069-0.096 0.153-0.107 0.243l-0.305 2.55c-0.018 0.151 0.040 0.3 0.155 0.399 0.084 0.072 0.189 0.11 0.297 0.11 0.040 0 0.081-0.005 0.121-0.016l2.476-0.679c0.087-0.024 0.166-0.073 0.225-0.142l12.572-14.596c0.68-0.789 0.591-1.984-0.198-2.663z"></path>
<path fill="currentColor" d="M6.106 20.686c-0.189 0-0.342 0.153-0.342 0.342s0.153 0.342 0.342 0.342h13.366l0.588-0.683h-13.955z"></path>
<path fill="currentColor" d="M22.561 17.123h-16.456c-0.189 0-0.342 0.153-0.342 0.342s0.153 0.342 0.342 0.342h16.435l0.355-0.412c-0.032-0.154-0.17-0.271-0.334-0.271z"></path>
<path fill="currentColor" d="M6.106 24.249c-0.189 0-0.342 0.153-0.342 0.342s0.153 0.342 0.342 0.342h10.297l0.588-0.683h-10.886z"></path>
<path fill="currentColor" d="M26.26 13.505v-4.926c0-0.023-0.002-0.045-0.007-0.067 0.013 0.065 0.007 0.133-0.019 0.197-0.053 0.128-0.177 0.211-0.316 0.211h-0.342v5.361l0.539-0.626c0.046-0.053 0.095-0.102 0.144-0.151z"></path>
<path fill="currentColor" d="M25.576 26.721c0 1.473-1.198 2.671-2.671 2.671h-3.556l-0.588 0.683h4.144c1.849 0 3.354-1.505 3.354-3.354v-5.352l-0.683 0.793v4.558z"></path>
<path fill="currentColor" d="M5.402 29.392c-1.473 0-2.671-1.198-2.671-2.671v-23.367c0-1.472 1.198-2.671 2.671-2.671h11.937v-0.342c0-0.138 0.083-0.263 0.211-0.316 0.063-0.026 0.132-0.032 0.197-0.020-0.022-0.004-0.043-0.007-0.066-0.007h-12.279c-1.849 0-3.354 1.505-3.354 3.354v23.367c0 1.849 1.505 3.354 3.354 3.354h7.728l0.082-0.683h-7.81z"></path>
<path fill="currentColor" d="M13.674 28.101h-8.272c-0.761 0-1.38-0.619-1.38-1.379v-23.367c0-0.761 0.619-1.379 1.38-1.379h11.937v-0.683h-11.937c-1.138 0-2.063 0.925-2.063 2.063v23.367c0 1.137 0.925 2.063 2.063 2.063h7.883l0.032-0.269 0.357-0.414z"></path>
<path fill="currentColor" d="M24.968 26.721v-3.852l-0.683 0.793v3.059c0 0.761-0.619 1.379-1.379 1.379h-2.443l-0.588 0.683h3.032c1.137 0 2.063-0.925 2.063-2.063z"></path>
<path fill="currentColor" d="M24.968 8.921h-0.683v6.86l0.683-0.793z"></path>
<path fill="currentColor" d="M26.159 8.338l-8.237-8.238c-0.098-0.098-0.245-0.127-0.372-0.074s-0.211 0.177-0.211 0.316v5.767c0 1.551 1.262 2.813 2.812 2.813h5.767c0.138 0 0.263-0.083 0.316-0.211s0.024-0.275-0.074-0.372zM18.022 6.108v-4.942l7.071 7.071h-4.942c-1.174 0-2.129-0.955-2.129-2.129z"></path>
</svg>
