<!-- Generated by IcoMoon.io -->
<svg version="1.1" xmlns="http://www.w3.org/2000/svg" width="32" height="32" viewBox="0 0 32 32">
<title>file-alt</title>
<path fill="none" d="M0 0h32v32h-32v-32z"></path>
<path fill="currentColor" d="M24.892 26.664c0 1.15-0.935 2.085-2.085 2.085h-3.065l-0.827 0.96h3.892c1.682 0 3.045-1.363 3.045-3.045v-5.008l-0.96 1.114v3.894z"></path>
<path fill="currentColor" d="M24.202 26.664v-3.092l-3.864 4.486h2.47c0.769 0 1.394-0.625 1.394-1.394z"></path>
<path fill="currentColor" d="M5.826 24.856c-0.191 0-0.345-0.155-0.345-0.345s0.155-0.345 0.345-0.345h11.003l2.507-2.911h-13.511c-0.191 0-0.345-0.155-0.345-0.345s0.155-0.345 0.345-0.345h14.106l2.507-2.911h-16.613c-0.191 0-0.345-0.155-0.345-0.345s0.155-0.345 0.345-0.345h16.634c0.166 0 0.305 0.117 0.338 0.274l1.404-1.631v-6.934h-4.178c-1.567 0-2.843-1.275-2.843-2.843v-4.178h-12.065c-0.769 0-1.394 0.626-1.394 1.394v23.62c0 0.769 0.626 1.394 1.394 1.394h8.361l2.758-3.202h-10.408zM22.46 13.361c0.191 0 0.345 0.155 0.345 0.345s-0.155 0.345-0.345 0.345h-16.634c-0.191 0-0.345-0.155-0.345-0.345s0.155-0.345 0.345-0.345h16.634zM5.463 4.924c0-0.512 0.415-0.928 0.928-0.928h5.325c0.512 0 0.928 0.415 0.928 0.928v4.688c0 0.512-0.415 0.928-0.928 0.928h-5.325c-0.512 0-0.928-0.415-0.928-0.928v-4.688z"></path>
<path fill="currentColor" d="M29.267 13.708c-0.798-0.687-2.005-0.597-2.692 0.201l-12.707 14.753c-0.002 0.003-0.004 0.007-0.006 0.009-0.019 0.024-0.034 0.050-0.049 0.077-0.006 0.011-0.014 0.021-0.019 0.033-0.017 0.040-0.029 0.082-0.035 0.127l-0.308 2.577c-0.018 0.152 0.041 0.303 0.157 0.403 0.085 0.073 0.192 0.112 0.301 0.112 0.041 0 0.082-0.005 0.122-0.017l2.503-0.687c0.043-0.012 0.083-0.030 0.12-0.053 0.011-0.007 0.019-0.016 0.030-0.024 0.025-0.018 0.049-0.037 0.069-0.060 0.003-0.003 0.006-0.004 0.008-0.007l12.707-14.753c0.687-0.797 0.597-2.005-0.201-2.692zM28.77 15.799l-12.407 14.404-1.497-1.289 12.407-14.404c0.355-0.412 0.981-0.459 1.393-0.104s0.459 0.98 0.104 1.393z"></path>
<path fill="currentColor" d="M24.892 14.804l0.96-1.114v-5.018h-0.96z"></path>
<path fill="currentColor" d="M17.181 0h-12.066c-1.682 0-3.045 1.363-3.045 3.045v23.62c0 1.682 1.363 3.045 3.045 3.045h7.853l0.115-0.96h-7.968c-1.15 0-2.085-0.935-2.085-2.085v-23.62c0-1.15 0.935-2.085 2.085-2.085h12.065v-0.96c0 0 0 0 0 0z"></path>
<path fill="currentColor" d="M17.872 5.691v-5.345l7.636 7.636h-5.345c-1.265 0-2.29-1.025-2.29-2.29z"></path>
</svg>
