<!-- Generated by IcoMoon.io -->
<svg version="1.1" xmlns="http://www.w3.org/2000/svg" width="24" height="32" viewBox="0 0 24 32">
<title>file-code</title>
<path d="M4 0c-2.206 0-4 1.794-4 4v24c0 2.206 1.794 4 4 4h16c2.206 0 4-1.794 4-4v-18h-8c-1.106 0-2-0.894-2-2v-8h-10zM16 0v8h8l-8-8zM9.563 18.063l-1.938 1.938 1.938 1.938c0.588 0.587 0.588 1.538 0 2.119s-1.537 0.587-2.119 0l-3.006-2.994c-0.587-0.587-0.587-1.538 0-2.119l3-3c0.588-0.588 1.537-0.588 2.119 0s0.588 1.538 0 2.119zM16.563 15.938l3 3c0.587 0.587 0.587 1.538 0 2.119l-3 3c-0.588 0.587-1.537 0.587-2.119 0s-0.588-1.538 0-2.119l1.938-1.938-1.938-1.938c-0.588-0.587-0.588-1.538 0-2.119s1.537-0.588 2.119 0z"></path>
</svg>
