<?xml version="1.0" encoding="utf-8"?>
<!-- Generator: Adobe Illustrator 16.0.0, SVG Export Plug-In . SVG Version: 6.00 Build 0)  -->
<!DOCTYPE svg PUBLIC "-//W3C//DTD SVG 1.1//EN" "http://www.w3.org/Graphics/SVG/1.1/DTD/svg11.dtd">
<svg version="1.1" id="Layer_1" xmlns="http://www.w3.org/2000/svg" xmlns:xlink="http://www.w3.org/1999/xlink" x="0px" y="0px"
	 width="1024px" height="1024px" viewBox="0 0 1024 1024" enable-background="new 0 0 1024 1024" xml:space="preserve">
<rect fill="none" width="1024" height="1024"/>
<g>
	<polygon fill="currentColor" points="856.913,0 807,0 807,215 1006,215 1006,165.431 	"/>
	<g>
		<path fill="currentColor" d="M774.087,298C755.791,298,741,282.622,741,264.403V0H277.13C258.834,0,244,15.249,244,33.467v493.867
			l148.681-0.418l-0.183-46.818c-0.214-48.824,29.184-69.947,65.349-46.889L597.373,558.02
			c36.154,23.078,36.313,61.055,0.336,84.378L459.241,760.73c-35.961,23.353-65.552,2.495-65.746-46.309l-0.204-46.849L244,668.007
			v322.192c0,18.22,14.834,33.801,33.13,33.801h695.739c18.296,0,33.131-15.581,33.131-33.801V298H774.087z"/>
		<path fill="currentColor" d="M77.225,527.802c-32.585,0.153-58.866,31.745-58.724,70.608c0.168,38.854,26.729,70.232,59.309,70.08
			L244,668.007V527.334L77.225,527.802z"/>
	</g>
</g>
</svg>
