<!-- Generated by IcoMoon.io -->
<svg version="1.1" xmlns="http://www.w3.org/2000/svg" width="48" height="48" viewBox="0 0 48 48">
<title>filter</title>
<path d="M41.871 6.998c0.256 0.614 0.128 1.329-0.358 1.79l-12.604 12.604v18.97c0 0.665-0.409 1.253-0.997 1.508-0.205 0.077-0.435 0.128-0.639 0.128-0.435 0-0.844-0.153-1.15-0.486l-6.545-6.545c-0.307-0.307-0.486-0.716-0.486-1.15v-12.425l-12.604-12.604c-0.486-0.46-0.614-1.176-0.358-1.79 0.256-0.588 0.844-0.997 1.508-0.997h32.725c0.665 0 1.253 0.409 1.508 0.997z"></path>
</svg>
