<!-- Generated by IcoMoon.io -->
<svg version="1.1" xmlns="http://www.w3.org/2000/svg" width="48" height="48" viewBox="0 0 48 48">
<title>level-down</title>
<path d="M11.723 6h18.003c0.46 0 0.818 0.383 0.818 0.844v22.069h4.91c0.639 0 1.202 0.383 1.483 0.946 0.281 0.588 0.179 1.279-0.23 1.765l-8.183 9.82c-0.614 0.742-1.892 0.742-2.506 0l-8.183-9.82c-0.409-0.486-0.486-1.176-0.23-1.765 0.281-0.563 0.844-0.946 1.483-0.946h4.91v-16.367h-8.183c-0.23 0-0.46-0.102-0.639-0.281l-4.092-4.91c-0.205-0.23-0.23-0.588-0.102-0.869s0.435-0.486 0.742-0.486z"></path>
</svg>
