<!-- Generated by IcoMoon.io -->
<svg version="1.1" xmlns="http://www.w3.org/2000/svg" width="48" height="48" viewBox="0 0 48 48">
<title>person-thin-o</title>
<path d="M17.925 17.925v0 0zM36.037 36.15c1.463 0.562 5.962 2.25 5.962 5.85h-36c0-3.6 4.5-5.287 5.962-5.85s3.488-0.675 4.838-1.013c0.788-0.225 1.912-0.562 2.25-1.013s0.113-4.612 0.113-4.612-0.675-1.125-1.013-2.025-0.788-3.6-0.788-3.6-0.788 0-1.012-1.35c-0.225-1.463-0.675-1.912-0.675-3.038 0-1.013 0.562-1.125 0.562-1.125v0s-0.45-1.463-0.562-4.725c-0.113-3.825 2.813-7.65 8.325-7.65s8.438 3.825 8.325 7.65c-0.113 3.262-0.562 4.725-0.562 4.725v0s0.562 0.113 0.562 1.125c0 1.125-0.338 1.688-0.675 3.15-0.225 1.35-1.013 1.35-1.013 1.35s-0.45 2.587-0.788 3.488-1.012 2.025-1.012 2.025-0.225 4.163 0.113 4.612 1.463 0.788 2.25 1.013c1.35 0.337 3.375 0.45 4.838 1.013zM24 40.2v0h15.412c-0.225-0.338-0.45-0.675-0.9-0.9-0.788-0.562-1.8-1.013-3.038-1.463-0.788-0.225-1.912-0.45-2.925-0.562-0.675-0.113-1.125-0.225-1.688-0.337-0.338-0.113-2.362-0.562-3.262-1.688-0.45-0.562-0.675-1.35-0.675-3.6 0-1.125 0.113-2.25 0.113-2.25v-0.45l0.225-0.45c0.113-0.225 0.675-1.012 0.9-1.688 0.225-0.562 0.562-2.138 0.675-3.15 0 0 0 0.113 0.113-0.45s0.9-0.45 1.012-0.9 0.338-0.788 0.562-2.025-0.562-1.35-0.562-1.912c0-0.45 0.113-0.562 0.113-0.562v0c0-0.113 0.45-1.575 0.45-4.275 0-1.463-0.562-2.925-1.575-3.937-1.237-1.237-2.813-1.8-4.95-1.8-2.025 0-3.825 0.562-5.063 1.8-1.012 1.012-1.463 2.475-1.463 3.937 0.113 2.7 0.45 4.163 0.45 4.275v0s0.113 0.338 0 0.675c-0.113 0.562-0.675 0.562-0.45 1.8s0.45 1.575 0.562 2.025 0.9 0.337 1.013 0.9 0.113 0.45 0.113 0.45c0.113 1.012 0.45 2.587 0.675 3.15 0.225 0.675 0.675 1.463 0.9 1.688l0.225 0.45v0.45s0.113 1.125 0.113 2.25c0 2.25-0.225 3.038-0.675 3.6-0.9 1.125-2.925 1.575-3.262 1.688-0.562 0.113-1.125 0.225-1.8 0.337-1.013 0.113-2.025 0.338-2.813 0.562-1.237 0.45-2.25 0.9-3.038 1.463-0.45 0.225-0.675 0.562-0.9 0.9h15.412z"></path>
</svg>
