<!-- Generated by IcoMoon.io -->
<svg version="1.1" xmlns="http://www.w3.org/2000/svg" width="48" height="48" viewBox="0 0 48 48">
<title>undo</title>
<path d="M21.473 22.245h-12.707c-0.42 0-0.761-0.341-0.761-0.761v-12.707c0-0.42 0.341-0.761 0.761-0.761h3.045c0.42 0 0.761 0.341 0.761 0.761v4.954c2.903-3.224 7.121-5.242 11.809-5.208 8.684 0.063 15.632 7.080 15.613 15.764-0.018 8.672-7.054 15.696-15.73 15.696-4.065 0-7.77-1.542-10.562-4.073-0.323-0.293-0.338-0.796-0.030-1.105l2.154-2.154c0.284-0.284 0.74-0.299 1.040-0.033 1.969 1.742 4.558 2.799 7.396 2.799 6.17 0 11.164-4.993 11.164-11.164 0-6.17-4.993-11.164-11.164-11.164-3.71 0-6.995 1.806-9.024 4.588h6.233c0.42 0 0.761 0.341 0.761 0.761v3.045c0 0.42-0.341 0.761-0.761 0.761z"></path>
</svg>
