<!-- Generated by IcoMoon.io -->
<svg version="1.1" xmlns="http://www.w3.org/2000/svg" width="48" height="48" viewBox="0 0 48 48">
<title>flag</title>
<path d="M10.881 10.191q0 1.554-1.381 2.373v27.317q0 0.281-0.205 0.485t-0.485 0.205h-1.381q-0.281 0-0.485-0.205t-0.205-0.485v-27.317q-1.381-0.82-1.381-2.373 0-1.144 0.809-1.953t1.953-0.809 1.953 0.809 0.809 1.953zM42.643 11.571v16.464q0 0.539-0.27 0.831t-0.852 0.593q-4.639 2.503-7.962 2.503-1.316 0-2.665-0.475t-2.341-1.036-2.492-1.036-3.075-0.475q-4.143 0-10.012 3.15-0.367 0.194-0.712 0.194-0.561 0-0.971-0.41t-0.41-0.971v-16.010q0-0.69 0.669-1.187 0.453-0.302 1.705-0.928 5.092-2.589 9.084-2.589 2.309 0 4.315 0.626t4.726 1.899q0.82 0.41 1.899 0.41 1.165 0 2.535-0.453t2.373-1.014 1.899-1.014 1.176-0.453q0.561 0 0.971 0.41t0.41 0.971z"></path>
</svg>
