<!-- Generated by IcoMoon.io -->
<svg version="1.1" xmlns="http://www.w3.org/2000/svg" width="48" height="48" viewBox="0 0 48 48">
<title>check</title>
<path d="M41.476 15.837c0 0.564-0.225 1.127-0.631 1.533l-19.393 19.393c-0.406 0.406-0.97 0.631-1.533 0.631s-1.127-0.225-1.533-0.631l-11.23-11.23c-0.406-0.406-0.631-0.97-0.631-1.533s0.225-1.127 0.631-1.533l3.067-3.067c0.406-0.406 0.97-0.631 1.533-0.631s1.127 0.225 1.533 0.631l6.63 6.652 14.793-14.815c0.406-0.406 0.97-0.631 1.533-0.631s1.127 0.225 1.533 0.631l3.067 3.067c0.406 0.406 0.631 0.97 0.631 1.533z"></path>
</svg>
