<?xml version="1.0" encoding="utf-8"?>
<!-- Generator: Adobe Illustrator 16.0.0, SVG Export Plug-In . SVG Version: 6.00 Build 0)  -->
<!DOCTYPE svg PUBLIC "-//W3C//DTD SVG 1.1//EN" "http://www.w3.org/Graphics/SVG/1.1/DTD/svg11.dtd">
<svg version="1.1" id="Layer_1" xmlns="http://www.w3.org/2000/svg" xmlns:xlink="http://www.w3.org/1999/xlink" x="0px" y="0px"
	 width="1024px" height="1024px" viewBox="0 0 1024 1024" enable-background="new 0 0 1024 1024" xml:space="preserve">
<rect fill="none" width="1024" height="1024"/>
<g>
	<path fill="currentColor" d="M667.365,0h-45.746H209.895C165.01,0,133,25.73,133,61.677v885.116c0,37.794,39.13,77.207,76.895,77.207
		h640.461c35.918,0,61.645-32.291,61.645-77.207V321.108v-45.783V169.187L760.646,0H667.365z M835,948H213.29
		c-1.162-1-3.29-3.443-3.29-4.606V76h381v199.325C591,313.119,629.601,351,667.365,351H835V948z M835,275H670.761
		c-1.161,0-2.761-1.895-2.761-3.072V76h58.575L835,198.337V275z"/>
	<path fill="currentColor" d="M584.241,542.73c-8.95,9.447-8.95,25.453,0,34.483c45.568,45.604,45.568,119.075,0,164.246
		c-8.95,9.462-8.95,25.245,0,34.501c4.824,4.857,11.139,7.078,17.006,7.078c6.211,0,12.628-2.563,17.274-7.527
		c64.868-63.604,64.868-168.446,0.507-232.781C609.706,533.475,593.921,533.475,584.241,542.73z"/>
	<path fill="currentColor" d="M347,586.872v145.69C347,743.858,359.436,749,370.665,749H424V566h-53.335
		C359.436,566,347,575.218,347,586.872z"/>
	<path fill="currentColor" d="M516.432,508.676L454,559.211v200.981l62.432,50.208C530.52,820.847,545,811.131,545,793.62V525.516
		C545,507.99,529.773,498.274,516.432,508.676z"/>
</g>
</svg>
