<!-- Generated by IcoMoon.io -->
<svg version="1.1" xmlns="http://www.w3.org/2000/svg" width="48" height="48" viewBox="0 0 48 48">
<title>level-up</title>
<path d="M36.947 18.124c-0.281 0.589-0.844 0.947-1.484 0.947h-4.914v22.111c0 0.461-0.358 0.819-0.819 0.819h-18.016c-0.307 0-0.614-0.179-0.742-0.461-0.128-0.307-0.102-0.64 0.102-0.896l4.095-4.914c0.154-0.179 0.41-0.281 0.64-0.281h8.189v-16.378h-4.914c-0.64 0-1.203-0.358-1.484-0.947-0.256-0.563-0.179-1.254 0.23-1.74l8.189-9.827c0.614-0.742 1.894-0.742 2.508 0l8.189 9.827c0.41 0.486 0.512 1.177 0.23 1.74z"></path>
</svg>
