<!-- Generated by IcoMoon.io -->
<svg version="1.1" xmlns="http://www.w3.org/2000/svg" width="24" height="32" viewBox="0 0 24 32">
<title>file-csv</title>
<path d="M4 0c-2.206 0-4 1.794-4 4v24c0 2.206 1.794 4 4 4h16c2.206 0 4-1.794 4-4v-18h-8c-1.106 0-2-0.894-2-2v-8h-10zM16 0v8h8l-8-8zM5 14h1c1.381 0 2.5 1.119 2.5 2.5v0.5c0 0.55-0.45 1-1 1s-1-0.45-1-1v-0.5c0-0.275-0.225-0.5-0.5-0.5h-1c-0.275 0-0.5 0.225-0.5 0.5v5c0 0.275 0.225 0.5 0.5 0.5h1c0.275 0 0.5-0.225 0.5-0.5v-0.5c0-0.55 0.45-1 1-1s1 0.45 1 1v0.5c0 1.381-1.119 2.5-2.5 2.5h-1c-1.381 0-2.5-1.119-2.5-2.5v-5c0-1.381 1.119-2.5 2.5-2.5zM9.5 16.9c0-1.6 1.3-2.9 2.9-2.9h1.1c0.55 0 1 0.45 1 1s-0.45 1-1 1h-1.1c-0.494 0-0.9 0.4-0.9 0.9 0 0.325 0.175 0.619 0.45 0.781l1.588 0.906c0.9 0.519 1.463 1.475 1.463 2.519 0 1.6-1.3 2.9-2.9 2.9h-1.6c-0.55 0-1-0.45-1-1s0.45-1 1-1h1.6c0.494 0 0.9-0.4 0.9-0.9 0-0.325-0.175-0.619-0.45-0.781l-1.588-0.906c-0.906-0.519-1.463-1.481-1.463-2.519zM17.5 15v1.975c0 1.438 0.344 2.85 1 4.125 0.656-1.269 1-2.681 1-4.125v-1.975c0-0.55 0.45-1 1-1s1 0.45 1 1v1.975c0 2.169-0.644 4.294-1.85 6.1l-0.319 0.481c-0.188 0.281-0.5 0.444-0.831 0.444s-0.644-0.169-0.831-0.444l-0.319-0.481c-1.206-1.806-1.85-3.931-1.85-6.1v-1.975c0-0.55 0.45-1 1-1s1 0.45 1 1z"></path>
</svg>
