<!-- Generated by IcoMoon.io -->
<svg version="1.1" xmlns="http://www.w3.org/2000/svg" width="48" height="48" viewBox="0 0 48 48">
<title>question-circle</title>
<path d="M24 6c-9.936 0-18 8.064-18 18s8.064 18 18 18 18-8.064 18-18-8.064-18-18-18zM25.8 36.6h-3.6v-3.6h3.6v3.6zM29.526 22.65l-1.62 1.656c-1.296 1.314-2.106 2.394-2.106 5.094h-3.6v-0.9c0-1.98 0.81-3.78 2.106-5.094l2.232-2.268c0.666-0.648 1.062-1.548 1.062-2.538 0-1.98-1.62-3.6-3.6-3.6s-3.6 1.62-3.6 3.6h-3.6c0-3.978 3.222-7.2 7.2-7.2s7.2 3.222 7.2 7.2c0 1.584-0.648 3.024-1.674 4.050z"></path>
</svg>
