<!-- Generated by IcoMoon.io -->
<svg version="1.1" xmlns="http://www.w3.org/2000/svg" width="48" height="48" viewBox="0 0 48 48">
<title>flag-o</title>
<path d="M39.881 27.215v-13.292q-3.647 1.963-6.603 1.963-1.769 0-3.129-0.69-2.158-1.057-3.97-1.651t-3.841-0.593q-3.733 0-8.696 2.74v12.925q5.286-2.438 9.343-2.438 1.187 0 2.233 0.162t2.115 0.561 1.661 0.669 1.78 0.852l0.604 0.302q0.949 0.475 2.179 0.475 2.589 0 6.322-1.985zM10.881 10.19q0 0.755-0.378 1.381t-1.003 0.993v27.317q0 0.302-0.194 0.496t-0.496 0.194h-1.381q-0.302 0-0.496-0.194t-0.194-0.496v-27.317q-0.626-0.367-1.003-0.993t-0.378-1.381q0-1.144 0.809-1.953t1.953-0.809 1.953 0.809 0.809 1.953zM42.643 11.571v16.464q0 0.842-0.755 1.23-0.216 0.108-0.367 0.194-4.704 2.503-7.962 2.503-1.899 0-3.409-0.755l-0.604-0.302q-1.381-0.712-2.136-1.036t-1.964-0.626-2.46-0.302q-2.201 0-5.081 0.949t-4.93 2.201q-0.324 0.194-0.712 0.194-0.345 0-0.69-0.173-0.69-0.41-0.69-1.208v-16.010q0-0.755 0.669-1.187 0.755-0.453 1.694-0.917t2.46-1.122 3.291-1.068 3.344-0.41q2.417 0 4.51 0.669t4.51 1.856q0.82 0.41 1.92 0.41 2.632 0 6.689-2.417 0.475-0.259 0.669-0.367 0.669-0.345 1.338 0.043 0.669 0.431 0.669 1.187z"></path>
</svg>
