<?xml version="1.0" encoding="utf-8"?>
<!-- Generator: Adobe Illustrator 16.0.0, SVG Export Plug-In . SVG Version: 6.00 Build 0)  -->
<!DOCTYPE svg PUBLIC "-//W3C//DTD SVG 1.1//EN" "http://www.w3.org/Graphics/SVG/1.1/DTD/svg11.dtd">
<svg version="1.1" id="Layer_1" xmlns="http://www.w3.org/2000/svg" xmlns:xlink="http://www.w3.org/1999/xlink" x="0px" y="0px"
	 width="1024px" height="1024px" viewBox="0 0 1024 1024" enable-background="new 0 0 1024 1024" xml:space="preserve">
<rect fill="none" width="1024" height="1024"/>
<g>
	<path fill="currentColor" d="M661.087,298C642.791,298,628,282.622,628,264.403V0H164.13C145.834,0,131,15.249,131,33.467v956.732
		c0,18.22,14.834,33.801,33.13,33.801h695.739c18.296,0,33.131-15.581,33.131-33.801V298H661.087z M683.637,694.881l-130.72,146.134
		c-24.171,37.867-63.947,38.032-88.373,0.353L340.607,696.343c-24.459-37.664-2.613-68.656,48.501-68.854l49.067-0.219
		l-0.96-112.327c-0.16-34.123,32.705-61.941,73.398-62.118c40.704-0.149,73.792,27.375,73.952,61.505l0.927,112.3l49.036-0.188
		C685.664,626.215,707.787,657.005,683.637,694.881z"/>
	<polygon fill="currentColor" points="743.913,0 694,0 694,215 893,215 893,165.431 	"/>
</g>
</svg>
