<!-- Generated by IcoMoon.io -->
<svg version="1.1" xmlns="http://www.w3.org/2000/svg" width="48" height="48" viewBox="0 0 48 48">
<title>info</title>
<path d="M30.364 34.182v2.545c0 0.696-0.577 1.273-1.273 1.273h-10.182c-0.696 0-1.273-0.577-1.273-1.273v-2.545c0-0.696 0.577-1.273 1.273-1.273h1.273v-7.636h-1.273c-0.696 0-1.273-0.577-1.273-1.273v-2.545c0-0.696 0.577-1.273 1.273-1.273h7.637c0.696 0 1.273 0.577 1.273 1.273v11.455h1.273c0.696 0 1.273 0.577 1.273 1.273zM27.818 11.273v3.818c0 0.696-0.577 1.273-1.273 1.273h-5.091c-0.696 0-1.273-0.577-1.273-1.273v-3.818c0-0.696 0.577-1.273 1.273-1.273h5.091c0.696 0 1.273 0.577 1.273 1.273z"></path>
</svg>
