<!-- Generated by IcoMoon.io -->
<svg version="1.1" xmlns="http://www.w3.org/2000/svg" width="48" height="48" viewBox="0 0 48 48">
<title>question</title>
<path d="M28.108 34.125v6.75c0 0.619-0.506 1.125-1.125 1.125h-6.75c-0.619 0-1.125-0.506-1.125-1.125v-6.75c0-0.619 0.506-1.125 1.125-1.125h6.75c0.619 0 1.125 0.506 1.125 1.125zM36.996 17.25c0 5.344-3.628 7.397-6.3 8.888-1.659 0.956-2.7 2.897-2.7 3.713v0c0 0.619-0.478 1.35-1.125 1.35h-6.75c-0.619 0-1.012-0.956-1.012-1.575v-1.266c0-3.403 3.375-6.328 5.85-7.453 2.166-0.984 3.066-1.912 3.066-3.713 0-1.575-2.053-2.981-4.331-2.981-1.266 0-2.419 0.394-3.037 0.815-0.675 0.478-1.35 1.153-3.009 3.234-0.225 0.281-0.562 0.45-0.872 0.45-0.253 0-0.478-0.084-0.703-0.225l-4.612-3.516c-0.478-0.366-0.591-0.984-0.281-1.491 3.038-5.034 7.312-7.481 13.050-7.481 6.019 0 12.769 4.809 12.769 11.25z"></path>
</svg>
