<?xml version="1.0" encoding="utf-8"?>
<!-- Generator: Adobe Illustrator 16.0.0, SVG Export Plug-In . SVG Version: 6.00 Build 0)  -->
<!DOCTYPE svg PUBLIC "-//W3C//DTD SVG 1.1//EN" "http://www.w3.org/Graphics/SVG/1.1/DTD/svg11.dtd">
<svg version="1.1" id="Layer_1" xmlns="http://www.w3.org/2000/svg" xmlns:xlink="http://www.w3.org/1999/xlink" x="0px" y="0px"
	 width="1024px" height="1024px" viewBox="0 0 1024 1024" enable-background="new 0 0 1024 1024" xml:space="preserve">
<rect fill="none" width="1024" height="1024"/>
<g>
	<path fill="currentColor" d="M667.365,0h-45.746H209.895C165.01,0,133,25.73,133,61.677v885.116c0,37.794,39.13,77.207,76.895,77.207
		h640.461c35.918,0,61.645-32.291,61.645-77.207V321.108v-45.783V169.187L760.646,0H667.365z M835,948H213.29
		c-1.162-1-3.29-3.443-3.29-4.606V76h381v199.325C591,313.119,629.601,351,667.365,351H835V948z M835,275H670.761
		c-1.161,0-2.761-1.895-2.761-3.072V76h58.575L835,198.337V275z"/>
</g>
<path fill="currentColor" d="M712.469,556.54c-9.715-9.717-25.363-9.717-35.079,0L580,654.012V582.43c0-15.701-12.728-28.43-28.429-28.43
	H338.429C322.728,554,310,566.729,310,582.43V795.57c0,15.701,12.728,28.43,28.429,28.43h213.143
	C567.272,824,580,811.271,580,795.57v-72.588l97.484,97.472c9.716,9.716,25.281,9.716,34.984,0l1.531-1.722V558.262L712.469,556.54z
	"/>
</svg>
