<!-- Generated by IcoMoon.io -->
<svg version="1.1" xmlns="http://www.w3.org/2000/svg" width="32" height="32" viewBox="0 0 32 32">
<title>options-v</title>
<path d="M9 28v-14.172c1.175-0.425 1.999-1.53 1.999-2.828s-0.824-2.404-1.978-2.822l-0.021-0.007v-4.172c0-0.552-0.448-1-1-1s-1 0.448-1 1v0 4.172c-1.175 0.425-1.999 1.53-1.999 2.828s0.824 2.404 1.978 2.822l0.021 0.007v14.172c0 0.552 0.448 1 1 1s1-0.448 1-1v0zM23 4v4.172c-1.175 0.425-1.999 1.53-1.999 2.828s0.824 2.404 1.978 2.822l0.021 0.007v14.172c0 0.552 0.448 1 1 1s1-0.448 1-1v0-14.172c1.175-0.425 1.999-1.53 1.999-2.828s-0.824-2.404-1.978-2.822l-0.021-0.007v-4.172c0-0.552-0.448-1-1-1s-1 0.448-1 1v0zM15 4v14.172c-1.175 0.425-1.999 1.53-1.999 2.828s0.824 2.404 1.978 2.822l0.021 0.007v4.172c0 0.552 0.448 1 1 1s1-0.448 1-1v0-4.172c1.175-0.425 1.999-1.53 1.999-2.828s-0.824-2.404-1.978-2.822l-0.021-0.007v-14.172c0-0.552-0.448-1-1-1s-1 0.448-1 1v0z"></path>
</svg>
