<!-- Generated by IcoMoon.io -->
<svg version="1.1" xmlns="http://www.w3.org/2000/svg" width="24" height="32" viewBox="0 0 24 32">
<title>file-waveform</title>
<path d="M4 0c-2.206 0-4 1.794-4 4v14h7c0.381 0 0.725 0.212 0.894 0.55l1.106 2.212 3.106-6.213c0.169-0.338 0.512-0.55 0.894-0.55s0.725 0.213 0.894 0.55l1.725 3.45h4.381c0.55 0 1 0.45 1 1s-0.45 1-1 1h-5c-0.381 0-0.725-0.212-0.894-0.55l-1.106-2.212-3.106 6.213c-0.169 0.337-0.519 0.55-0.894 0.55s-0.725-0.212-0.894-0.55l-1.725-3.45h-6.381v8c0 2.206 1.794 4 4 4h16c2.206 0 4-1.794 4-4v-18h-8c-1.106 0-2-0.894-2-2v-8h-10zM16 0v8h8l-8-8z"></path>
</svg>
