<svg width="48" height="48" viewBox="0 0 48 48" xmlns="http://www.w3.org/2000/svg"><g fill-rule="evenodd"><path d="M31.011 7.42a17.808 17.808 0 015.715 3.854 17.817 17.817 0 013.854 5.715A17.877 17.877 0 0142 24c0 2.435-.48 4.793-1.42 7.013a17.86 17.86 0 01-3.854 5.715A17.945 17.945 0 0124 42c-2.435 0-4.795-.479-7.013-1.418a17.84 17.84 0 01-5.715-3.854 17.933 17.933 0 01-3.854-5.715A17.886 17.886 0 016 24c0-2.434.479-4.793 1.418-7.011a17.817 17.817 0 013.854-5.715 17.932 17.932 0 015.715-3.854A17.85 17.85 0 0124 6c2.434 0 4.793.479 7.011 1.42zm1.558-3.684a21.764 21.764 0 016.985 4.71 21.772 21.772 0 014.71 6.985A21.85 21.85 0 0146 24.001c0 2.976-.587 5.858-1.736 8.57a21.826 21.826 0 01-4.71 6.985 21.926 21.926 0 01-6.985 4.71A21.848 21.848 0 0124 46c-2.977 0-5.86-.585-8.571-1.734a21.796 21.796 0 01-6.985-4.71 21.917 21.917 0 01-4.71-6.985A21.862 21.862 0 012 24.001c0-2.975.585-5.86 1.734-8.57a21.776 21.776 0 014.71-6.985 21.916 21.916 0 016.985-4.71A21.815 21.815 0 0124 2c2.974 0 5.859.585 8.569 1.736z"/><path d="M36.726 11.274a17.808 17.808 0 00-5.715-3.854A17.847 17.847 0 0024.001 6a17.85 17.85 0 00-7.014 1.42c-2.133.902-4.06 2.2-5.715 3.854a17.817 17.817 0 00-3.854 5.715A17.877 17.877 0 006 24c0 2.435.479 4.793 1.418 7.013.902 2.133 2.2 4.06 3.854 5.715a17.84 17.84 0 005.715 3.854A17.878 17.878 0 0024 42a17.945 17.945 0 0012.726-5.272 17.86 17.86 0 003.854-5.715C41.52 28.793 42 26.435 42 24c0-2.434-.48-4.793-1.42-7.011a17.817 17.817 0 00-3.854-5.715zm2.828-2.828a21.764 21.764 0 00-6.985-4.71A21.812 21.812 0 0024 2c-2.977 0-5.86.585-8.571 1.736a21.916 21.916 0 00-6.985 4.71 21.776 21.776 0 00-4.71 6.985A21.85 21.85 0 002 24.001c0 2.976.585 5.858 1.734 8.57a21.917 21.917 0 004.71 6.985 21.796 21.796 0 006.985 4.71A21.852 21.852 0 0024 46c2.974 0 5.859-.585 8.569-1.734a21.926 21.926 0 006.985-4.71 21.826 21.826 0 004.71-6.985A21.863 21.863 0 0046 24.001a21.85 21.85 0 00-1.736-8.57 21.772 21.772 0 00-4.71-6.985z"/><path d="M18 33V15l16 9z"/></g></svg>