<!-- Generated by IcoMoon.io -->
<svg version="1.1" xmlns="http://www.w3.org/2000/svg" width="48" height="48" viewBox="0 0 48 48">
<title>logout-thin</title>
<path d="M32.92 29.464l4.179-4.179h-18.241v-2.571h18.241l-4.179-4.179 1.768-1.848 7.312 7.312-7.312 7.312zM34.848 34.929c0.241-0.241 0.482-0.402 0.643-0.643h3.295c-3.214 4.661-8.678 7.714-14.786 7.714-9.964 0-18-8.036-18-18s8.036-18 18-18c6.107 0 11.572 3.054 14.786 7.714h-3.295c-0.161-0.241-0.402-0.402-0.643-0.643-2.893-2.893-6.75-4.5-10.848-4.5s-8.036 1.607-10.929 4.5-4.5 6.83-4.5 10.929 1.607 8.036 4.5 10.929 6.83 4.5 10.929 4.5 7.955-1.607 10.848-4.5z"></path>
</svg>
