<!-- Generated by IcoMoon.io -->
<svg version="1.1" xmlns="http://www.w3.org/2000/svg" width="48" height="48" viewBox="0 0 48 48">
<title>exclamation</title>
<path d="M28.909 34.636v5.727c0 0.895-0.741 1.636-1.636 1.636h-6.545c-0.895 0-1.636-0.741-1.636-1.636v-5.727c0-0.895 0.741-1.636 1.636-1.636h6.545c0.895 0 1.636 0.741 1.636 1.636zM29.676 7.636l-0.716 19.636c-0.026 0.895-0.793 1.636-1.688 1.636h-6.545c-0.895 0-1.662-0.741-1.688-1.636l-0.716-19.636c-0.026-0.895 0.69-1.636 1.585-1.636h8.182c0.895 0 1.611 0.741 1.585 1.636z"></path>
</svg>
