<?xml version="1.0" encoding="utf-8"?>
<!-- Generator: Adobe Illustrator 16.0.0, SVG Export Plug-In . SVG Version: 6.00 Build 0)  -->
<!DOCTYPE svg PUBLIC "-//W3C//DTD SVG 1.1//EN" "http://www.w3.org/Graphics/SVG/1.1/DTD/svg11.dtd">
<svg version="1.1" id="Layer_1" xmlns="http://www.w3.org/2000/svg" xmlns:xlink="http://www.w3.org/1999/xlink" x="0px" y="0px"
	 width="1024px" height="1024px" viewBox="0 0 1024 1024" enable-background="new 0 0 1024 1024" xml:space="preserve">
<rect fill="none" width="1024" height="1024"/>
<path fill-rule="evenodd" clip-rule="evenodd" fill="currentColor" d="M783.335,774.132c-20.385-2.9-40.854-1.969-61.296-2.162
	c-27.327-0.246-25.572,2.516-25.626-25.019c-0.027-13.363,0.247-26.742-0.193-40.078c-1.151-34.264-22.252-62.35-54.998-71.95
	c-9.535-2.805-12.225-6.828-10.934-16.511c16.818-126.173,33.434-252.373,49.799-378.608c3.855-29.731,9.192-59.25,5.172-89.692
	C674.037,65.147,595.057-2.823,509.671,0.09c-104.635,3.563-182.324,93.193-170.02,197.111
	c6.846,57.854,15.078,115.544,22.678,173.311c10.824,82.415,21.524,164.868,32.583,247.259c1.303,9.697-0.741,14.334-11.14,17.33
	c-33.9,9.765-55.191,38.299-56.179,73.398c-0.385,14.091-0.137,28.206-0.165,42.31c-0.042,21.105-0.042,21.105-20.661,21.134
	c-13.39,0.027-26.807-0.177-40.196,0.081c-93.549,1.889-165.313,69.517-172.516,162.465c-2.085,26.905,9.822,40.42,37.054,41.404
	c13.39,0.492,26.808,0.355,40.198,0.192c7.983-0.097,12.319,1.626,11.537,11.354c-1.249,15.538,5.611,27.406,17.862,32.658
	c7.093,3.05,14.556,3.903,21.992,3.903c96.417,0,192.833,0,289.249,0c5.214,0,10.427,0,15.64,0
	c92.328,0,184.658-1.086,276.972-1.222c25.86-0.027,36.781-11.543,36.356-37.204c-0.124-7.727,3.826-8.979,9.548-9.06
	c16.01-0.193,32.061,0.206,48.002-0.777c22.252-1.38,32.775-13.5,32.542-35.55C930.142,859.429,864.497,785.731,783.335,774.132z
	 M387.929,711.865c0.329-12.285,5.57-17.892,17.917-17.919c69.144-0.247,138.287-0.247,207.417-0.014
	c12.195,0.041,17.752,5.843,18.067,17.905c0.398,15.922-0.15,31.884,0.247,47.807c0.247,9.166-3.596,12.434-12.594,12.379
	c-36.425-0.271-72.848-0.109-109.285-0.109c-36.053,0-72.121-0.217-108.174,0.15c-9.974,0.099-14.227-3.296-13.883-13.513
	C388.148,742.998,387.531,727.419,387.929,711.865z M852.589,913.06c-3.718,0.083-7.437-1.06-11.167-1.06
	c-109.806,0-219.612,0-329.433,0c-109.436,0-218.885,0-328.322,0c-4.102,0-8.189,1.212-12.278,1.02
	c-10.413-0.52-12.209-2.254-7.724-11.885c18.41-39.57,49.553-61.702,93.028-66.846c5.516-0.656,11.153-0.395,16.737-0.395
	c159.318-0.03,318.636,0.258,477.967-0.123c39.072-0.083,71.092,13.391,95.896,43.594c5.707,6.949,10.18,14.134,13.829,22.261
	C866.335,911.253,864.964,912.801,852.589,913.06z"/>
</svg>
