<!-- Generated by IcoMoon.io -->
<svg version="1.1" xmlns="http://www.w3.org/2000/svg" width="48" height="48" viewBox="0 0 48 48">
<title>image-add</title>
<path d="M36.316 15.474v5.665s-3.771 0.019-3.789 0v-5.665h-5.684s0.019-3.771 0-3.789h5.684v-5.684h3.789v5.684h5.684v3.789h-5.684zM30.632 23.053v-5.684h-5.684v-5.684h-15.158c-2.084 0-3.789 1.705-3.789 3.789v22.737c0 2.084 1.705 3.789 3.789 3.789h22.737c2.084 0 3.789-1.705 3.789-3.789v-15.158h-5.684zM9.789 38.211l5.684-7.579 3.789 5.684 5.684-7.579 7.579 9.474h-22.737z"></path>
</svg>
