<?xml version="1.0" encoding="utf-8"?>
<!-- Generator: Adobe Illustrator 16.0.0, SVG Export Plug-In . SVG Version: 6.00 Build 0)  -->
<!DOCTYPE svg PUBLIC "-//W3C//DTD SVG 1.1//EN" "http://www.w3.org/Graphics/SVG/1.1/DTD/svg11.dtd">
<svg version="1.1" id="Layer_1" xmlns="http://www.w3.org/2000/svg" xmlns:xlink="http://www.w3.org/1999/xlink" x="0px" y="0px"
	 width="1024px" height="1024px" viewBox="0 0 1024 1024" enable-background="new 0 0 1024 1024" xml:space="preserve">
<rect fill="none" width="1024" height="1024"/>
<g>
	<g>
		<path fill="currentColor" d="M661.087,298C642.791,298,628,282.622,628,264.403V0H164.13C145.834,0,131,15.249,131,33.467v956.732
			c0,18.22,14.834,33.801,33.13,33.801h695.739c18.296,0,33.131-15.581,33.131-33.801V298H661.087z M352.667,889.791V400.988
			h155.479c74.624,0,129.868,12.979,165.601,38.892c35.713,25.913,53.558,66.404,53.558,121.497
			c0,49.49-17.152,88.144-51.459,115.875c-34.306,27.773-81.828,41.658-142.544,41.658h-50.42v170.881H352.667z M482.881,493.438
			v133.047h33.635c53.688,0,80.509-22.41,80.509-67.227c0-43.888-26.821-65.82-80.509-65.82H482.881z"/>
	</g>
	<polygon fill="currentColor" points="743.913,0 694,0 694,215 893,215 893,165.431 	"/>
</g>
</svg>
