<!-- Generated by IcoMoon.io -->
<svg version="1.1" xmlns="http://www.w3.org/2000/svg" width="48" height="48" viewBox="0 0 48 48">
<title>redo</title>
<path d="M39.234 8.016h-3.007c-0 0-0 0-0.001 0-0.42 0-0.761 0.341-0.761 0.761 0 0.013 0 0.025 0.001 0.038l-0-0.002 0.254 5.249c-2.897-3.398-7.181-5.539-11.966-5.539-0.006 0-0.012 0-0.018 0h0.001c-8.668 0-15.737 7.074-15.731 15.743 0.006 8.682 7.047 15.719 15.731 15.719 0.006 0 0.014 0 0.022 0 4.054 0 7.749-1.539 10.532-4.065l-0.013 0.012c0.156-0.14 0.254-0.342 0.254-0.567 0-0.21-0.085-0.401-0.223-0.538l-2.157-2.157c-0.138-0.138-0.328-0.223-0.538-0.223-0.192 0-0.368 0.071-0.502 0.189l0.001-0.001c-1.956 1.727-4.542 2.782-7.374 2.782-6.165 0-11.164-4.998-11.164-11.164s4.998-11.164 11.164-11.164c3.843 0 7.232 1.942 9.241 4.898l0.025 0.039-6.44-0.309c-0.011-0-0.024-0.001-0.036-0.001-0.42 0-0.761 0.341-0.761 0.761 0 0 0 0.001 0 0.001v-0 3.007c0 0.42 0.341 0.761 0.761 0.761v0h12.707c0.42 0 0.761-0.341 0.761-0.761v0-12.708c0-0.42-0.341-0.761-0.761-0.761v0z"></path>
</svg>
