<svg xmlns="http://www.w3.org/2000/svg" width="32" height="32" viewBox="0 0 24 24"><path d="M14.75 7.418c4.047 0 7.332-1.234 7.332-2.75 0-1.52-3.285-2.75-7.332-2.75s-7.332 1.23-7.332 2.75c0 1.516 3.285 2.75 7.332 2.75Zm3.668 3.664c2.05-.426 3.664-.875 3.664-1.832V7.418c-1.215.988-3.3 1.52-5.5 1.644 1.012.563 1.535 1.086 1.836 2.02ZM9.25 14.75c3.207 0 7.332-1.14 7.332-3.207 0-2.07-3.664-3.211-7.332-3.211-3.668 0-7.332 1.14-7.332 3.211 0 2.066 4.125 3.207 7.332 3.207Zm9.168 0c2.187-.414 3.664-.95 3.664-1.832v-1.836c-.457.918-2.75 1.836-3.664 1.836ZM9.25 18.418c4.047 0 7.332-1.352 7.332-2.75v-1.836c-1.574 1.348-4.465 2.047-7.332 2.047s-5.758-.7-7.332-2.047v1.836c0 1.398 3.285 2.75 7.332 2.75Zm0 3.664c4.047 0 7.332-1.23 7.332-2.746V17.5c-1.574 1.25-4.46 1.836-7.332 1.836-2.871 0-5.758-.586-7.332-1.836v1.836c0 1.516 3.285 2.746 7.332 2.746Zm0 0"/></svg>