<svg xmlns="http://www.w3.org/2000/svg" viewBox="0 0 24 24" style="enable-background:new 0 0 24 24" xml:space="preserve"><path d="M15 8c1.7 0 3 1.3 3 3s-1.3 3-3 3c-1.3 0-2.4-.8-2.8-2h-.7l-1.3 3 1.3 3h4.7c.4-1.2 1.5-2 2.8-2 1.7 0 3 1.3 3 3s-1.3 3-3 3c-1.3 0-2.4-.9-2.8-2h-5.3c-.1 0-.2 0-.3-.1-.3-.2-.7-.5-.8-.8L8.4 16H3c-.5 0-1-.4-1-1s.5-1 1-1h5.4l1.3-3.1c.1-.3.5-.7.9-.8h1.6C12.6 8.8 13.7 8 15 8zm4-6c1.7 0 3 1.3 3 3s-1.3 3-3 3c-1.3 0-2.4-.8-2.8-2H8.4L7 9.3c-.1.2-.1.3-.3.4-.1.2-.4.3-.7.3H3c-.5 0-1-.5-1-1s.5-1 1-1h2.4l1.3-3.1c.1-.3.5-.7.9-.8H7.9C7.9 4 8 4 8 4h8.2c.4-1.2 1.5-2 2.8-2z"/></svg>