<svg xmlns="http://www.w3.org/2000/svg" viewBox="0 0 24 24" style="enable-background:new 0 0 24 24" xml:space="preserve"><path d="M15.4 10.2c-.9 1.3-1.7 1.7-2.2 2.6-.3.5-.4.8-.4 1.2v.4c0 .6-.5 1-1 1-.6 0-1-.4-1-1v-1c0-.4.1-.9.4-1.2.6-1 1.7-1.6 2.3-2.5.7-1 .3-2.7-1.6-2.7-.9 0-1.4.5-1.8 1-.3.1-.9.3-1.3.1-.6-.3-.8-1-.5-1.5.7-1 1.9-1.8 3.5-1.8 1.7 0 2.9.8 3.5 1.8.6.8.9 2.4.1 3.6m-3.6 9c-.7 0-1.2-.6-1.2-1.2s.6-1.2 1.2-1.2c.7 0 1.2.6 1.2 1.2s-.6 1.2-1.2 1.2M12 2C6.5 2 2 6.5 2 12s4.5 10 10 10 10-4.5 10-10S17.5 2 12 2"/></svg>