<svg xmlns="http://www.w3.org/2000/svg" viewBox="0 0 24 24" style="enable-background:new 0 0 24 24" xml:space="preserve"><path d="M12 17c-2.7 0-4.9-2.2-4.9-4.9s2.2-5 4.9-5 5 2.2 5 5c0 2.6-2.3 4.9-5 4.9zm7.9-4.1c0-.3.1-.6.1-.9v-.9l1.6-1.2c.4-.3.5-.9.3-1.3L20 5.4c-.3-.4-.8-.6-1.3-.4l-1.8.7c-.5-.4-1.1-.8-1.7-1L15 2.9c-.1-.5-.5-.9-1-.9h-3.8c-.5 0-1 .4-1 .9l-.4 1.8c-.6.3-1.2.6-1.7 1L5.3 5c-.5-.2-1 0-1.3.4L2.1 8.6c-.2.5-.1 1 .3 1.3L4 11.1v.9c0 .3 0 .6.1.9l-1.6 1.2c-.5.3-.6.9-.4 1.3L4 18.6c.3.4.8.6 1.3.4l1.8-.7c.5.4 1.1.8 1.7 1l.2 1.8c.1.5.5.9 1 .9h3.8c.5 0 1-.4 1-.9l.2-1.8c.6-.3 1.2-.6 1.7-1l1.8.7c.5.2 1 0 1.3-.4l1.9-3.2c.3-.4.1-1-.3-1.3l-1.5-1.2z"/></svg>