<svg xmlns="http://www.w3.org/2000/svg" width="32" height="32" viewBox="0 0 24 24"><path d="M5.168 14.75h13.664c.277 0 .5-.223.5-.5V6.082c0-.273-.223-.5-.5-.5H5.168c-.277 0-.5.227-.5.5v8.168c0 .277.223.5.5.5Zm16-10.5v.832c0 .277-.227.5-.5.5h-.418v9.586c0 .273-.223.5-.5.5h-6.832v.914l4.582 5.5h-1.832L12 17.5l-3.668 4.582H6.5l4.582-5.5v-.914H4.25a.501.501 0 0 1-.5-.5V5.582h-.418a.501.501 0 0 1-.5-.5V4.25c0-.277.227-.5.5-.5h17.336c.273 0 .5.223.5.5Zm-11-1.875c0-.254.203-.457.457-.457h2.75c.254 0 .457.203.457.457a.455.455 0 0 1-.457.457h-2.75a.455.455 0 0 1-.457-.457Zm0 0"/></svg>